<svg id="Layer_1" data-name="Layer 1" xmlns="http://www.w3.org/2000/svg" viewBox="0 0 869.79 530.03"><defs><style>.cls-1{fill:#34121b;}.cls-2{fill:#9e2221;}.cls-3{fill:#7f785b;}.cls-4{fill:#d5a076;}</style></defs><title>Clever</title><path class="cls-1" d="M308.79,490.71q-16.14,6.48-28.3,6.49-13.08,0-20.29-7.35T253,469.16q0-21.15,13.82-36t33.45-14.83A77.12,77.12,0,0,1,322,421.28l-4.31,14h-3.2a19.59,19.59,0,0,0,.52-3.91c0-2.94-1.61-5.33-4.82-7.15s-7.39-2.75-12.53-2.75q-11.61,0-20.34,10.36a55.08,55.08,0,0,0-9.43,17A57,57,0,0,0,264.26,468q0,11,5.76,17.26t15.8,6.29q11.25,0,23.93-5.68Z" transform="translate(-253 -231)"/><path class="cls-1" d="M326.53,495.93l3.76-15.6,4.91-24.78a32.4,32.4,0,0,0,.77-6.48q0-4.36-3.05-4.36-5.37,0-15.36,11.45l.91-4.51Q330.18,439,338.81,439q7.29,0,7.3,8.36a42.34,42.34,0,0,1-.91,8.21l-2.44,12.21h.66a71.45,71.45,0,0,1,14.28-20.73q8.24-8.06,15.08-8.05a12.57,12.57,0,0,1,6.34,1.59l-6.74,9.16a9.91,9.91,0,0,0-5.07-2q-9.9,0-26.32,29l-3.7,18.49Z" transform="translate(-253 -231)"/><path class="cls-1" d="M425.32,481.43l-.76,3.9q-16.12,11.26-27.49,11.26a14.92,14.92,0,0,1-11.69-5q-4.49-5-4.49-13.05,0-14.28,11-26.88T415.23,439a9.46,9.46,0,0,1,7.3,3,11.21,11.21,0,0,1,2.79,7.9q0,9.72-9.94,16.71t-23.74,7l-.05,2.28q0,14.81,10.86,14.81Q411.83,490.76,425.32,481.43Zm-33.57-10.85q11.36-.91,17.74-5.86a15.49,15.49,0,0,0,6.4-12.81q0-7.76-5.63-7.76-6.09,0-11.77,8.09A38.23,38.23,0,0,0,391.75,470.58Z" transform="translate(-253 -231)"/><path class="cls-1" d="M476.8,467.78h-.91a68.78,68.78,0,0,1-13.78,20.77q-8.06,8-15.1,8-10.69,0-10.69-13.39,0-14.76,11.76-28.91,12.18-14.66,29.72-14.65,7.24,0,15.16.61l-3.65,15-4.92,25.05a51.6,51.6,0,0,0-1.16,7.61c0,2.13,1,3.19,3,3.19q5.07,0,15.11-11.16l-.91,4.72q-11.13,11.93-20,11.92-7.36,0-7.36-7.66a50.39,50.39,0,0,1,1.22-8.62Zm4.09-20.28a31,31,0,0,0-12.63-2.84q-9.22,0-14.75,11.66-6.5,13.8-6.49,24.8,0,8,4.66,8,4.36,0,12.54-9.15A102.82,102.82,0,0,0,478.59,459Z" transform="translate(-253 -231)"/><path class="cls-1" d="M519.44,444H507.82l3.5-3.75h8.82L523,425.9l10.5-2.54-3.34,16.89H549.3l-4.16,4.46a109.8,109.8,0,0,0-11.61-.71h-4.11l-6.89,34.74a45.73,45.73,0,0,0-1.07,7.56q0,4,3.55,4,5.47,0,15-8.11l-.91,4.66q-9.84,9.73-18.92,9.74-8.62,0-8.62-9.54a48.4,48.4,0,0,1,1.12-9Z" transform="translate(-253 -231)"/><path class="cls-1" d="M588.6,480l-.91,4.72q-11.12,11.93-19.93,11.92-7.31,0-7.3-7.66a51.38,51.38,0,0,1,1.16-8.52l3.5-17.64a67.76,67.76,0,0,0,1.42-10q0-4.26-3.29-4.26a35.06,35.06,0,0,0-8.17,1.73l.61-3.09,24.8-8.12-3.86,16.23-5,25.05a54,54,0,0,0-1.16,7.51c0,2.19,1,3.29,3,3.29Q578.52,491.11,588.6,480ZM570,430.21l3.4-6.9,14.3-9.33-4.36,9.33Z" transform="translate(-253 -231)"/><path class="cls-1" d="M614.21,496.59l.25-6.89q0-20-3.65-31.59t-9.88-11.57q-6.34,0-13.39,12.15L589,451.2Q598.2,439,606.12,439q17.63,0,17.63,44.37v2.79l4.15-5q18.47-22.31,18.46-32.44a12.29,12.29,0,0,0-3.34-8.48L653.87,439a12.42,12.42,0,0,1,2.49,6.75q0,4.25-3.48,9.58t-15.07,18.81l-18.14,21.15Z" transform="translate(-253 -231)"/><path class="cls-1" d="M710.56,481.43l-.75,3.9q-16.12,11.26-27.49,11.26a14.92,14.92,0,0,1-11.69-5q-4.49-5-4.49-13.05,0-14.28,11-26.88T700.48,439a9.48,9.48,0,0,1,7.3,3,11.21,11.21,0,0,1,2.78,7.9q0,9.72-9.93,16.71t-23.74,7l0,2.28q0,14.81,10.86,14.81Q697.08,490.76,710.56,481.43ZM677,470.58q11.36-.91,17.74-5.86a15.49,15.49,0,0,0,6.4-12.81q0-7.76-5.63-7.76-6.09,0-11.77,8.09A38.13,38.13,0,0,0,677,470.58Z" transform="translate(-253 -231)"/><path class="cls-2" d="M482.28,303.2q-13.83,5.57-24.26,5.56-11.2,0-17.38-6.3t-6.17-17.73q0-18.14,11.84-30.84T475,241.17a65.75,65.75,0,0,1,18.65,2.53l-3.69,12h-2.74a16.78,16.78,0,0,0,.43-3.35c0-2.53-1.37-4.57-4.13-6.14a21.62,21.62,0,0,0-10.73-2.35q-10,0-17.43,8.88a47.13,47.13,0,0,0-8.09,14.57,48.88,48.88,0,0,0-3.13,16.48q0,9.4,4.94,14.8t13.54,5.39q9.65,0,20.51-4.87Z" transform="translate(-253 -231)"/><path class="cls-2" d="M520.2,293.77l-.78,4q-10.27,10.47-17.67,10.47-6.18,0-6.17-6.65a39.84,39.84,0,0,1,.91-7.35l6-30q3.14-15.74,11.81-24.49A28.62,28.62,0,0,1,535.38,231a30.92,30.92,0,0,1,7.84.91l-6,6.22a21.64,21.64,0,0,0-8.71-2.31q-6.91,0-10.4,5.05T511.89,260l-6.84,34.34a44.54,44.54,0,0,0-1,6.52c0,1.82.86,2.74,2.57,2.74q2.91,0,11.27-7.74C518.33,295.4,519.09,294.72,520.2,293.77Z" transform="translate(-253 -231)"/><path class="cls-2" d="M562.26,295.24l-.66,3.35q-13.82,9.65-23.56,9.65a12.77,12.77,0,0,1-10-4.32q-3.85-4.32-3.85-11.18,0-12.24,9.39-23t20-10.79a8.14,8.14,0,0,1,6.26,2.6,9.64,9.64,0,0,1,2.39,6.77q0,8.34-8.52,14.32t-20.35,6l0,2q0,12.69,9.3,12.69Q550.69,303.24,562.26,295.24Zm-28.78-9.3q9.74-.78,15.21-5a13.22,13.22,0,0,0,5.48-11c0-4.44-1.61-6.65-4.82-6.65q-5.22,0-10.09,6.93A32.83,32.83,0,0,0,533.48,285.94Z" transform="translate(-253 -231)"/><path class="cls-2" d="M590.6,308.24l.21-5.9q0-17.16-3.13-27.08t-8.47-9.92q-5.43,0-11.48,10.42l1.26-6.43q7.89-10.43,14.67-10.42,15.11,0,15.11,38v2.39l3.55-4.3q15.84-19.12,15.83-27.82a10.49,10.49,0,0,0-2.86-7.25l9.3-1a10.62,10.62,0,0,1,2.13,5.78q0,3.65-3,8.21T610.82,289l-15.55,18.13Z" transform="translate(-253 -231)"/><path class="cls-2" d="M673.18,295.24l-.65,3.35q-13.81,9.65-23.56,9.65a12.77,12.77,0,0,1-10-4.32q-3.86-4.32-3.85-11.18,0-12.24,9.39-23t20-10.79a8.11,8.11,0,0,1,6.26,2.6,9.59,9.59,0,0,1,2.39,6.77q0,8.34-8.52,14.32t-20.34,6l0,2q0,12.69,9.3,12.69Q661.62,303.24,673.18,295.24Zm-28.77-9.3q9.74-.78,15.21-5a13.25,13.25,0,0,0,5.48-11c0-4.44-1.61-6.65-4.83-6.65-3.47,0-6.84,2.31-10.08,6.93A32.72,32.72,0,0,0,644.41,285.94Z" transform="translate(-253 -231)"/><path class="cls-2" d="M686.83,307.68l3.22-13.38,4.21-21.23a28.22,28.22,0,0,0,.66-5.56q0-3.74-2.61-3.74-4.6,0-13.17,9.82l.78-3.86q10-10.83,17.43-10.82,6.25,0,6.26,7.16a35.85,35.85,0,0,1-.78,7l-2.09,10.47h.57a61.24,61.24,0,0,1,12.23-17.78q7.07-6.9,12.93-6.89a10.8,10.8,0,0,1,5.44,1.36l-5.78,7.85a8.39,8.39,0,0,0-4.35-1.69q-8.47,0-22.56,24.88l-3.17,15.84Z" transform="translate(-253 -231)"/><path class="cls-2" d="M432.11,727.25l7.56-7.5h1l2.18.06q6,0,8.72-4t5.18-16.08l8.61-43.5q-10.4,0-16.85,5.59A18.42,18.42,0,0,0,442,676.46l.05,1.11-9.88,4.77q1.41-15.78,12.22-23t33.21-7.18q16.13,0,23,3.47t6.87,11.59q0,6.5-4.72,13.23a32,32,0,0,1-11.87,10.4A41.43,41.43,0,0,1,472,695.05h-1.37l1.93-3.1h.91a22.48,22.48,0,0,0,16.33-6.41,21.26,21.26,0,0,0,6.59-15.91q0-14.34-20.28-14.34L468,696.38q-3,15.47-16.78,24.24l19.52.39-7,7.51Z" transform="translate(-253 -231)"/><path class="cls-2" d="M515.23,727.86l3.75-15.6,4.92-24.77a33.22,33.22,0,0,0,.76-6.49c0-2.9-1-4.36-3-4.36q-5.37,0-15.37,11.45l.92-4.51Q518.87,671,527.5,671q7.31,0,7.3,8.36a41.49,41.49,0,0,1-.91,8.21l-2.43,12.21h.66A71.63,71.63,0,0,1,546.39,679q8.25-8.06,15.09-8a12.59,12.59,0,0,1,6.34,1.59l-6.75,9.16a9.82,9.82,0,0,0-5.07-2q-9.88,0-26.32,29L526,727.25Z" transform="translate(-253 -231)"/><path class="cls-2" d="M585.11,728.52a14,14,0,0,1-11.08-5.2,19.23,19.23,0,0,1-4.44-13q0-14.61,11.06-27T604.73,671A15,15,0,0,1,616.35,676c3,3.38,4.56,7.7,4.56,12.93q0,15.18-11,27.36T585.11,728.52Zm5.78-4.41q7.5,0,13.21-9.66A43.33,43.33,0,0,0,609.8,692q0-16.78-10.24-16.79-7.24,0-13.06,10a43.72,43.72,0,0,0-5.8,22.43Q580.7,724.12,590.89,724.11Z" transform="translate(-253 -231)"/><path class="cls-2" d="M598.29,760.36l7.25-7.55a26.15,26.15,0,0,0,9.94,2q7.24,0,11.18-4.92t5.86-16.28l9.73-57.66H630.89l3.56-3.75H643l.15-.66a41.46,41.46,0,0,1,13.34-23.91,35.51,35.51,0,0,1,24.24-9.2,36.68,36.68,0,0,1,8.16.86l-7.25,7.7A18.08,18.08,0,0,0,672,644q-7.62,0-11.32,4.48T654.58,665l-1.47,7.2h19L668,676.7a107.63,107.63,0,0,0-12.94-.77H652.4L645,719.54q-3.35,19.89-13.34,30.68a32.67,32.67,0,0,1-25,10.81A54.44,54.44,0,0,1,598.29,760.36Z" transform="translate(-253 -231)"/><path class="cls-2" d="M717,713.36l-.76,3.9q-16.12,11.26-27.48,11.26a14.92,14.92,0,0,1-11.69-5q-4.5-5-4.49-13,0-14.3,11-26.89T706.86,671a9.46,9.46,0,0,1,7.3,3,11.23,11.23,0,0,1,2.79,7.9q0,9.72-9.94,16.71t-23.73,7l0,2.28q0,14.8,10.85,14.81Q703.47,722.69,717,713.36Zm-33.57-10.85q11.36-.91,17.75-5.86a15.48,15.48,0,0,0,6.39-12.81q0-7.76-5.63-7.75-6.09,0-11.76,8.08A38.25,38.25,0,0,0,683.38,702.51Z" transform="translate(-253 -231)"/><path class="cls-2" d="M722.07,725.53l6.69-6.85q6.59,4.82,13.42,4.82a11.24,11.24,0,0,0,7.08-2.21,6.63,6.63,0,0,0,2.88-5.45c0-2.4-1.91-5.67-5.73-9.84l-4.61-5.07q-6.75-7.41-6.75-12.37,0-6.9,6.55-12.25A22.93,22.93,0,0,1,756.55,671a33,33,0,0,1,10.35,1.93l-2.23,11.2h-3.25l.16-.85a5.56,5.56,0,0,0,.1-1.07q0-6.85-8.8-6.85-9.87,0-9.86,7.92,0,4,5.88,10.64l4.16,4.62q6.8,7.66,6.79,12.57,0,6.79-7.2,12.13a26.84,26.84,0,0,1-16.38,5.32A39.91,39.91,0,0,1,722.07,725.53Z" transform="translate(-253 -231)"/><path class="cls-2" d="M768.93,725.53l6.69-6.85q6.58,4.82,13.41,4.82a11.27,11.27,0,0,0,7.09-2.21,6.63,6.63,0,0,0,2.88-5.45c0-2.4-1.91-5.67-5.73-9.84l-4.61-5.07q-6.75-7.41-6.75-12.37,0-6.9,6.54-12.25a23,23,0,0,1,15-5.35,33,33,0,0,1,10.35,1.93l-2.24,11.2h-3.24l.15-.85a4.87,4.87,0,0,0,.1-1.07q0-6.85-8.79-6.85-9.87,0-9.87,7.92,0,4,5.89,10.64l4.15,4.62q6.8,7.66,6.8,12.57,0,6.79-7.2,12.13a26.84,26.84,0,0,1-16.38,5.32A39.87,39.87,0,0,1,768.93,725.53Z" transform="translate(-253 -231)"/><path class="cls-2" d="M857.22,711.88l-.92,4.72q-11.1,11.92-19.92,11.92-7.3,0-7.3-7.66a50.3,50.3,0,0,1,1.16-8.52l3.5-17.64a69.22,69.22,0,0,0,1.42-10q0-4.26-3.3-4.26a35.26,35.26,0,0,0-8.17,1.73l.61-3.09L849.1,671l-3.85,16.23-5,25a53,53,0,0,0-1.17,7.51q0,3.29,3,3.29Q847.12,723,857.22,711.88Zm-18.61-49.74,3.39-6.9,14.3-9.33-4.36,9.33Z" transform="translate(-253 -231)"/><path class="cls-2" d="M877.1,728.52a14,14,0,0,1-11.08-5.2,19.23,19.23,0,0,1-4.44-13q0-14.61,11.06-27T896.72,671A15,15,0,0,1,908.34,676c3,3.38,4.56,7.7,4.56,12.93q0,15.18-11,27.36T877.1,728.52Zm5.78-4.41q7.5,0,13.21-9.66A43.33,43.33,0,0,0,901.8,692q0-16.78-10.25-16.79-7.24,0-13.06,10a43.72,43.72,0,0,0-5.8,22.43Q872.69,724.12,882.88,724.11Z" transform="translate(-253 -231)"/><path class="cls-2" d="M925.52,727.86l3.76-15.62,5-25a51.72,51.72,0,0,0,1.16-7.61q0-3.14-3-3.14-5,0-15.11,11.15l.91-4.66q11.06-12,19.93-12,7.3,0,7.31,7.61a53.35,53.35,0,0,1-1.17,8.62l-2.49,12.52h.76q6.35-13,14.33-20.86T971.77,671q8.33,0,8.32,9.23a38.53,38.53,0,0,1-.86,7.3l-4.92,24.75a52.16,52.16,0,0,0-1.17,7.61q0,3.2,3,3.19,5.05,0,15.16-11.14l-1,4.71q-11.07,11.91-19.93,11.91-7.3,0-7.31-7.65a51.24,51.24,0,0,1,1.22-8.61l4.92-24.82a24.08,24.08,0,0,0,.61-4.87c0-2.74-1-4.1-3-4.1q-9.69,0-26.88,30.68l-3.7,18.1Z" transform="translate(-253 -231)"/><path class="cls-2" d="M1035.59,699.71h-.92a68.78,68.78,0,0,1-13.78,20.77q-8.05,8-15.1,8-10.69,0-10.69-13.39,0-14.75,11.76-28.9,12.18-14.67,29.73-14.66,7.25,0,15.16.61l-3.65,15-4.93,25a53.09,53.09,0,0,0-1.16,7.61q0,3.2,3,3.19,5.07,0,15.12-11.16l-.92,4.72q-11.12,11.92-20,11.92-7.37,0-7.36-7.66a50.39,50.39,0,0,1,1.22-8.62Zm4.08-20.28a31,31,0,0,0-12.63-2.84q-9.22,0-14.75,11.67-6.48,13.79-6.49,24.79,0,8,4.66,8,4.37,0,12.55-9.15a103.19,103.19,0,0,0,14.36-20.92Z" transform="translate(-253 -231)"/><path class="cls-2" d="M1095.93,711.63l-.91,4.67q-12,12.23-20.6,12.22-7.22,0-7.21-7.76a45.87,45.87,0,0,1,1.07-8.57l7-35q3.66-18.36,13.78-28.57a33.39,33.39,0,0,1,24.64-10.22,36.08,36.08,0,0,1,9.14,1.06l-7,7.25a25.32,25.32,0,0,0-10.16-2.68q-8.07,0-12.13,5.88t-7.31,22.26l-8,40.06a51,51,0,0,0-1.17,7.61q0,3.2,3,3.19,3.39,0,13.14-9C1093.75,713.55,1094.65,712.75,1095.93,711.63Z" transform="translate(-253 -231)"/><path class="cls-3" d="M372.88,634l5-5h.57c3.42,0,5.79-.71,7.09-2.12s2.41-4.54,3.36-9.36l6.15-30.88q-7,0-11.26,3.74a12.31,12.31,0,0,0-4.29,9.75v.75L373,604c.56-6.82,3.25-11.88,8.05-15.14s11.91-4.9,21.33-4.9h19.88l-3,9.56h-2.13a11.86,11.86,0,0,0,.27-2.36q0-2.67-3.06-3.69t-11.14-1h-1.05l-3.92,20h15.08l-3.45,3.48a101.22,101.22,0,0,0-10.45-1h-1.69l-.71,3.65a26.3,26.3,0,0,1-3.6,9.74,27.74,27.74,0,0,1-7.76,7.14l16.23.64,3.55.1a16.42,16.42,0,0,0,10.31-3.75l-.54,2.7q-6,6-11.26,6.05l-1.55,0Z" transform="translate(-253 -231)"/><path class="cls-3" d="M425.79,634.39l2.5-10.41,3.32-16.71a34.76,34.76,0,0,0,.77-5.07c0-1.4-.66-2.09-2-2.09q-3.31,0-10.08,7.42l.61-3.1q7.36-8,13.29-8c3.24,0,4.87,1.69,4.87,5.07a34.71,34.71,0,0,1-.78,5.74l-1.66,8.35h.51a50.6,50.6,0,0,1,9.55-13.91q5.32-5.25,9.92-5.25c3.7,0,5.55,2,5.55,6.15a25.89,25.89,0,0,1-.58,4.87L458.31,624a34.62,34.62,0,0,0-.78,5.07c0,1.42.67,2.13,2,2.13q3.38,0,10.11-7.43l-.65,3.14q-7.37,7.93-13.28,7.94c-3.24,0-4.87-1.7-4.87-5.1a34.22,34.22,0,0,1,.81-5.75l3.28-16.54a16.39,16.39,0,0,0,.41-3.25c0-1.82-.68-2.73-2-2.73q-6.45,0-17.92,20.45L432.92,634Z" transform="translate(-253 -231)"/><path class="cls-3" d="M481.3,599.77h-7.74l2.33-2.5h5.88l1.93-9.57,7-1.69-2.23,11.26h12.74l-2.77,3a71.48,71.48,0,0,0-7.74-.47H488l-4.6,23.16a30.62,30.62,0,0,0-.71,5c0,1.78.79,2.68,2.37,2.68q3.64,0,10-5.41l-.61,3.11q-6.56,6.48-12.61,6.49-5.75,0-5.74-6.36a32.28,32.28,0,0,1,.74-6Z" transform="translate(-253 -231)"/><path class="cls-3" d="M503.31,634.39l2.5-10.41,4.63-23.37q2.45-12.24,9.18-19.05A22.25,22.25,0,0,1,536,574.75a24.33,24.33,0,0,1,6.08.71l-4.63,4.84a16.93,16.93,0,0,0-6.76-1.8q-5.38,0-8.08,3.91t-4.87,14.87l-3.65,18.36h.54a50,50,0,0,1,9.53-13.92q5.34-5.26,9.91-5.26c3.72,0,5.58,2,5.58,6.15a25.52,25.52,0,0,1-.58,4.87L535.83,624a34.38,34.38,0,0,0-.77,5.07c0,1.42.66,2.13,2,2.13,2.26,0,5.63-2.49,10.11-7.44l-.61,3.14q-7.42,7.95-13.31,8-4.87,0-4.88-5.1a35.46,35.46,0,0,1,.78-5.75l3.31-16.54a17.52,17.52,0,0,0,.37-3.25c0-1.82-.67-2.73-2-2.73q-6.43,0-17.92,20.46L510.44,634Z" transform="translate(-253 -231)"/><path class="cls-3" d="M579.19,615.62h-.58q-9.6,19.2-18.71,19.21c-3.6,0-5.41-2.13-5.41-6.39a23.77,23.77,0,0,1,.55-4.57l3.27-16.6a33.87,33.87,0,0,0,.78-5.07c0-1.4-.66-2.09-2-2.09q-3.32,0-10.08,7.4l.61-3.11q7.38-7.95,13.31-7.94c3.28,0,4.91,1.69,4.91,5.07a34.14,34.14,0,0,1-.81,5.74l-3.34,16.64a19.16,19.16,0,0,0-.44,3.18c0,1.82.66,2.73,2,2.73q2.54,0,7.68-6.13a81.69,81.69,0,0,0,9.48-14.29l2.45-12.13,7.17-.41-2.51,10.41L584.21,624a33.5,33.5,0,0,0-.78,5.07c0,1.42.67,2.13,2,2.13,2.23,0,5.59-2.49,10.07-7.44l-.61,3.14q-7.41,7.95-13.31,8c-3.27,0-4.91-1.71-4.91-5.11a32.77,32.77,0,0,1,.82-5.74Z" transform="translate(-253 -231)"/><path class="cls-3" d="M594.05,632.83l4.46-4.56a15,15,0,0,0,8.94,3.21,7.58,7.58,0,0,0,4.73-1.47,4.46,4.46,0,0,0,1.92-3.63c0-1.61-1.28-3.79-3.82-6.56l-3.08-3.38q-4.5-5-4.5-8.25,0-4.61,4.37-8.17a15.28,15.28,0,0,1,10-3.56,21.8,21.8,0,0,1,6.9,1.28l-1.49,7.47h-2.17l.11-.57a3.76,3.76,0,0,0,.06-.71q0-4.57-5.86-4.57-6.58,0-6.58,5.28,0,2.65,3.92,7.1l2.78,3.07c3,3.4,4.53,6.2,4.53,8.39q0,4.53-4.8,8.08a18,18,0,0,1-10.92,3.55A26.54,26.54,0,0,1,594.05,632.83Z" transform="translate(-253 -231)"/><path class="cls-3" d="M652.91,623.74l-.61,3.14q-7.41,7.95-13.29,8c-3.24,0-4.86-1.71-4.86-5.11a34.48,34.48,0,0,1,.77-5.68l2.34-11.76a45.38,45.38,0,0,0,.94-6.66c0-1.9-.73-2.84-2.2-2.84a23.16,23.16,0,0,0-5.44,1.15l.41-2.07,16.53-5.4-2.57,10.81L641.62,624a35,35,0,0,0-.78,5c0,1.46.67,2.2,2,2.2C645.07,631.18,648.42,628.69,652.91,623.74ZM640.5,590.57l2.27-4.59,9.53-6.23L649.39,586Z" transform="translate(-253 -231)"/><path class="cls-3" d="M682.27,615.62h-.62a45.78,45.78,0,0,1-9.18,13.85q-5.37,5.35-10.07,5.36-7.12,0-7.12-8.93,0-9.84,7.84-19.27,8.11-9.76,19.81-9.77,4.83,0,10.11.41l-2.44,10L687.32,624a35.55,35.55,0,0,0-.77,5.07c0,1.42.66,2.13,2,2.13,2.26,0,5.61-2.49,10.08-7.44l-.61,3.14q-7.43,7.95-13.31,8c-3.28,0-4.91-1.71-4.91-5.11a34,34,0,0,1,.81-5.74ZM685,602.1a20.58,20.58,0,0,0-8.41-1.89q-6.15,0-9.83,7.77-4.34,9.19-4.33,16.54c0,3.53,1,5.3,3.11,5.3s4.72-2,8.36-6.1a69.1,69.1,0,0,0,9.58-13.94Z" transform="translate(-253 -231)"/><path class="cls-3" d="M697.64,632.83l4.46-4.56a15,15,0,0,0,8.94,3.21,7.55,7.55,0,0,0,4.72-1.47,4.44,4.44,0,0,0,1.92-3.63c0-1.61-1.27-3.79-3.82-6.56l-3.07-3.38q-4.5-5-4.5-8.25,0-4.61,4.36-8.17a15.3,15.3,0,0,1,10-3.56,21.69,21.69,0,0,1,6.89,1.28L726,605.21h-2.16l.1-.57a3,3,0,0,0,.07-.71q0-4.57-5.87-4.57-6.57,0-6.57,5.28,0,2.65,3.92,7.1l2.77,3.07q4.53,5.1,4.53,8.39,0,4.53-4.8,8.08a17.94,17.94,0,0,1-10.92,3.55A26.49,26.49,0,0,1,697.64,632.83Z" transform="translate(-253 -231)"/><path class="cls-3" d="M741.92,599.77h-7.74l2.33-2.5h5.89l1.92-9.57,7-1.69-2.23,11.26h12.75l-2.78,3a71.19,71.19,0,0,0-7.74-.47h-2.74L744,622.93a29.53,29.53,0,0,0-.71,5c0,1.78.78,2.68,2.36,2.68q3.66,0,10-5.41l-.61,3.11q-6.56,6.48-12.61,6.49-5.74,0-5.75-6.36a33.16,33.16,0,0,1,.74-6Z" transform="translate(-253 -231)"/><path class="cls-3" d="M788,623.74l-.61,3.14q-7.41,7.95-13.29,8c-3.24,0-4.87-1.71-4.87-5.11a34.8,34.8,0,0,1,.78-5.68l2.33-11.76a44.47,44.47,0,0,0,1-6.66c0-1.9-.73-2.84-2.2-2.84a23.16,23.16,0,0,0-5.44,1.15l.41-2.07,16.53-5.4-2.57,10.81L776.75,624a35,35,0,0,0-.78,5c0,1.46.66,2.2,2,2.2C780.19,631.18,783.55,628.69,788,623.74Zm-12.41-33.17L777.9,586l9.53-6.23L784.52,586Z" transform="translate(-253 -231)"/><path class="cls-3" d="M820.49,624.69l-.5,2.63q-11.1,7.51-18.19,7.51a10.09,10.09,0,0,1-7.88-3.32,12.61,12.61,0,0,1-3-8.75q0-9.84,7.43-18.07t16.37-8.23a19.15,19.15,0,0,1,7.81,1.72l-2.27,8.69h-2.1l.11-.51a12.93,12.93,0,0,0,.33-2.33c0-3.11-2.1-4.67-6.32-4.67-4,0-7.27,2.12-9.9,6.36s-4,9.55-4,16q0,9.15,6.83,9.16Q811.78,630.84,820.49,624.69Z" transform="translate(-253 -231)"/><path class="cls-4" d="M752.05,426.69q-16.12,6.49-28.3,6.49-13.08,0-20.28-7.35t-7.2-20.69q0-21.13,13.82-36t33.44-14.83a77.19,77.19,0,0,1,21.76,2.94l-4.31,14h-3.2a19.29,19.29,0,0,0,.51-3.9q0-4.41-4.82-7.16t-12.53-2.74q-11.61,0-20.33,10.36a54.76,54.76,0,0,0-9.43,17A56.66,56.66,0,0,0,707.53,404q0,11,5.75,17.25t15.8,6.3q11.26,0,23.94-5.68Z" transform="translate(-253 -231)"/><path class="cls-4" d="M809.12,403.77h-.87q-14.38,28.8-28.06,28.81c-5.41,0-8.1-3.2-8.1-9.59a35.69,35.69,0,0,1,.81-6.84l4.91-24.9a51,51,0,0,0,1.17-7.61q0-3.13-3-3.14-5,0-15.11,11.1l.91-4.66q11.07-11.93,20-11.92,7.38,0,7.37,7.61a51.45,51.45,0,0,1-1.22,8.62l-5,24.95a27.42,27.42,0,0,0-.66,4.77c0,2.73,1,4.1,3,4.1q3.79,0,11.52-9.2A122.45,122.45,0,0,0,811,394.44l3.68-18.2,10.75-.61-3.75,15.62-5,25.05a50.83,50.83,0,0,0-1.17,7.61q0,3.19,3,3.19,5,0,15.12-11.16l-.92,4.72q-11.13,11.93-20,11.92-7.37,0-7.37-7.66a50.53,50.53,0,0,1,1.22-8.62Z" transform="translate(-253 -231)"/><path class="cls-4" d="M842.22,431.92,846,416.31l4.92-24.77a33,33,0,0,0,.76-6.48c0-2.91-1-4.36-3-4.36q-5.39,0-15.37,11.45l.92-4.51Q845.86,375,854.49,375q7.31,0,7.3,8.36a41.57,41.57,0,0,1-.91,8.21l-2.44,12.21h.67a71.3,71.3,0,0,1,14.27-20.73q8.24-8.06,15.09-8.05a12.72,12.72,0,0,1,6.34,1.58l-6.75,9.17a9.79,9.79,0,0,0-5.07-2q-9.88,0-26.32,29L853,431.31Z" transform="translate(-253 -231)"/><path class="cls-4" d="M931.32,415.94l-.91,4.72q-11.11,11.93-19.93,11.92-7.31,0-7.3-7.66a50.3,50.3,0,0,1,1.16-8.52l3.5-17.65a69,69,0,0,0,1.42-10q0-4.26-3.3-4.26a35.11,35.11,0,0,0-8.16,1.73l.61-3.1,24.8-8.11-3.86,16.23-5,25.05a52.94,52.94,0,0,0-1.17,7.5q0,3.3,3,3.3Q921.22,427.1,931.32,415.94ZM912.71,366.2l3.4-6.9,14.3-9.33-4.36,9.33Z" transform="translate(-253 -231)"/><path class="cls-4" d="M951.2,432.58a14,14,0,0,1-11.08-5.2,19.26,19.26,0,0,1-4.44-13q0-14.61,11.06-27T970.83,375a14.93,14.93,0,0,1,11.61,5.07Q987,385.16,987,393q0,15.17-11,27.36T951.2,432.58Zm5.78-4.41q7.5,0,13.21-9.66a43.4,43.4,0,0,0,5.71-22.45q0-16.79-10.25-16.78-7.24,0-13.06,10a43.88,43.88,0,0,0-5.8,22.44Q946.79,428.17,957,428.17Z" transform="translate(-253 -231)"/><path class="cls-4" d="M989.48,429.59l6.7-6.85a22.49,22.49,0,0,0,13.41,4.82,11.31,11.31,0,0,0,7.08-2.21,6.63,6.63,0,0,0,2.89-5.45q0-3.6-5.74-9.84l-4.61-5.07q-6.74-7.41-6.75-12.38,0-6.89,6.55-12.24a22.94,22.94,0,0,1,15-5.35,32.68,32.68,0,0,1,10.34,1.93l-2.23,11.2h-3.25l.16-.86a4.77,4.77,0,0,0,.1-1.06q0-6.86-8.8-6.85-9.85,0-9.86,7.91,0,4,5.88,10.65l4.16,4.61q6.79,7.67,6.8,12.58,0,6.8-7.21,12.12a26.84,26.84,0,0,1-16.38,5.33A40,40,0,0,1,989.48,429.59Z" transform="translate(-253 -231)"/></svg>