<svg id="Layer_1" data-name="Layer 1" xmlns="http://www.w3.org/2000/svg" viewBox="0 0 170.99 122.19"><defs><style>.cls-1{fill:none;stroke:#9e2221;stroke-miterlimit:10;}.cls-2{fill:#9e2221;}</style></defs><title>lampe</title><path class="cls-1" d="M506.06,369.53l25.22.16s18.65-25.62,59.86-27c25.22-.87,35.29,3.51,48.66,17.07s6.51,34.4,6.51,34.4-12.8,31.73-54,29.83c-42-1.94-61.24-22.17-61.24-22.17l-25.23,1.43Z" transform="translate(-505.34 -318.21)"/><path class="cls-2" d="M527,373.33a235.23,235.23,0,0,0-.51,25.88c0,.48.77.48.75,0a235.23,235.23,0,0,1,.51-25.88c0-.49-.71-.48-.75,0Z" transform="translate(-505.34 -318.21)"/><path class="cls-2" d="M516.11,373.26a235.23,235.23,0,0,0-.51,25.88c0,.48.77.48.75,0a235.23,235.23,0,0,1,.51-25.88c0-.48-.71-.48-.75,0Z" transform="translate(-505.34 -318.21)"/><path class="cls-2" d="M676,383.39l-19.34-.12a.38.38,0,0,0,0,.75l19.34.12a.38.38,0,0,0,0-.75Z" transform="translate(-505.34 -318.21)"/><path class="cls-2" d="M660.89,340.93l-14.48,12.79c-.36.32.17.85.53.53l14.48-12.79c.36-.32-.17-.85-.53-.53Z" transform="translate(-505.34 -318.21)"/><path class="cls-2" d="M640.38,318.59l-8,17.55" transform="translate(-505.34 -318.21)"/><path class="cls-2" d="M640.06,318.4l-8,17.55c-.2.44.45.82.65.38l8-17.55c.19-.44-.45-.82-.65-.38Z" transform="translate(-505.34 -318.21)"/><path class="cls-2" d="M660.1,422.48l-12.68-14.55c-.32-.37-.85.16-.53.53L659.57,423c.32.36.85-.17.53-.53Z" transform="translate(-505.34 -318.21)"/><path class="cls-2" d="M640.15,439.83,632,422.35c-.2-.43-.85-.05-.65.38l8.17,17.48c.2.43.85.05.65-.38Z" transform="translate(-505.34 -318.21)"/></svg>