<?xml version="1.0" encoding="utf-8"?>
<!-- Generator: Adobe Illustrator 23.1.0, SVG Export Plug-In . SVG Version: 6.00 Build 0)  -->
<svg version="1.1" id="Layer_1" xmlns="http://www.w3.org/2000/svg" xmlns:xlink="http://www.w3.org/1999/xlink" x="0px" y="0px"
	 viewBox="0 0 1069 755.5" style="enable-background:new 0 0 1069 755.5;" xml:space="preserve">
<style type="text/css">
	.st0{fill:#FDEFBD;}
	.st1{fill:none;}
	.st2{fill:#7F785B;}
	.st3{font-family:'ArialMT';}
	.st4{font-size:71.67px;}
	.st5{fill:none;stroke:#9B1B37;stroke-miterlimit:10;}
	.st6{fill:#9F2221;}
	.st7{font-family:'Lato-Regular';}
	.st8{font-size:30px;}
	.st9{fill:none;stroke:#D6A176;stroke-width:0.75;stroke-miterlimit:10;}
	.st10{letter-spacing:-5;}
</style>
<title>part5</title>
<rect y="289.4" class="st0" width="1029.2" height="7.3"/>
<path class="st0" d="M79.6,329.2"/>
<rect x="242.1" y="593.3" class="st1" width="192.5" height="55.9"/>
<text transform="matrix(1 0 0 1 242.11 644.28)" class="st2 st3 st4">years</text>
<line class="st5" x1="222.9" y1="297.9" x2="222.9" y2="486.2"/>
<ellipse class="st6" cx="222.9" cy="294.9" rx="5.7" ry="5.8"/>
<rect x="551.6" y="582.5" class="st1" width="426.9" height="151.8"/>
<text transform="matrix(1 0 0 1 551.61 604.66)" class="st2 st7 st8">11 </text>
<text transform="matrix(1 0 0 1 592.2 604.66)" class="st2 st7 st8">y</text>
<text transform="matrix(1 0 0 1 607.17 604.66)" class="st2 st7 st8">ears of higher education</text>
<text transform="matrix(1 0 0 1 551.61 636.56)" class="st2 st7 st8">in the field of mar</text>
<text transform="matrix(1 0 0 1 778.71 636.56)" class="st2 st7 st8">k</text>
<text transform="matrix(1 0 0 1 793.53 636.56)" class="st2 st7 st8">eting,</text>
<text transform="matrix(1 0 0 1 551.61 668.46)" class="st2 st7 st8">communication ,</text>
<text transform="matrix(1 0 0 1 551.61 700.36)" class="st2 st7 st8">projectmanagement  and design</text>
<line class="st5" x1="487.5" y1="116.1" x2="487.5" y2="288.9"/>
<ellipse class="st6" cx="487.5" cy="293.2" rx="5.7" ry="5.4"/>
<line class="st5" x1="804.2" y1="299.3" x2="804.2" y2="471.7"/>
<ellipse class="st6" cx="804.2" cy="295.9" rx="5.7" ry="6.5"/>
<line class="st9" x1="247.9" y1="524.7" x2="738.5" y2="524.7"/>
<line class="st9" x1="487.5" y1="567.6" x2="487.5" y2="710.5"/>
<rect x="18.5" y="313.4" class="st1" width="191.6" height="150"/>
<text transform="matrix(1 0 0 1 19.51 335.54)" class="st2 st7 st8">BA in Econ</text>
<text transform="matrix(1 0 0 1 160.06 335.54)" class="st2 st7 st8">m</text>
<text transform="matrix(1 0 0 1 184.21 335.54)" class="st2 st7 st8">y</text>
<text transform="matrix(1 0 0 1 19.51 367.44)" class="st2 st7 st8">Belarussian</text>
<text transform="matrix(1 0 0 1 19.51 399.34)" class="st2 st7 st8">Economic</text>
<text transform="matrix(1 0 0 1 19.51 431.24)" class="st2 st7 st8">Uni</text>
<text transform="matrix(1 0 0 1 65.77 431.24)" class="st2 st7 st8">v</text>
<text transform="matrix(1 0 0 1 80.74 431.24)" class="st2 st7 st8">ersity</text>
<text transform="matrix(1 0 0 1 19.51 463.14)" class="st2 st7 st8">1998</text>
<rect x="242.1" y="313.2" class="st1" width="265.6" height="238.1"/>
<text transform="matrix(1 0 0 1 243.11 335.35)" class="st2 st7 st8">BA in International</text>
<text transform="matrix(1 0 0 1 243.11 367.25)" class="st2 st7 st8">mar</text>
<text transform="matrix(1 0 0 1 295.04 367.25)" class="st2 st7 st8">k</text>
<text transform="matrix(1 0 0 1 309.86 367.25)" class="st2 st7 st8">et</text>
<text transform="matrix(1 0 0 1 243.11 399.15)" class="st2 st7 st8">communication</text>
<text transform="matrix(1 0 0 1 243.11 431.05)" class="st2 st7 st8">Østfold Uni</text>
<text transform="matrix(1 0 0 1 394.55 431.05)" class="st2 st7 st8">v</text>
<text transform="matrix(1 0 0 1 409.52 431.05)" class="st2 st7 st8">ersity</text>
<text transform="matrix(1 0 0 1 243.11 462.95)" class="st2 st7 st8"> Collegue</text>
<text transform="matrix(1 0 0 1 243.11 494.85)" class="st2 st7 st8">2009</text>
<rect x="507.8" y="189.2" class="st1" width="269.8" height="150.1"/>
<text transform="matrix(1 0 0 1 508.76 211.38)" class="st2 st7 st8">Projectmanagement</text>
<text transform="matrix(1 0 0 1 508.76 243.28)" class="st2 st7 st8">Oslomet</text>
<text transform="matrix(1 0 0 1 508.76 275.18)" class="st2 st7 st8">2011</text>
<line class="st5" x1="5.7" y1="297.8" x2="5.7" y2="486.2"/>
<ellipse class="st6" cx="5.7" cy="294.8" rx="5.7" ry="5.8"/>
<rect x="816.1" y="317.1" class="st1" width="269.8" height="150.1"/>
<text transform="matrix(1 0 0 1 817.14 339.26)" class="st2 st7 st8">Digital Media</text>
<text transform="matrix(1 0 0 1 817.14 371.16)" class="st2 st7 st8">Design</text>
<text transform="matrix(1 0 0 1 817.14 403.06)" class="st2 st7 st8">Oslomet</text>
<text transform="matrix(1 0 0 1 817.14 434.96)" class="st2 st7 st8">2020</text>
<rect x="64.3" y="586.1" class="st1" width="147.6" height="133.1"/>
<rect x="151.7" y="602.4" class="st1" width="192.5" height="55.9"/>
<text transform="matrix(1 0 0 1 151.67 653.43)" class="st2 st3 st4 st10">1</text>
<text transform="matrix(1 0 0 1 186.21 653.43)" class="st2 st3 st4">1</text>
<rect x="1168.6" y="320.5" class="st1" width="290.9" height="134.9"/>
<rect x="1174.9" y="636.1" class="st1" width="252.9" height="104.9"/>
<rect x="1165.7" y="478.5" class="st1" width="290.9" height="109.2"/>
<rect x="2098" y="752.4" class="st1" width="6.2" height="3.1"/>
</svg>
