<?xml version="1.0" encoding="utf-8"?>
<!-- Generator: Adobe Illustrator 23.1.0, SVG Export Plug-In . SVG Version: 6.00 Build 0)  -->
<svg version="1.1" id="Layer_1" xmlns="http://www.w3.org/2000/svg" xmlns:xlink="http://www.w3.org/1999/xlink" x="0px" y="0px"
	 viewBox="0 0 1123.3 678.8" style="enable-background:new 0 0 1123.3 678.8;" xml:space="preserve">
<style type="text/css">
	.st0{display:none;}
	.st1{display:inline;fill:none;}
	.st2{display:inline;fill:#9F2221;}
	.st3{display:inline;opacity:0.26;fill:#FDEFBD;enable-background:new    ;}
	.st4{fill:#FDEFBD;}
	.st5{fill:none;}
	.st6{fill:#7F785B;}
	.st7{font-family:'ArialMT';}
	.st8{font-size:71.6722px;}
	.st9{fill:none;stroke:#9B1B37;stroke-miterlimit:10;}
	.st10{fill:#9F2221;}
	.st11{font-family:'Lato-Regular';}
	.st12{font-size:30px;}
	.st13{fill:none;stroke:#D6A176;stroke-width:0.75;stroke-miterlimit:10;}
	.st14{fill:#FCEEBC;}
	.st15{fill:#9E2221;}
	.st16{opacity:0.85;}
	.st17{fill:#D5A076;}
	.st18{fill:none;stroke:#231F20;stroke-miterlimit:10;}
	.st19{fill:none;stroke:#7F785B;stroke-miterlimit:10;}
</style>
<g id="Backgound" class="st0">
	<rect x="1426.8" y="478.8" class="st1" width="410.2" height="34.3"/>
	<polygon class="st2" points="1440.3,1104.8 1438.8,1106.1 1439,1108.1 1437.2,1107 1435.3,1107.8 1435.8,1105.8 1434.4,1104.3 
		1436.5,1104.2 1437.5,1102.5 1438.3,1104.3 	"/>
	<polygon class="st2" points="1439.1,1139.8 1437.5,1141.1 1437.8,1143.1 1436,1142 1434.1,1142.8 1434.6,1140.8 1433.2,1139.3 
		1435.3,1139.2 1436.3,1137.4 1437.1,1139.3 	"/>
	<polygon class="st2" points="1439.1,1121.5 1437.5,1122.7 1437.8,1124.8 1436,1123.7 1434.1,1124.4 1434.6,1122.5 1433.2,1121 
		1435.3,1120.8 1436.3,1119.1 1437.1,1121 	"/>
	<polygon class="st2" points="1453.7,1104.8 1452.1,1106.1 1452.3,1108.1 1450.6,1107 1448.7,1107.8 1449.2,1105.8 1447.8,1104.3 
		1449.8,1104.2 1450.9,1102.5 1451.7,1104.3 	"/>
	<polygon class="st2" points="1453.7,1121.5 1452.1,1122.7 1452.3,1124.8 1450.6,1123.7 1448.7,1124.4 1449.2,1122.5 1447.8,1121 
		1449.8,1120.8 1450.9,1119.1 1451.7,1121 	"/>
	<polygon class="st2" points="1498.7,1139.8 1497.1,1141.1 1497.3,1143.1 1495.6,1142 1493.7,1142.8 1494.2,1140.8 1492.8,1139.3 
		1494.9,1139.2 1495.9,1137.4 1496.7,1139.3 	"/>
	<polygon class="st2" points="1498.7,1121.5 1497.1,1122.7 1497.3,1124.8 1495.6,1123.7 1493.7,1124.4 1494.2,1122.5 1492.8,1121 
		1494.9,1120.8 1495.9,1119.1 1496.7,1121 	"/>
	<polygon class="st2" points="1484.4,1121.5 1482.8,1122.7 1483,1124.8 1481.3,1123.7 1479.4,1124.4 1479.8,1122.5 1478.5,1121 
		1480.5,1120.8 1481.6,1119.1 1482.3,1121 	"/>
	<polygon class="st2" points="1469,1121.5 1467.4,1122.7 1467.7,1124.8 1465.9,1123.7 1464,1124.4 1464.5,1122.5 1463.1,1121 
		1465.2,1120.8 1466.2,1119.1 1467,1121 	"/>
	<polygon class="st2" points="1453.5,1139.8 1451.9,1141.1 1452.2,1143.1 1450.4,1142 1448.5,1142.8 1449,1140.8 1447.6,1139.3 
		1449.7,1139.2 1450.7,1137.4 1451.5,1139.3 	"/>
	<polygon class="st2" points="1469,1139.8 1467.4,1141.1 1467.7,1143.1 1465.9,1142 1464,1142.8 1464.5,1140.8 1463.1,1139.3 
		1465.2,1139.2 1466.2,1137.4 1467,1139.3 	"/>
	<polygon class="st2" points="1483.9,1139.8 1482.3,1141.1 1482.5,1143.1 1480.8,1142 1478.9,1142.8 1479.3,1140.8 1478,1139.3 
		1480,1139.2 1481.1,1137.4 1481.8,1139.3 	"/>
	<polygon class="st2" points="1498.8,1104.8 1497.2,1106.1 1497.4,1108.1 1495.6,1107 1493.8,1107.8 1494.2,1105.8 1492.8,1104.3 
		1494.9,1104.2 1495.9,1102.5 1496.7,1104.3 	"/>
	<polygon class="st2" points="1469,1104.8 1467.4,1106.1 1467.7,1108.1 1465.9,1107 1464,1107.8 1464.5,1105.8 1463.1,1104.3 
		1465.2,1104.2 1466.2,1102.5 1467,1104.3 	"/>
	<polygon class="st2" points="1484.4,1104.8 1482.8,1106.1 1483,1108.1 1481.3,1107 1479.4,1107.8 1479.8,1105.8 1478.5,1104.3 
		1480.5,1104.2 1481.6,1102.5 1482.3,1104.3 	"/>
	<rect x="1758.3" y="1166.3" class="st1" width="101.4" height="18.5"/>
	<rect x="1770.2" y="1149.4" class="st1" width="101.4" height="18.5"/>
</g>
<g id="Layer_4" class="st0">
</g>
<g id="Layer_5" class="st0">
</g>
<g id="Layer_6" class="st0">
</g>
<g id="Layer_7" class="st0">
</g>
<g id="Layer_8" class="st0">
	<rect x="1685.3" y="388.6" class="st3" width="239.4" height="842"/>
</g>
<rect x="18.2" y="190.8" class="st4" width="1029.2" height="7.3"/>
<path class="st4" d="M97.8,230.6"/>
<rect x="260.3" y="494.7" class="st5" width="192.5" height="55.9"/>
<text transform="matrix(1 0 0 1 260.3138 545.6378)" class="st6 st7 st8">years</text>
<g>
	<line class="st9" x1="241.1" y1="199.3" x2="241.1" y2="387.6"/>
	<ellipse class="st10" cx="241.1" cy="196.3" rx="5.7" ry="5.8"/>
</g>
<rect x="569.8" y="483.9" class="st5" width="426.9" height="151.8"/>
<text transform="matrix(1 0 0 1 569.8105 506.021)" class="st6 st11 st12">11 years of higher education </text>
<text transform="matrix(1 0 0 1 569.8105 537.921)" class="st6 st11 st12">in the field of marketing,</text>
<text transform="matrix(1 0 0 1 569.8105 569.821)" class="st6 st11 st12">communication , </text>
<text transform="matrix(1 0 0 1 569.8105 601.721)" class="st6 st11 st12">projectmanagement  and design</text>
<line class="st9" x1="505.7" y1="17.5" x2="505.7" y2="190.3"/>
<ellipse class="st10" cx="505.7" cy="194.6" rx="5.7" ry="5.4"/>
<line class="st9" x1="822.4" y1="200.7" x2="822.4" y2="373.1"/>
<ellipse class="st10" cx="822.4" cy="197.3" rx="5.7" ry="6.5"/>
<line class="st13" x1="266.1" y1="426.1" x2="756.7" y2="426.1"/>
<line class="st13" x1="505.7" y1="469" x2="505.7" y2="611.9"/>
<rect x="36.7" y="214.8" class="st5" width="191.6" height="150"/>
<text transform="matrix(1 0 0 1 37.709 236.9041)" class="st6 st11 st12">BA in Econmy</text>
<text transform="matrix(1 0 0 1 37.709 268.8041)" class="st6 st11 st12">Belarussian </text>
<text transform="matrix(1 0 0 1 37.709 300.7041)" class="st6 st11 st12">Economic</text>
<text transform="matrix(1 0 0 1 37.709 332.6041)" class="st6 st11 st12">University</text>
<text transform="matrix(1 0 0 1 37.709 364.5041)" class="st6 st11 st12">1998</text>
<rect x="260.3" y="214.6" class="st5" width="265.6" height="238.1"/>
<text transform="matrix(1 0 0 1 261.3139 236.7108)" class="st6 st11 st12">BA in International</text>
<text transform="matrix(1 0 0 1 261.3139 268.6108)" class="st6 st11 st12">market </text>
<text transform="matrix(1 0 0 1 261.3139 300.5108)" class="st6 st11 st12">communication</text>
<text transform="matrix(1 0 0 1 261.3139 332.4108)" class="st6 st11 st12">Østfold University</text>
<text transform="matrix(1 0 0 1 261.3139 364.3108)" class="st6 st11 st12"> Collegue</text>
<text transform="matrix(1 0 0 1 261.3139 396.2108)" class="st6 st11 st12">2009</text>
<rect x="526" y="90.6" class="st5" width="269.8" height="150.1"/>
<text transform="matrix(1 0 0 1 526.9592 112.7451)" class="st6 st11 st12">Projectmanagement</text>
<text transform="matrix(1 0 0 1 526.9592 144.6451)" class="st6 st11 st12">Oslomet</text>
<text transform="matrix(1 0 0 1 526.9592 176.5451)" class="st6 st11 st12">2011</text>
<g>
	<line class="st9" x1="23.9" y1="199.2" x2="23.9" y2="387.6"/>
	<ellipse class="st10" cx="23.9" cy="196.2" rx="5.7" ry="5.8"/>
</g>
<rect x="834.3" y="218.5" class="st5" width="269.8" height="150.1"/>
<text transform="matrix(1 0 0 1 835.335 240.6179)" class="st6 st11 st12">Digital Media </text>
<text transform="matrix(1 0 0 1 835.335 272.5179)" class="st6 st11 st12">Design</text>
<text transform="matrix(1 0 0 1 835.335 304.4179)" class="st6 st11 st12">Oslomet</text>
<text transform="matrix(1 0 0 1 835.335 336.3179)" class="st6 st11 st12">2020</text>
<rect x="82.5" y="487.5" class="st5" width="147.6" height="133.1"/>
<rect x="169.9" y="503.8" class="st5" width="192.5" height="55.9"/>
<text transform="matrix(1 0 0 1 169.8671 554.7867)" class="st6 st7 st8">11</text>
<text transform="matrix(1 0 0 1 943.3829 -72.8953)" class="st7 st12">Lorem ipsum</text>
<polygon class="st14" points="1453,342.8 1173.7,342.8 1173.7,217 1451.4,217 1485.1,279.9 "/>
<polygon class="st14" points="1456.7,181.7 1175.6,181.7 1175.6,65.5 1455,65.5 1489,123.6 "/>
<polygon class="st14" points="1462.8,645.2 1181.7,645.2 1181.7,529.1 1461.2,529.1 1495.1,587.1 "/>
<polygon class="st14" points="1454.7,486.3 1173.7,486.3 1173.7,370.2 1453.1,370.2 1487,428.3 "/>
<g>
	<rect x="1186.8" y="221.9" class="st5" width="290.9" height="134.9"/>
	<text transform="matrix(0.9499 0 0 1 1186.814 244.0376)"><tspan x="0" y="0" class="st6 st11 st12">Content creator</tspan><tspan x="0" y="29.9" class="st6 st11 st12">Bærum International</tspan><tspan x="0" y="59.7" class="st6 st11 st12">Hub</tspan><tspan x="0" y="89.6" class="st6 st11 st12">Jan 2019-April 2019</tspan></text>
	<rect x="1183.9" y="74" class="st5" width="290.9" height="109.2"/>
	<text transform="matrix(0.9499 0 0 1 1183.9148 96.0629)"><tspan x="0" y="0" class="st6 st11 st12">Graphicdesigner</tspan><tspan x="0" y="36" class="st6 st11 st12">Plan A communication</tspan><tspan x="0" y="72" class="st6 st11 st12">Jan 2020-Mars 2020</tspan></text>
	<rect x="1193.1" y="537.5" class="st5" width="252.9" height="104.9"/>
	<text transform="matrix(0.9499 0 0 1 1193.0681 559.5938)"><tspan x="0" y="0" class="st6 st11 st12">Office administr</tspan><tspan x="226.8" y="0" class="st6 st11 st12">-</tspan><tspan x="0" y="36" class="st6 st11 st12">tor</tspan><tspan x="0" y="72" class="st6 st11 st12">Taxoffice</tspan></text>
	<g>
		<ellipse class="st15" cx="1524.3" cy="128.1" rx="9.3" ry="9.8"/>
		<ellipse class="st15" cx="1523.6" cy="276.3" rx="9.3" ry="9.8"/>
		<ellipse class="st15" cx="1526.1" cy="439.4" rx="9.3" ry="9.8"/>
		<ellipse class="st15" cx="1523.6" cy="585.7" rx="9.3" ry="9.8"/>
		<polyline class="st15" points="1524.3,128.1 1523.6,276.3 1526.1,429.6 1523.6,595.5 		"/>
	</g>
	<rect x="1183.9" y="379.9" class="st5" width="290.9" height="109.2"/>
	<text transform="matrix(0.9499 0 0 1 1183.9148 402.0484)"><tspan x="0" y="0" class="st6 st11 st12">Writer\Jounralist</tspan><tspan x="0" y="36" class="st6 st11 st12">Helgelandsblad</tspan><tspan x="0" y="72" class="st6 st11 st12">2018</tspan></text>
</g>
<g id="Layer_10">
</g>
<g>
	<rect x="2116.2" y="653.8" class="st5" width="6.2" height="3.1"/>
	<g class="st16">
		<g>
			<path class="st6" d="M1918.5,153.6l-24.2,57.9c-8-2.3-16.6-3.5-25.4-3.5c-1.9,0-3.9,0.1-5.8,0.2v-63.9
				C1883.7,144.2,1899.2,146.8,1918.5,153.6z"/>
		</g>
		<g>
			<path class="st14" d="M2003.9,336.9c-0.9,2.2-2.1,4.7-3.1,6.9l-58.6-24c5.3-10.2,8.3-21.7,8.3-33.8c0-35-25.1-64.7-59.7-74.6
				l24.2-57.9C1994.6,181.7,2034.5,263.8,2003.9,336.9z"/>
		</g>
		<g>
			<path class="st17" d="M2000.8,343.8c-34.7,71.6-126.1,103.8-204.1,71.9c-28.3-11.6-49.9-28.5-66.8-52.4l62.4-37.2
				c14.9,22.8,42,38,73.1,38c33.9,0,63.1-18.1,76.8-44.4L2000.8,343.8z"/>
		</g>
		<g>
			<path class="st15" d="M1859.6,144.2v63.9c-44.3,2.7-79.4,36.6-79.4,78c0,14.7,4.4,28.4,12.1,40.1l-62.4,37.2
				c-46.5-65.7-26.2-153.6,45.4-196.3C1801.4,151.6,1828.6,144.2,1859.6,144.2z"/>
		</g>
	</g>
	<rect x="1654" y="90.1" class="st5" width="71.5" height="35.7"/>
	<text transform="matrix(1.0974 0 0 1 1653.9613 112.2543)" class="st6 st11 st12">40%</text>
	<rect x="1883.1" y="82.2" class="st5" width="40.1" height="15.9"/>
	<line class="st18" x1="1883.1" y1="70.4" x2="1883.1" y2="145.6"/>
	<polyline class="st19" points="1954.2,375.6 1954.2,426.3 1995.4,426.3 	"/>
	<polyline class="st19" points="1689.7,124.7 1689.7,192.2 1740.8,192.2 	"/>
	<polyline class="st19" points="2057.3,230.3 2057.3,277.2 2014.7,277.2 	"/>
	
		<rect x="1718.7" y="454.3" transform="matrix(6.123234e-17 -1 1 6.123234e-17 1264.4495 2199.3564)" class="st15" width="26.4" height="26.4"/>
	
		<rect x="1718.7" y="511.6" transform="matrix(-1 -1.224647e-16 1.224647e-16 -1 3463.8059 1049.5696)" class="st17" width="26.4" height="26.4"/>
	
		<rect x="1719.4" y="612" transform="matrix(6.123234e-17 -1 1 6.123234e-17 1107.4229 2356.3831)" class="st14" width="25.1" height="25.1"/>
	
		<rect x="1718.7" y="564.5" transform="matrix(-1 -1.224647e-16 1.224647e-16 -1 3463.8059 1155.3147)" class="st6" width="26.4" height="26.4"/>
	<text transform="matrix(1 0 0 1 1762.9352 480.9972)" class="st6 st11" style="font-size:36px;">Customer service</text>
	<text transform="matrix(1 0 0 1 1762.9358 540.2908)" class="st6 st11" style="font-size:36px;">Marketing</text>
	<text transform="matrix(1 0 0 1 1762.9354 590.1116)" class="st6 st11" style="font-size:36px;">Design</text>
	<text transform="matrix(1 0 0 1 1762.9359 637.0053)" class="st6 st11" style="font-size:36px;">Projectmanagement</text>
	<rect x="2031.2" y="183.1" class="st5" width="71.5" height="35.7"/>
	<text transform="matrix(1.0974 0 0 1 2031.1533 205.2478)" class="st6 st11 st12">30%</text>
	<rect x="1855" y="36.1" class="st5" width="71.5" height="35.7"/>
	<text transform="matrix(1.0974 0 0 1 1855.0177 58.2295)" class="st6 st11 st12">15%</text>
	<rect x="2007.3" y="411.7" class="st5" width="71.5" height="35.7"/>
	<text transform="matrix(1.0974 0 0 1 2007.3427 433.8279)" class="st6 st11 st12">40%</text>
</g>
</svg>
