<svg id="Layer_4" data-name="Layer 4" xmlns="http://www.w3.org/2000/svg" viewBox="0 0 1097 743"><defs><style>.cls-1{fill:#fdefbd;}.cls-2{fill:#34121b;}.cls-3{fill:#9f2221;}.cls-4{fill:#9b1b37;}.cls-5{fill:#7f785b;}.cls-6{fill:#d6a176;}</style></defs><title>part5</title><rect class="cls-1" x="32.5" y="240.01" width="1035.33" height="14.85" transform="translate(1067.83 482.87) rotate(180)"/><path class="cls-2" d="M56.82,70.51l5.32-5h.61q5.46,0,7.53-2.1t3.58-9.25l6.54-30.5q-7.41,0-12,3.69A11.81,11.81,0,0,0,63.86,37v.73l-7,3.14q.9-10.12,8.56-15t22.68-4.85h21.14l-3.2,9.46h-2.26a11.12,11.12,0,0,0,.29-2.34q0-2.64-3.26-3.64T89,23.56H87.88L83.71,43.33h16l-3.66,3.44q-8.16-1-11.11-1h-1.8l-.75,3.6A25.07,25.07,0,0,1,78.59,59a28.62,28.62,0,0,1-8.25,7l17.25.64,3.78.1a18.31,18.31,0,0,0,11-3.71l-.57,2.67q-6.36,6-12,6l-1.66,0Z" transform="translate(-32.5 -12)"/><path class="cls-2" d="M138.79,52.38h-.65a46.3,46.3,0,0,1-9.81,13.69q-5.69,5.28-10.64,5.28-7.64,0-7.63-8.85a25.61,25.61,0,0,1,3.72-12.59,36.09,36.09,0,0,1,9.62-11.06,22.7,22.7,0,0,1,7.91-4,48.87,48.87,0,0,1,11.47-1,42.42,42.42,0,0,1,4.42-10.1A27.72,27.72,0,0,1,169.39,12a27.54,27.54,0,0,1,6.47.7l-4.93,4.74a20.12,20.12,0,0,0-7.26-1.73c-3.84,0-6.72,1.3-8.67,3.89s-3.67,7.45-5.21,14.58l-5.64,26.45a31.16,31.16,0,0,0-.87,4.94,1.9,1.9,0,0,0,2.12,2.17q3.6,0,10.75-7.35l-.68,3.11q-7.83,7.84-14.09,7.85c-3.48,0-5.21-1.68-5.21-5a31.45,31.45,0,0,1,.86-5.68ZM141.67,39a23,23,0,0,0-9-1.87q-6.51,0-10.43,7.68-4.64,9.09-4.64,16.33,0,5.25,3.35,5.25,3.09,0,8.9-6a68.9,68.9,0,0,0,10.19-13.79Z" transform="translate(-32.5 -12)"/><path class="cls-2" d="M190.61,52.38H190q-10.2,19-19.9,19-5.74,0-5.75-6.31a21.94,21.94,0,0,1,.58-4.51l3.48-16.4a30.48,30.48,0,0,0,.83-5,1.85,1.85,0,0,0-2.12-2.07q-3.52,0-10.71,7.31l.64-3.07q7.86-7.84,14.16-7.85,5.22,0,5.22,5a31.24,31.24,0,0,1-.87,5.68L172,60.56a17.81,17.81,0,0,0-.47,3.14c0,1.8.71,2.71,2.12,2.71,1.8,0,4.52-2,8.18-6.06a80.57,80.57,0,0,0,10.07-14.12l2.61-12,7.62-.4-2.66,10.29L196,60.63a31.21,31.21,0,0,0-.82,5,1.86,1.86,0,0,0,2.12,2.1q3.56,0,10.71-7.35l-.64,3.11q-7.89,7.84-14.16,7.85-5.22,0-5.22-5a30.64,30.64,0,0,1,.87-5.68Z" transform="translate(-32.5 -12)"/><path class="cls-2" d="M242.59,61.33l-.54,2.6q-11.81,7.42-19.35,7.42a11.12,11.12,0,0,1-8.37-3.27,11.94,11.94,0,0,1-3.17-8.65q0-9.72,7.91-17.85t17.4-8.14a21.61,21.61,0,0,1,8.31,1.71l-2.41,8.58h-2.23l.11-.5a11.67,11.67,0,0,0,.36-2.31q0-4.61-6.73-4.61c-4.21,0-7.73,2.1-10.53,6.28s-4.21,9.44-4.21,15.77q0,9,7.27,9Q233.31,67.41,242.59,61.33Z" transform="translate(-32.5 -12)"/><path class="cls-2" d="M279.52,52.38h-.65a45,45,0,0,1-9.77,13.67q-5.72,5.31-10.7,5.3-7.57,0-7.58-8.82,0-9.72,8.34-19,8.63-9.65,21.07-9.65c3.43,0,7,.14,10.75.4l-2.59,9.89-3.49,16.5a32.4,32.4,0,0,0-.83,5,1.87,1.87,0,0,0,2.13,2.1q3.58,0,10.71-7.35l-.65,3.11q-7.89,7.84-14.15,7.85c-3.48,0-5.23-1.68-5.23-5a31.12,31.12,0,0,1,.87-5.68ZM282.41,39a23.25,23.25,0,0,0-9-1.87q-6.54,0-10.46,7.68-4.59,9.09-4.6,16.33c0,3.5,1.11,5.25,3.31,5.25s5-2,8.89-6A67.89,67.89,0,0,0,280.79,46.6Z" transform="translate(-32.5 -12)"/><path class="cls-2" d="M309.74,36.71h-8.23L304,34.24h6.26l2.05-9.45,7.44-1.67-2.37,11.12h13.55L328,37.18q-4.64-.47-8.23-.47h-2.91l-4.89,22.88a27.57,27.57,0,0,0-.76,5q0,2.64,2.52,2.64,3.89,0,10.61-5.35l-.65,3.08q-7,6.41-13.41,6.41-6.12,0-6.11-6.28a29.78,29.78,0,0,1,.79-5.94Z" transform="translate(-32.5 -12)"/><path class="cls-2" d="M358.78,60.39l-.64,3.11q-7.87,7.84-14.13,7.85-5.17,0-5.18-5a31.19,31.19,0,0,1,.83-5.61l2.48-11.63a42.09,42.09,0,0,0,1-6.58c0-1.87-.78-2.8-2.34-2.8A26.85,26.85,0,0,0,335,40.82l.43-2L353,33.44,350.3,44.13l-3.52,16.5a31.66,31.66,0,0,0-.83,4.94,1.9,1.9,0,0,0,2.12,2.17Q351.63,67.74,358.78,60.39ZM345.59,27.63,348,23.09l10.14-6.15-3.09,6.15Z" transform="translate(-32.5 -12)"/><path class="cls-2" d="M372.88,71.35A10.24,10.24,0,0,1,365,67.93a12.14,12.14,0,0,1-3.14-8.54q0-9.62,7.83-17.78t17.08-8.17A11,11,0,0,1,395,36.78a11.74,11.74,0,0,1,3.24,8.52q0,10-7.84,18T372.88,71.35Zm4.1-2.91q5.31,0,9.36-6.36a26.93,26.93,0,0,0,4.05-14.78q0-11.05-7.27-11-5.13,0-9.25,6.56a27.2,27.2,0,0,0-4.12,14.78Q369.75,68.45,377,68.44Z" transform="translate(-32.5 -12)"/><path class="cls-2" d="M407.21,70.92l2.67-10.29,3.52-16.5a33,33,0,0,0,.83-5,1.86,1.86,0,0,0-2.13-2.07q-3.53,0-10.71,7.34l.65-3.07q7.83-7.87,14.12-7.88,5.18,0,5.18,5a32.06,32.06,0,0,1-.82,5.68l-1.77,8.25h.54a50.09,50.09,0,0,1,10.16-13.74q5.66-5.2,10.55-5.2,5.89,0,5.9,6.08a24,24,0,0,1-.61,4.81l-3.49,16.3a32.4,32.4,0,0,0-.83,5,1.87,1.87,0,0,0,2.13,2.1q3.58,0,10.74-7.34l-.68,3.11q-7.85,7.83-14.13,7.84-5.17,0-5.18-5a31.82,31.82,0,0,1,.86-5.67l3.5-16.35a14.73,14.73,0,0,0,.43-3.2c0-1.8-.72-2.71-2.16-2.71q-6.87,0-19.06,20.21L414.8,70.51Z" transform="translate(-32.5 -12)"/><path class="cls-1" d="M172.82,308.09" transform="translate(-32.5 -12)"/><line class="cls-3" x1="46.36" y1="241.1" x2="46.36" y2="410.67"/><rect class="cls-4" x="44.61" y="241.1" width="3.51" height="169.56"/><path class="cls-5" d="M72.68,569.83h-.5L43.65,584.14l-4.29-15.72L75.21,550.6H94.14V703.05H72.68Z" transform="translate(-32.5 -12)"/><path class="cls-5" d="M202.19,569.83h-.51l-28.53,14.31-4.29-15.72,35.85-17.82h18.93V703.05H202.19Z" transform="translate(-32.5 -12)"/><path class="cls-5" d="M302.43,607.64l13.38,33.53c1.38,3.75,2.9,8.21,3.91,11.61H320c1.14-3.4,2.4-7.74,3.91-11.85L336,607.64h11.73l-16.65,40.45c-8,19.46-13.38,29.42-20.95,35.52a30.88,30.88,0,0,1-13.63,6.68l-2.78-8.67a30,30,0,0,0,9.72-5,31.9,31.9,0,0,0,9.34-11.49,7.16,7.16,0,0,0,.88-2.47,8.38,8.38,0,0,0-.76-2.69l-22.59-52.29Z" transform="translate(-32.5 -12)"/><path class="cls-5" d="M362.76,637.89c.25,14,9.85,19.69,20.95,19.69,8,0,12.75-1.29,16.91-2.93l1.9,7.39c-3.92,1.64-10.6,3.52-20.32,3.52-18.81,0-30-11.49-30-28.61s10.85-30.6,28.65-30.6c19.94,0,25.24,16.29,25.24,26.73a35.65,35.65,0,0,1-.38,4.81Zm32.56-7.39c.13-6.57-2.9-16.76-15.4-16.76-11.23,0-16.15,9.61-17,16.76Z" transform="translate(-32.5 -12)"/><path class="cls-5" d="M453.64,664.38l-.89-7.15h-.37c-3.41,4.46-10,8.44-18.68,8.44-12.37,0-18.68-8.09-18.68-16.29,0-13.72,13.12-21.22,36.72-21.11V627.1c0-4.69-1.38-13.13-13.88-13.13a32.15,32.15,0,0,0-15.9,4.22l-2.52-6.8c5-3,12.36-5,20.06-5,18.68,0,23.23,11.84,23.23,23.21v21.22a74.05,74.05,0,0,0,1,13.6Zm-1.64-29c-12.12-.23-25.88,1.76-25.88,12.78,0,6.69,4.8,9.85,10.48,9.85,7.95,0,13-4.69,14.77-9.49a10.36,10.36,0,0,0,.63-3.29Z" transform="translate(-32.5 -12)"/><path class="cls-5" d="M480.65,625.34c0-6.68-.12-12.43-.5-17.7h9.72l.38,11.14h.5c2.78-7.62,9.47-12.43,16.91-12.43a13.17,13.17,0,0,1,3.16.35v9.73a18.25,18.25,0,0,0-3.79-.35c-7.82,0-13.37,5.51-14.89,13.25a27.3,27.3,0,0,0-.51,4.81v30.24h-11Z" transform="translate(-32.5 -12)"/><path class="cls-5" d="M520.42,653.83a30.6,30.6,0,0,0,14.64,4.1c8.07,0,11.86-3.75,11.86-8.44,0-4.92-3.16-7.62-11.36-10.43-11-3.64-16.15-9.26-16.15-16.06,0-9.15,8-16.65,21.07-16.65a32.27,32.27,0,0,1,15,3.52l-2.77,7.5a25.1,25.1,0,0,0-12.5-3.28c-6.56,0-10.22,3.51-10.22,7.73,0,4.69,3.66,6.8,11.61,9.62,10.6,3.75,16,8.67,16,17.12,0,10-8.33,17-22.85,17a37,37,0,0,1-17.16-3.87Z" transform="translate(-32.5 -12)"/><ellipse class="cls-3" cx="46.36" cy="238.33" rx="10.05" ry="10.58"/><path class="cls-5" d="M108.47,276.66a28.31,28.31,0,0,1,7-.8c3.79,0,6.24.85,8.07,2.78A9.94,9.94,0,0,1,121,293.79v.11c2.8.91,6.07,3.92,6.07,9.59a11.94,11.94,0,0,1-2.49,7.66c-2.05,2.44-5.37,3.57-10.17,3.57a34.22,34.22,0,0,1-5.9-.45Zm3.8,15.65h3.45a6,6,0,0,0,6.38-6.41c0-4.48-2.62-6.24-6.47-6.24a12.75,12.75,0,0,0-3.36.34Zm0,18.33a15.77,15.77,0,0,0,3.19.23c3.93,0,7.55-1.88,7.55-7.44,0-5.22-3.45-7.37-7.59-7.37h-3.15Z" transform="translate(-32.5 -12)"/><path class="cls-5" d="M136.89,302.36l-3.06,12H129.9l10-38.24h4.59l10,38.24h-4.06l-3.15-12Zm9.65-3.86-2.88-11c-.66-2.49-1.1-4.76-1.53-7H142c-.44,2.27-.92,4.6-1.49,6.92l-2.88,11.07Z" transform="translate(-32.5 -12)"/><path class="cls-5" d="M172.24,279.21c0,1.7-.92,3.06-2.45,3.06-1.35,0-2.31-1.36-2.31-3.06s1-3.12,2.4-3.12S172.24,277.45,172.24,279.21ZM168,314.38V286.92h3.84v27.46Z" transform="translate(-32.5 -12)"/><path class="cls-5" d="M178.17,294.36c0-2.84,0-5.17-.18-7.44h3.41l.22,4.54h.08a7.75,7.75,0,0,1,7-5.16c2.93,0,7.47,2.27,7.47,11.69v16.39h-3.85V298.55c0-4.42-1.26-8.11-4.88-8.11-2.54,0-4.5,2.33-5.16,5.11a9.33,9.33,0,0,0-.26,2.32v16.51h-3.84Z" transform="translate(-32.5 -12)"/><path class="cls-5" d="M227,296.46H215.57v13.78h12.75v4.14H211.77V276.14h15.89v4.15H215.57v12.08H227Z" transform="translate(-32.5 -12)"/><path class="cls-5" d="M248,313.36a11.47,11.47,0,0,1-6.07,1.59c-6.37,0-10.52-5.62-10.52-14s4.45-14.58,11.35-14.58a10.44,10.44,0,0,1,5.33,1.42l-.87,3.85a7.34,7.34,0,0,0-4.46-1.3c-4.84,0-7.46,4.65-7.46,10.38,0,6.35,3.14,10.27,7.33,10.27a9,9,0,0,0,4.72-1.36Z" transform="translate(-32.5 -12)"/><path class="cls-5" d="M271.35,300.43c0,10.15-5.41,14.58-10.52,14.58-5.72,0-10.13-5.45-10.13-14.13,0-9.19,4.63-14.58,10.48-14.58C267.25,286.3,271.35,292,271.35,300.43Zm-16.77.28c0,6,2.67,10.55,6.42,10.55s6.42-4.48,6.42-10.66c0-4.65-1.79-10.55-6.33-10.55S254.58,295.49,254.58,300.71Z" transform="translate(-32.5 -12)"/><path class="cls-5" d="M276.18,294.36c0-2.84,0-5.17-.17-7.44h3.41l.21,4.54h.09a7.74,7.74,0,0,1,7-5.16c2.92,0,7.46,2.27,7.46,11.69v16.39h-3.84V298.55c0-4.42-1.26-8.11-4.89-8.11-2.53,0-4.5,2.33-5.15,5.11a8.88,8.88,0,0,0-.26,2.32v16.51h-3.85Z" transform="translate(-32.5 -12)"/><path class="cls-5" d="M319.53,300.43c0,10.15-5.42,14.58-10.52,14.58-5.72,0-10.13-5.45-10.13-14.13,0-9.19,4.62-14.58,10.48-14.58C315.42,286.3,319.53,292,319.53,300.43Zm-16.77.28c0,6,2.67,10.55,6.42,10.55s6.42-4.48,6.42-10.66c0-4.65-1.79-10.55-6.33-10.55S302.76,295.49,302.76,300.71Z" transform="translate(-32.5 -12)"/><path class="cls-5" d="M324.36,294.36c0-2.84,0-5.17-.17-7.44h3.36l.17,4.43h.14c1.18-2.61,3.14-5.05,6.63-5.05,2.88,0,5.07,2.27,6,5.5h.09a11.13,11.13,0,0,1,2.36-3.57,6.17,6.17,0,0,1,4.67-1.93c2.8,0,6.94,2.38,6.94,11.91v16.17h-3.75V298.84c0-5.28-1.49-8.46-4.59-8.46-2.18,0-3.88,2.1-4.54,4.54a10.77,10.77,0,0,0-.3,2.5v17h-3.76V297.93c0-4.37-1.48-7.55-4.41-7.55-2.4,0-4.14,2.5-4.76,5a9.07,9.07,0,0,0-.3,2.44v16.56h-3.76Z" transform="translate(-32.5 -12)"/><path class="cls-5" d="M361.59,286.92l4.63,16.23c.48,1.82,1,4,1.35,5.61h.09c.39-1.64.83-3.74,1.35-5.72l4.19-16.12h4.06L371.5,306.5c-2.75,9.41-4.63,14.24-7.25,17.19a9.81,9.81,0,0,1-4.71,3.23l-1-4.2a9.85,9.85,0,0,0,3.36-2.44,15.21,15.21,0,0,0,3.23-5.56,4.24,4.24,0,0,0,.31-1.19,5.27,5.27,0,0,0-.27-1.3l-7.81-25.31Z" transform="translate(-32.5 -12)"/><path class="cls-5" d="M108.14,342.82a25.66,25.66,0,0,1,6.24-.71c3.42,0,5.61.76,7.26,2.5a8.93,8.93,0,0,1-2.27,13.61v.1c2.51.82,5.45,3.52,5.45,8.62a10.74,10.74,0,0,1-2.24,6.89c-1.84,2.19-4.82,3.21-9.14,3.21a30.21,30.21,0,0,1-5.3-.41Zm3.41,14.08h3.1a5.42,5.42,0,0,0,5.74-5.77c0-4-2.36-5.61-5.81-5.61a11.53,11.53,0,0,0-3,.31Zm0,16.47a14.43,14.43,0,0,0,2.87.2c3.53,0,6.79-1.68,6.79-6.68,0-4.69-3.1-6.63-6.83-6.63h-2.83Z" transform="translate(-32.5 -12)"/><path class="cls-5" d="M131.39,365.21c.08,6.07,3.06,8.57,6.52,8.57a10,10,0,0,0,5.26-1.28l.59,3.22a12.47,12.47,0,0,1-6.33,1.53c-5.84,0-9.34-5-9.34-12.45s3.38-13.31,8.91-13.31c6.21,0,7.85,7.09,7.85,11.63,0,.92-.07,1.63-.11,2.09ZM141.52,362c0-2.86-.91-7.3-4.79-7.3-3.5,0-5,4.19-5.3,7.3Z" transform="translate(-32.5 -12)"/><path class="cls-5" d="M149.14,340.53h3.46v36.21h-3.46Z" transform="translate(-32.5 -12)"/><path class="cls-5" d="M168.93,376.74l-.27-3.12h-.12a6.72,6.72,0,0,1-5.81,3.68c-3.84,0-5.81-3.52-5.81-7.09,0-6,4.08-9.23,11.43-9.18v-.51c0-2-.44-5.71-4.32-5.71a8,8,0,0,0-4.95,1.83l-.78-3a9.86,9.86,0,0,1,6.24-2.19c5.81,0,7.22,5.15,7.22,10.1v9.23a46.17,46.17,0,0,0,.31,5.92Zm-.51-12.6c-3.76-.1-8,.76-8,5.56,0,2.9,1.49,4.28,3.26,4.28,2.47,0,4-2,4.59-4.13a5.85,5.85,0,0,0,.19-1.43Z" transform="translate(-32.5 -12)"/><path class="cls-5" d="M177.34,359.75c0-2.9,0-5.4-.15-7.7h3l.12,4.85h.16c.86-3.32,2.94-5.41,5.26-5.41a3,3,0,0,1,1,.15v4.24a4.18,4.18,0,0,0-1.18-.15c-2.44,0-4.16,2.39-4.63,5.76a15.89,15.89,0,0,0-.16,2.09v13.16h-3.42Z" transform="translate(-32.5 -12)"/><path class="cls-5" d="M206.09,370c0,2.55,0,4.8.15,6.74h-3.06l-.2-4h-.07c-.91,2-2.91,4.59-6.28,4.59-3,0-6.56-2.15-6.56-10.82V352.05h3.45v13.67c0,4.69,1.1,7.85,4.24,7.85,2.32,0,3.93-2.09,4.56-4.08a8.51,8.51,0,0,0,.31-2.29V352.05h3.46Z" transform="translate(-32.5 -12)"/><path class="cls-5" d="M211.36,372.14a7.63,7.63,0,0,0,4.55,1.79,3.41,3.41,0,0,0,3.69-3.67c0-2.14-1-3.32-3.53-4.54-3.42-1.58-5-4-5-7,0-4,2.48-7.24,6.56-7.24a7.9,7.9,0,0,1,4.67,1.53l-.86,3.26a6.26,6.26,0,0,0-3.89-1.42,3.12,3.12,0,0,0-3.18,3.36c0,2,1.14,3,3.61,4.19,3.3,1.63,5,3.77,5,7.44,0,4.34-2.59,7.4-7.11,7.4a9,9,0,0,1-5.34-1.69Z" transform="translate(-32.5 -12)"/><path class="cls-5" d="M226.91,372.14a7.66,7.66,0,0,0,4.55,1.79,3.4,3.4,0,0,0,3.69-3.67c0-2.14-1-3.32-3.53-4.54-3.41-1.58-5-4-5-7,0-4,2.47-7.24,6.55-7.24a7.87,7.87,0,0,1,4.67,1.53l-.86,3.26a6.24,6.24,0,0,0-3.89-1.42,3.12,3.12,0,0,0-3.18,3.36c0,2,1.14,3,3.61,4.19,3.3,1.63,5,3.77,5,7.44,0,4.34-2.59,7.4-7.1,7.4a8.92,8.92,0,0,1-5.34-1.69Z" transform="translate(-32.5 -12)"/><path class="cls-5" d="M246.78,345.12c0,1.53-.82,2.75-2.2,2.75-1.21,0-2.08-1.22-2.08-2.75s.91-2.81,2.16-2.81S246.78,343.54,246.78,345.12Zm-3.84,31.62V352.05h3.45v24.69Z" transform="translate(-32.5 -12)"/><path class="cls-5" d="M262.65,376.74l-.28-3.12h-.12a6.71,6.71,0,0,1-5.8,3.68c-3.85,0-5.82-3.52-5.82-7.09,0-6,4.09-9.23,11.43-9.18v-.51c0-2-.43-5.71-4.32-5.71a8,8,0,0,0-5,1.83l-.78-3a9.88,9.88,0,0,1,6.24-2.19c5.81,0,7.22,5.15,7.22,10.1v9.23a44.3,44.3,0,0,0,.32,5.92Zm-.51-12.6c-3.77-.1-8,.76-8,5.56,0,2.9,1.49,4.28,3.26,4.28,2.47,0,4-2,4.59-4.13a5.87,5.87,0,0,0,.2-1.43Z" transform="translate(-32.5 -12)"/><path class="cls-5" d="M271.06,358.73c0-2.55,0-4.64-.16-6.68H274l.2,4.08h.08a7,7,0,0,1,6.28-4.64c2.63,0,6.71,2,6.71,10.51v14.74h-3.45V362.51c0-4-1.14-7.29-4.4-7.29-2.28,0-4,2.08-4.63,4.58a8.2,8.2,0,0,0-.24,2.1v14.84h-3.45Z" transform="translate(-32.5 -12)"/><path class="cls-5" d="M315,360.62H304.71V373h11.47v3.73H301.3V342.36h14.29v3.73H304.71V357H315Z" transform="translate(-32.5 -12)"/><path class="cls-5" d="M333.89,375.82a10.31,10.31,0,0,1-5.45,1.43c-5.74,0-9.46-5.05-9.46-12.6s4-13.11,10.2-13.11a9.38,9.38,0,0,1,4.79,1.28l-.79,3.46a6.58,6.58,0,0,0-4-1.17c-4.36,0-6.71,4.18-6.71,9.33,0,5.72,2.82,9.24,6.59,9.24a8,8,0,0,0,4.24-1.23Z" transform="translate(-32.5 -12)"/><path class="cls-5" d="M354.9,364.19c0,9.13-4.87,13.11-9.46,13.11-5.14,0-9.1-4.9-9.1-12.7,0-8.26,4.16-13.11,9.42-13.11C351.21,351.49,354.9,356.64,354.9,364.19Zm-15.07.25c0,5.41,2.39,9.49,5.77,9.49s5.77-4,5.77-9.59c0-4.18-1.61-9.48-5.69-9.48S339.83,359.75,339.83,364.44Z" transform="translate(-32.5 -12)"/><path class="cls-5" d="M359.27,358.73c0-2.55,0-4.64-.16-6.68h3.07l.19,4.08h.08a7,7,0,0,1,6.28-4.64c2.63,0,6.71,2,6.71,10.51v14.74H372V362.51c0-4-1.14-7.29-4.4-7.29-2.27,0-4,2.08-4.63,4.58a8.2,8.2,0,0,0-.24,2.1v14.84h-3.45Z" transform="translate(-32.5 -12)"/><path class="cls-5" d="M398.26,364.19c0,9.13-4.87,13.11-9.46,13.11-5.14,0-9.1-4.9-9.1-12.7,0-8.26,4.16-13.11,9.42-13.11C394.57,351.49,398.26,356.64,398.26,364.19Zm-15.07.25c0,5.41,2.39,9.49,5.77,9.49s5.77-4,5.77-9.59c0-4.18-1.61-9.48-5.69-9.48S383.19,359.75,383.19,364.44Z" transform="translate(-32.5 -12)"/><path class="cls-5" d="M402.63,358.73c0-2.55,0-4.64-.16-6.68h3l.15,4h.12c1.06-2.35,2.83-4.54,6-4.54,2.59,0,4.55,2,5.38,4.95h.07a9.89,9.89,0,0,1,2.12-3.21,5.56,5.56,0,0,1,4.21-1.74c2.51,0,6.24,2.14,6.24,10.71v14.54h-3.38v-14c0-4.74-1.33-7.6-4.12-7.6-2,0-3.49,1.89-4.08,4.08a9.34,9.34,0,0,0-.28,2.25v15.25h-3.37V362c0-3.93-1.34-6.79-4-6.79-2.16,0-3.73,2.25-4.28,4.49a8.11,8.11,0,0,0-.27,2.19v14.9h-3.38Z" transform="translate(-32.5 -12)"/><path class="cls-5" d="M439.23,345.12c0,1.53-.82,2.75-2.19,2.75s-2.08-1.22-2.08-2.75.9-2.81,2.16-2.81S439.23,343.54,439.23,345.12Zm-3.84,31.62V352.05h3.45v24.69Z" transform="translate(-32.5 -12)"/><path class="cls-5" d="M458.12,375.82a10.31,10.31,0,0,1-5.45,1.43c-5.74,0-9.46-5.05-9.46-12.6s4-13.11,10.2-13.11a9.38,9.38,0,0,1,4.79,1.28l-.79,3.46a6.55,6.55,0,0,0-4-1.17c-4.35,0-6.71,4.18-6.71,9.33,0,5.72,2.82,9.24,6.59,9.24a8,8,0,0,0,4.24-1.23Z" transform="translate(-32.5 -12)"/><path class="cls-5" d="M111.55,404.71v20.35c0,7.7,2.63,11,6.17,11,3.92,0,6.43-3.37,6.43-11V404.71h3.46v20.05c0,10.55-4.28,14.89-10,14.89-5.42,0-9.5-4-9.5-14.69V404.71Z" transform="translate(-32.5 -12)"/><path class="cls-5" d="M133.43,421.09c0-2.56,0-4.65-.15-6.69h3.06l.19,4.08h.08a7,7,0,0,1,6.28-4.64c2.63,0,6.71,2,6.71,10.51v14.74h-3.45V424.86c0-4-1.14-7.29-4.39-7.29-2.28,0-4,2.09-4.64,4.58a8.7,8.7,0,0,0-.23,2.1v14.84h-3.46Z" transform="translate(-32.5 -12)"/><path class="cls-5" d="M159.08,407.47c0,1.53-.83,2.75-2.2,2.75-1.22,0-2.08-1.22-2.08-2.75s.9-2.81,2.16-2.81S159.08,405.89,159.08,407.47Zm-3.85,31.62V414.4h3.45v24.69Z" transform="translate(-32.5 -12)"/><path class="cls-5" d="M165.76,414.4l3.73,13.88c.62,2.24,1.13,4.28,1.53,6.32h.11c.44-2,1-4.08,1.62-6.32l3.69-13.88h3.61l-7.46,24.69h-3.3l-7.22-24.69Z" transform="translate(-32.5 -12)"/><path class="cls-5" d="M184.85,427.56c.07,6.07,3.06,8.57,6.51,8.57a10,10,0,0,0,5.26-1.28l.59,3.22a12.46,12.46,0,0,1-6.32,1.53c-5.85,0-9.34-5-9.34-12.45s3.37-13.31,8.91-13.31c6.2,0,7.85,7.09,7.85,11.63,0,.92-.08,1.63-.12,2.09ZM195,424.35c0-2.86-.9-7.3-4.79-7.3-3.49,0-5,4.19-5.29,7.3Z" transform="translate(-32.5 -12)"/><path class="cls-5" d="M202.6,422.1c0-2.9,0-5.4-.16-7.7h3l.12,4.85h.16c.86-3.32,2.94-5.41,5.26-5.41a3,3,0,0,1,1,.15v4.24a4.08,4.08,0,0,0-1.18-.15c-2.43,0-4.16,2.39-4.63,5.76a15.89,15.89,0,0,0-.16,2.09v13.16H202.6Z" transform="translate(-32.5 -12)"/><path class="cls-5" d="M215,434.5a7.72,7.72,0,0,0,4.56,1.78,3.4,3.4,0,0,0,3.68-3.67c0-2.14-1-3.32-3.53-4.54-3.41-1.58-5-4-5-7,0-4,2.47-7.25,6.55-7.25a7.87,7.87,0,0,1,4.67,1.53l-.86,3.27a6.18,6.18,0,0,0-3.89-1.43,3.12,3.12,0,0,0-3.18,3.37c0,2,1.14,2.95,3.62,4.18,3.29,1.63,5,3.77,5,7.44,0,4.34-2.59,7.4-7.1,7.4a8.92,8.92,0,0,1-5.34-1.69Z" transform="translate(-32.5 -12)"/><path class="cls-5" d="M234.84,407.47c0,1.53-.82,2.75-2.2,2.75-1.21,0-2.08-1.22-2.08-2.75s.91-2.81,2.16-2.81S234.84,405.89,234.84,407.47ZM231,439.09V414.4h3.45v24.69Z" transform="translate(-32.5 -12)"/><path class="cls-5" d="M244.35,407.31v7.09h4.94v3.42h-4.94v13.31c0,3.06.67,4.8,2.59,4.8a6.08,6.08,0,0,0,2-.31l.16,3.36a6.68,6.68,0,0,1-3.06.62,4.3,4.3,0,0,1-3.73-1.89c-1-1.33-1.34-3.52-1.34-6.43V417.82H238V414.4H241v-5.91Z" transform="translate(-32.5 -12)"/><path class="cls-5" d="M254.8,414.4,259,429c.43,1.63.9,3.57,1.21,5.05h.08c.36-1.48.75-3.37,1.22-5.15l3.77-14.49h3.65L263.71,432c-2.48,8.46-4.16,12.8-6.52,15.45a8.87,8.87,0,0,1-4.24,2.91l-.86-3.78a8.74,8.74,0,0,0,3-2.19,13.85,13.85,0,0,0,2.91-5,4.12,4.12,0,0,0,.27-1.07,4.83,4.83,0,0,0-.24-1.17l-7-22.75Z" transform="translate(-32.5 -12)"/><path class="cls-5" d="M114.42,472.47h-.08l-4.43,3.11-.67-3.41,5.57-3.88h3v33.15h-3.34Z" transform="translate(-32.5 -12)"/><path class="cls-5" d="M129.07,498.28a11.37,11.37,0,0,0,2.79-.15,8.87,8.87,0,0,0,5.34-3.22,16.38,16.38,0,0,0,3.37-8.82h-.11a7,7,0,0,1-6,3.57c-4.59,0-7.54-4.49-7.54-10.15,0-6.27,3.5-11.78,8.72-11.78s8.44,5.51,8.44,14c0,7.3-1.89,12.4-4.4,15.56a11.73,11.73,0,0,1-7.42,4.44,12.66,12.66,0,0,1-3.18.25Zm1.26-19.07c0,4.13,1.92,7,4.91,7a5.55,5.55,0,0,0,5-3.47,3.57,3.57,0,0,0,.31-1.63c0-5.66-1.61-10-5.22-10C132.41,471.15,130.33,474.51,130.33,479.21Z" transform="translate(-32.5 -12)"/><path class="cls-5" d="M149.22,498.28a11.37,11.37,0,0,0,2.79-.15,8.87,8.87,0,0,0,5.34-3.22,16.46,16.46,0,0,0,3.37-8.82h-.11a7,7,0,0,1-6,3.57c-4.59,0-7.54-4.49-7.54-10.15,0-6.27,3.5-11.78,8.72-11.78s8.44,5.51,8.44,14c0,7.3-1.89,12.4-4.4,15.56a11.73,11.73,0,0,1-7.42,4.44,12.66,12.66,0,0,1-3.18.25Zm1.26-19.07c0,4.13,1.92,7,4.91,7a5.55,5.55,0,0,0,5-3.47,3.57,3.57,0,0,0,.31-1.63c0-5.66-1.61-10-5.22-10C152.56,471.15,150.48,474.51,150.48,479.21Z" transform="translate(-32.5 -12)"/><path class="cls-5" d="M167.05,493a9.57,9.57,0,0,1,5.07-8.88l0-.15a8.48,8.48,0,0,1-4-7.45c0-5.25,3.41-8.82,7.89-8.82,4.94,0,7.42,4,7.42,8.16a8.75,8.75,0,0,1-4.2,7.75v.15a9.15,9.15,0,0,1,5.14,8.57c0,5.77-3.81,9.64-8.68,9.64C170.27,502,167.05,497.87,167.05,493Zm13.74-.21c0-4-2.15-6-5.61-7.24a6.93,6.93,0,0,0-4.59,6.83c-.12,3.37,1.84,6.33,5.1,6.33C178.79,498.74,180.79,496.24,180.79,492.82Zm-9.5-16.57c0,3.31,1.93,5.1,4.87,6.12a6.33,6.33,0,0,0,3.89-6c0-2.65-1.22-5.41-4.32-5.41C172.87,470.94,171.29,473.39,171.29,476.25Z" transform="translate(-32.5 -12)"/><line class="cls-3" x1="457.7" y1="241.77" x2="457.7" y2="407.97"/><rect class="cls-4" x="455.95" y="241.77" width="3.51" height="166.2"/><ellipse class="cls-3" cx="457.7" cy="236.22" rx="10.05" ry="10.58"/><path class="cls-5" d="M573.06,286.06a28.06,28.06,0,0,1,5-.41c2.74,0,4.51.44,5.84,1.43a4.06,4.06,0,0,1,1.76,3.49c0,1.91-1.35,3.58-3.59,4.34V295c2,.47,4.38,2,4.38,5a5.14,5.14,0,0,1-1.8,4c-1.48,1.26-3.88,1.84-7.35,1.84a34.15,34.15,0,0,1-4.26-.23Zm2.74,8.09h2.5c2.9,0,4.61-1.41,4.61-3.31,0-2.32-1.9-3.23-4.67-3.23a12.5,12.5,0,0,0-2.44.18Zm0,9.47a15.53,15.53,0,0,0,2.31.12c2.84,0,5.46-1,5.46-3.84,0-2.7-2.49-3.81-5.49-3.81H575.8Z" transform="translate(-32.5 -12)"/><path class="cls-5" d="M593.6,299.34l-2.21,6.22h-2.84l7.23-19.77h3.32l7.26,19.77h-2.94l-2.27-6.22Zm7-2-2.08-5.69c-.48-1.29-.79-2.46-1.11-3.61h-.06c-.32,1.17-.67,2.38-1.08,3.58l-2.08,5.72Z" transform="translate(-32.5 -12)"/><path class="cls-5" d="M619.16,287.38a1.73,1.73,0,0,1-3.44,0,1.64,1.64,0,0,1,1.74-1.62A1.59,1.59,0,0,1,619.16,287.38Zm-3.09,18.18v-14.2h2.78v14.2Z" transform="translate(-32.5 -12)"/><path class="cls-5" d="M623.45,295.21c0-1.47,0-2.67-.12-3.85h2.46l.16,2.35H626a5.69,5.69,0,0,1,5-2.67c2.11,0,5.4,1.18,5.4,6v8.48h-2.78v-8.18c0-2.29-.92-4.2-3.54-4.2a3.9,3.9,0,0,0-3.72,2.64,3.4,3.4,0,0,0-.19,1.2v8.54h-2.78Z" transform="translate(-32.5 -12)"/><path class="cls-5" d="M650.75,287.38a1.73,1.73,0,0,1-3.44,0,1.64,1.64,0,0,1,1.73-1.62A1.6,1.6,0,0,1,650.75,287.38Zm-3.09,18.18v-14.2h2.77v14.2Z" transform="translate(-32.5 -12)"/><path class="cls-5" d="M655,295.21c0-1.47,0-2.67-.13-3.85h2.46l.16,2.35h.07a5.68,5.68,0,0,1,5-2.67c2.11,0,5.39,1.18,5.39,6v8.48h-2.77v-8.18c0-2.29-.92-4.2-3.54-4.2a3.9,3.9,0,0,0-3.72,2.64,3.4,3.4,0,0,0-.19,1.2v8.54H655Z" transform="translate(-32.5 -12)"/><path class="cls-5" d="M675.77,287.29v4.07h4v2h-4V301c0,1.76.54,2.76,2.09,2.76a6.54,6.54,0,0,0,1.61-.18l.12,1.94a7.39,7.39,0,0,1-2.46.35,4,4,0,0,1-3-1.08c-.79-.77-1.07-2-1.07-3.7v-7.74h-2.37v-2h2.37V288Z" transform="translate(-32.5 -12)"/><path class="cls-5" d="M684.23,298.93c.06,3.49,2.46,4.93,5.24,4.93a10.69,10.69,0,0,0,4.23-.74l.47,1.85a13.16,13.16,0,0,1-5.08.88c-4.7,0-7.51-2.87-7.51-7.15s2.71-7.66,7.16-7.66c5,0,6.32,4.08,6.32,6.69a9,9,0,0,1-.1,1.2Zm8.14-1.85c0-1.64-.72-4.19-3.85-4.19-2.81,0-4,2.4-4.26,4.19Z" transform="translate(-32.5 -12)"/><path class="cls-5" d="M698.49,295.79c0-1.67,0-3.11-.12-4.43h2.43l.09,2.79H701a4.53,4.53,0,0,1,4.23-3.11,3.24,3.24,0,0,1,.79.09v2.43a5.27,5.27,0,0,0-.95-.08,3.77,3.77,0,0,0-3.72,3.31,6.12,6.12,0,0,0-.13,1.2v7.57h-2.75Z" transform="translate(-32.5 -12)"/><path class="cls-5" d="M708.94,295.21c0-1.47,0-2.67-.13-3.85h2.46l.16,2.35h.06a5.7,5.7,0,0,1,5-2.67c2.12,0,5.4,1.18,5.4,6v8.48h-2.78v-8.18c0-2.29-.91-4.2-3.53-4.2a3.92,3.92,0,0,0-3.73,2.64,3.64,3.64,0,0,0-.19,1.2v8.54h-2.77Z" transform="translate(-32.5 -12)"/><path class="cls-5" d="M734.91,305.56l-.22-1.79h-.1a5.84,5.84,0,0,1-4.67,2.11c-3.09,0-4.67-2-4.67-4.08,0-3.43,3.28-5.3,9.19-5.27v-.3c0-1.17-.35-3.28-3.48-3.28a8.06,8.06,0,0,0-4,1.05l-.63-1.7a10,10,0,0,1,5-1.26c4.68,0,5.81,3,5.81,5.81v5.31a19.49,19.49,0,0,0,.25,3.4Zm-.41-7.25c-3-.05-6.47.45-6.47,3.2a2.38,2.38,0,0,0,2.62,2.46,3.78,3.78,0,0,0,3.69-2.37,2.43,2.43,0,0,0,.16-.82Z" transform="translate(-32.5 -12)"/><path class="cls-5" d="M744.88,287.29v4.07h4v2h-4V301c0,1.76.54,2.76,2.08,2.76a6.41,6.41,0,0,0,1.61-.18l.13,1.94a7.43,7.43,0,0,1-2.46.35,4,4,0,0,1-3-1.08c-.79-.77-1.07-2-1.07-3.7v-7.74H739.8v-2h2.37V288Z" transform="translate(-32.5 -12)"/><path class="cls-5" d="M755.07,287.38a1.73,1.73,0,0,1-3.44,0,1.64,1.64,0,0,1,1.74-1.62A1.59,1.59,0,0,1,755.07,287.38ZM752,305.56v-14.2h2.78v14.2Z" transform="translate(-32.5 -12)"/><path class="cls-5" d="M773.19,298.34c0,5.25-3.92,7.54-7.61,7.54a7,7,0,0,1-7.32-7.3c0-4.75,3.34-7.54,7.58-7.54A7,7,0,0,1,773.19,298.34Zm-12.12.15c0,3.11,1.92,5.45,4.64,5.45s4.64-2.31,4.64-5.51c0-2.4-1.3-5.45-4.58-5.45S761.07,295.79,761.07,298.49Z" transform="translate(-32.5 -12)"/><path class="cls-5" d="M776.69,295.21c0-1.47,0-2.67-.13-3.85H779l.16,2.35h.06a5.7,5.7,0,0,1,5-2.67c2.12,0,5.4,1.18,5.4,6v8.48h-2.77v-8.18c0-2.29-.92-4.2-3.54-4.2a3.92,3.92,0,0,0-3.73,2.64,3.64,3.64,0,0,0-.19,1.2v8.54h-2.77Z" transform="translate(-32.5 -12)"/><path class="cls-5" d="M802.66,305.56l-.22-1.79h-.09a5.88,5.88,0,0,1-4.68,2.11c-3.09,0-4.67-2-4.67-4.08,0-3.43,3.29-5.3,9.19-5.27v-.3c0-1.17-.35-3.28-3.47-3.28a8.1,8.1,0,0,0-4,1.05l-.63-1.7a10,10,0,0,1,5-1.26c4.67,0,5.8,3,5.8,5.81v5.31a18.51,18.51,0,0,0,.26,3.4Zm-.41-7.25c-3-.05-6.47.45-6.47,3.2A2.38,2.38,0,0,0,798.4,304a3.78,3.78,0,0,0,3.69-2.37,2.43,2.43,0,0,0,.16-.82Z" transform="translate(-32.5 -12)"/><path class="cls-5" d="M809.41,284.74h2.78v20.82h-2.78Z" transform="translate(-32.5 -12)"/><path class="cls-5" d="M573,331c0-1.47,0-2.67-.12-3.85h2.43l.13,2.29h.09a5.32,5.32,0,0,1,4.8-2.61,4.49,4.49,0,0,1,4.32,2.85h.06a6,6,0,0,1,1.71-1.85,5.47,5.47,0,0,1,3.38-1c2,0,5,1.23,5,6.16v8.36h-2.72v-8c0-2.73-1.07-4.37-3.31-4.37a3.58,3.58,0,0,0-3.29,2.35,4.14,4.14,0,0,0-.22,1.29v8.77h-2.71v-8.51c0-2.26-1.07-3.9-3.19-3.9a3.74,3.74,0,0,0-3.44,2.58,3.28,3.28,0,0,0-.22,1.26v8.57H573Z" transform="translate(-32.5 -12)"/><path class="cls-5" d="M607.74,341.39l-.22-1.79h-.09a5.88,5.88,0,0,1-4.68,2.11c-3.09,0-4.67-2-4.67-4.08,0-3.43,3.29-5.3,9.19-5.28v-.29c0-1.17-.35-3.28-3.48-3.28a8.09,8.09,0,0,0-4,1.05l-.63-1.7a10,10,0,0,1,5-1.26c4.67,0,5.8,3,5.8,5.81V338a18.55,18.55,0,0,0,.26,3.41Zm-.41-7.25c-3-.06-6.47.44-6.47,3.2a2.38,2.38,0,0,0,2.62,2.46,3.78,3.78,0,0,0,3.69-2.37,2.43,2.43,0,0,0,.16-.82Z" transform="translate(-32.5 -12)"/><path class="cls-5" d="M614.49,331.62c0-1.67,0-3.11-.13-4.43h2.44l.09,2.79H617a4.52,4.52,0,0,1,4.23-3.11,3.1,3.1,0,0,1,.78.09v2.43a4.33,4.33,0,0,0-.94-.08,3.78,3.78,0,0,0-3.73,3.31,7.05,7.05,0,0,0-.12,1.2v7.57h-2.75Z" transform="translate(-32.5 -12)"/><path class="cls-5" d="M627.68,333.7h.07c.37-.5.91-1.11,1.35-1.61l4.49-4.9h3.34L631,333l6.72,8.36h-3.37l-5.28-6.81-1.42,1.47v5.34h-2.74V320.57h2.74Z" transform="translate(-32.5 -12)"/><path class="cls-5" d="M641.28,334.76c.07,3.49,2.47,4.93,5.24,4.93a10.69,10.69,0,0,0,4.23-.74l.48,1.85a13.24,13.24,0,0,1-5.08.88c-4.71,0-7.52-2.88-7.52-7.15s2.72-7.66,7.17-7.66c5,0,6.31,4.08,6.31,6.69a9.7,9.7,0,0,1-.09,1.2Zm8.15-1.85c0-1.64-.73-4.19-3.85-4.19-2.81,0-4,2.4-4.26,4.19Z" transform="translate(-32.5 -12)"/><path class="cls-5" d="M658.89,323.12v4.07h4v2h-4v7.65c0,1.76.54,2.76,2.08,2.76a6.57,6.57,0,0,0,1.62-.18l.12,1.94a7.39,7.39,0,0,1-2.46.35,4,4,0,0,1-3-1.09c-.79-.76-1.07-2-1.07-3.69v-7.74h-2.37v-2h2.37v-3.4Z" transform="translate(-32.5 -12)"/><path class="cls-5" d="M683.57,340.86a11,11,0,0,1-4.39.82c-4.61,0-7.6-2.9-7.6-7.24s3.21-7.54,8.2-7.54a9.9,9.9,0,0,1,3.85.73l-.63,2a6.83,6.83,0,0,0-3.22-.68,5.34,5.34,0,1,0-.09,10.68,8.26,8.26,0,0,0,3.41-.71Z" transform="translate(-32.5 -12)"/><path class="cls-5" d="M700.45,334.17c0,5.25-3.91,7.54-7.6,7.54a7,7,0,0,1-7.33-7.3c0-4.75,3.35-7.54,7.58-7.54A7,7,0,0,1,700.45,334.17Zm-12.12.15c0,3.11,1.93,5.45,4.64,5.45s4.64-2.31,4.64-5.51c0-2.4-1.29-5.45-4.57-5.45S688.33,331.62,688.33,334.32Z" transform="translate(-32.5 -12)"/><path class="cls-5" d="M704,331c0-1.47,0-2.67-.12-3.85h2.43l.12,2.29h.1a5.32,5.32,0,0,1,4.79-2.61,4.5,4.5,0,0,1,4.33,2.85h.06a6,6,0,0,1,1.71-1.85,5.43,5.43,0,0,1,3.38-1c2,0,5,1.23,5,6.16v8.36h-2.71v-8c0-2.73-1.07-4.37-3.31-4.37a3.58,3.58,0,0,0-3.29,2.35,4.14,4.14,0,0,0-.22,1.29v8.77h-2.71v-8.51c0-2.26-1.08-3.9-3.19-3.9a3.74,3.74,0,0,0-3.44,2.58,3.28,3.28,0,0,0-.22,1.26v8.57H704Z" transform="translate(-32.5 -12)"/><path class="cls-5" d="M730.27,331c0-1.47,0-2.67-.13-3.85h2.43l.13,2.29h.09a5.35,5.35,0,0,1,4.8-2.61,4.51,4.51,0,0,1,4.33,2.85H742a5.79,5.79,0,0,1,1.71-1.85,5.42,5.42,0,0,1,3.37-1c2,0,5,1.23,5,6.16v8.36h-2.71v-8c0-2.73-1.08-4.37-3.32-4.37a3.56,3.56,0,0,0-3.28,2.35,3.86,3.86,0,0,0-.22,1.29v8.77h-2.72v-8.51c0-2.26-1.07-3.9-3.18-3.9a3.74,3.74,0,0,0-3.44,2.58,3.28,3.28,0,0,0-.23,1.26v8.57h-2.71Z" transform="translate(-32.5 -12)"/><path class="cls-5" d="M769.37,337.51c0,1.47,0,2.76.13,3.88H767l-.16-2.32h-.07a5.82,5.82,0,0,1-5,2.64c-2.4,0-5.27-1.23-5.27-6.22v-8.3h2.78v7.86c0,2.7.88,4.52,3.41,4.52a4,4,0,0,0,3.66-2.35,3.49,3.49,0,0,0,.25-1.32v-8.71h2.78Z" transform="translate(-32.5 -12)"/><path class="cls-5" d="M774,331c0-1.47,0-2.67-.12-3.85h2.46l.16,2.35h.06a5.7,5.7,0,0,1,5.05-2.67c2.12,0,5.4,1.17,5.4,6v8.48H784.2V333.2c0-2.28-.91-4.19-3.53-4.19a3.91,3.91,0,0,0-3.73,2.64,3.36,3.36,0,0,0-.19,1.2v8.54H774Z" transform="translate(-32.5 -12)"/><path class="cls-5" d="M794.58,323.21a1.73,1.73,0,0,1-3.44,0,1.64,1.64,0,0,1,1.74-1.62A1.59,1.59,0,0,1,794.58,323.21Zm-3.09,18.18v-14.2h2.78v14.2Z" transform="translate(-32.5 -12)"/><path class="cls-5" d="M809.76,340.86a10.89,10.89,0,0,1-4.39.82c-4.6,0-7.6-2.9-7.6-7.24s3.22-7.54,8.2-7.54a10,10,0,0,1,3.86.73l-.64,2A6.83,6.83,0,0,0,806,329a5.34,5.34,0,1,0-.09,10.68,8.26,8.26,0,0,0,3.41-.71Z" transform="translate(-32.5 -12)"/><path class="cls-5" d="M821.47,341.39l-.22-1.79h-.1a5.84,5.84,0,0,1-4.67,2.11c-3.09,0-4.67-2-4.67-4.08,0-3.43,3.28-5.3,9.19-5.28v-.29c0-1.17-.35-3.28-3.48-3.28a8.13,8.13,0,0,0-4,1.05l-.63-1.7a10.1,10.1,0,0,1,5-1.26c4.67,0,5.81,3,5.81,5.81V338a19.53,19.53,0,0,0,.25,3.41Zm-.41-7.25c-3-.06-6.47.44-6.47,3.2a2.38,2.38,0,0,0,2.62,2.46,3.78,3.78,0,0,0,3.69-2.37,2.43,2.43,0,0,0,.16-.82Z" transform="translate(-32.5 -12)"/><path class="cls-5" d="M834.66,332.5v1.91h-7.8V332.5Z" transform="translate(-32.5 -12)"/><path class="cls-5" d="M576.31,359V363h4v2h-4v7.65c0,1.76.54,2.76,2.08,2.76a6.41,6.41,0,0,0,1.61-.18l.13,1.94a7.43,7.43,0,0,1-2.46.35,4,4,0,0,1-3-1.09c-.79-.76-1.07-2-1.07-3.69V365h-2.37v-2h2.37v-3.4Z" transform="translate(-32.5 -12)"/><path class="cls-5" d="M586.5,359a1.73,1.73,0,0,1-3.44,0,1.64,1.64,0,0,1,1.74-1.61A1.59,1.59,0,0,1,586.5,359Zm-3.09,18.18V363h2.78v14.19Z" transform="translate(-32.5 -12)"/><path class="cls-5" d="M604.62,370c0,5.25-3.92,7.54-7.61,7.54a7,7,0,0,1-7.32-7.3c0-4.75,3.34-7.54,7.58-7.54A7,7,0,0,1,604.62,370Zm-12.12.15c0,3.11,1.92,5.45,4.64,5.45s4.64-2.32,4.64-5.51c0-2.41-1.3-5.46-4.58-5.46S592.5,367.45,592.5,370.15Z" transform="translate(-32.5 -12)"/><path class="cls-5" d="M608.12,366.86c0-1.46,0-2.66-.13-3.84h2.46l.16,2.35h.06a5.7,5.7,0,0,1,5.05-2.67c2.12,0,5.4,1.17,5.4,6v8.47h-2.77V369c0-2.28-.92-4.19-3.54-4.19a3.92,3.92,0,0,0-3.73,2.64,3.6,3.6,0,0,0-.19,1.2v8.53h-2.77Z" transform="translate(-32.5 -12)"/><path class="cls-5" d="M572.65,413.16l2-2.58a10.21,10.21,0,0,1-2.81-7.3c0-6.25,4.26-10.32,9.81-10.32a9.38,9.38,0,0,1,5.31,1.55l1.86-2.37,1.67,1.05-2,2.52a10.21,10.21,0,0,1,2.75,7.28c0,6.89-4.58,10.38-9.66,10.38a9.56,9.56,0,0,1-5.4-1.59l-2,2.52Zm12.91-16.77a6.27,6.27,0,0,0-4-1.38c-4.64,0-7,4-7,8.12a9.52,9.52,0,0,0,1.57,5.31l0,0Zm-8,13.52a5.68,5.68,0,0,0,4,1.4c4.45,0,6.91-3.78,6.91-8.24a9.17,9.17,0,0,0-1.48-5.13h-.1Z" transform="translate(-32.5 -12)"/><path class="cls-5" d="M594.33,410.4a7.65,7.65,0,0,0,3.66,1c2,0,3-.94,3-2.11s-.79-1.91-2.84-2.61c-2.75-.91-4-2.32-4-4,0-2.29,2-4.16,5.27-4.16a8.06,8.06,0,0,1,3.75.88l-.69,1.88a6.21,6.21,0,0,0-3.13-.83c-1.64,0-2.55.88-2.55,1.94s.91,1.7,2.9,2.4c2.65.94,4,2.17,4,4.28,0,2.5-2.08,4.26-5.71,4.26a9.23,9.23,0,0,1-4.3-1Z" transform="translate(-32.5 -12)"/><path class="cls-5" d="M610.55,394.77v4.08h4v2h-4v7.65c0,1.76.54,2.76,2.08,2.76a6.41,6.41,0,0,0,1.61-.18l.13,1.93a7.14,7.14,0,0,1-2.46.36,4,4,0,0,1-3-1.09c-.79-.76-1.07-2-1.07-3.69v-7.74h-2.37v-2h2.37v-3.4Z" transform="translate(-32.5 -12)"/><path class="cls-5" d="M617.93,413V400.82h-2.14v-2h2.14v-.67a6.41,6.41,0,0,1,1.77-5,5.54,5.54,0,0,1,3.72-1.32,7,7,0,0,1,2.37.41l-.38,2a4.29,4.29,0,0,0-1.76-.33c-2.37,0-3,1.94-3,4.11v.76h3.69v2h-3.69V413Z" transform="translate(-32.5 -12)"/><path class="cls-5" d="M640.28,405.83c0,5.25-3.92,7.54-7.61,7.54a7,7,0,0,1-7.32-7.31c0-4.75,3.34-7.53,7.57-7.53A7,7,0,0,1,640.28,405.83Zm-12.12.15c0,3.1,1.92,5.45,4.64,5.45s4.64-2.32,4.64-5.51c0-2.41-1.3-5.46-4.58-5.46S628.16,403.28,628.16,406Z" transform="translate(-32.5 -12)"/><path class="cls-5" d="M643.78,392.22h2.77V413h-2.77Z" transform="translate(-32.5 -12)"/><path class="cls-5" d="M664.42,392.22v17.16c0,1.26,0,2.7.13,3.66h-2.5l-.12-2.46h-.07a5.73,5.73,0,0,1-5.21,2.79c-3.69,0-6.53-2.91-6.53-7.22,0-4.72,3.13-7.62,6.85-7.62a5.23,5.23,0,0,1,4.61,2.17h.06v-8.48Zm-2.78,12.41a4.55,4.55,0,0,0-.12-1.09,4,4,0,0,0-4-3c-2.88,0-4.58,2.35-4.58,5.48,0,2.88,1.52,5.25,4.51,5.25a4.12,4.12,0,0,0,4.08-3.07,4.48,4.48,0,0,0,.12-1.12Z" transform="translate(-32.5 -12)"/><path class="cls-5" d="M678.55,393.28V405c0,4.43,2.12,6.3,5,6.3,3.16,0,5.18-1.93,5.18-6.3v-11.7h2.77V404.8c0,6.07-3.44,8.57-8.05,8.57-4.35,0-7.63-2.32-7.63-8.45V393.28Z" transform="translate(-32.5 -12)"/><path class="cls-5" d="M696.13,402.69c0-1.46,0-2.67-.13-3.84h2.46l.16,2.35h.06a5.7,5.7,0,0,1,5.05-2.67c2.12,0,5.4,1.17,5.4,6V413h-2.77v-8.18c0-2.28-.92-4.19-3.54-4.19a3.9,3.9,0,0,0-3.72,2.64,3.36,3.36,0,0,0-.19,1.2V413h-2.78Z" transform="translate(-32.5 -12)"/><path class="cls-5" d="M716.74,394.86a1.73,1.73,0,0,1-3.45,0,1.64,1.64,0,0,1,1.74-1.61A1.59,1.59,0,0,1,716.74,394.86ZM713.64,413V398.85h2.78V413Z" transform="translate(-32.5 -12)"/><path class="cls-5" d="M722.1,398.85l3,8a37.09,37.09,0,0,1,1.23,3.63h.09c.35-1.17.79-2.34,1.3-3.63l3-8h2.9l-6,14.19h-2.65l-5.81-14.19Z" transform="translate(-32.5 -12)"/><path class="cls-5" d="M737.43,406.42c.07,3.49,2.47,4.92,5.25,4.92a10.8,10.8,0,0,0,4.23-.73l.47,1.85a13.2,13.2,0,0,1-5.08.88c-4.71,0-7.52-2.88-7.52-7.16s2.72-7.65,7.17-7.65c5,0,6.31,4.07,6.31,6.68a9.73,9.73,0,0,1-.09,1.21Zm8.15-1.85c0-1.64-.73-4.19-3.85-4.19-2.81,0-4,2.4-4.26,4.19Z" transform="translate(-32.5 -12)"/><path class="cls-5" d="M751.7,403.28c0-1.67,0-3.11-.13-4.43H754l.1,2.79h.12a4.54,4.54,0,0,1,4.23-3.11,3.12,3.12,0,0,1,.79.09v2.43a4.38,4.38,0,0,0-1-.09,3.79,3.79,0,0,0-3.72,3.32,7,7,0,0,0-.13,1.2V413H751.7Z" transform="translate(-32.5 -12)"/><path class="cls-5" d="M761.64,410.4a7.65,7.65,0,0,0,3.66,1c2,0,3-.94,3-2.11s-.79-1.91-2.85-2.61c-2.74-.91-4-2.32-4-4,0-2.29,2-4.16,5.28-4.16a8.06,8.06,0,0,1,3.75.88l-.69,1.88a6.21,6.21,0,0,0-3.13-.83c-1.64,0-2.55.88-2.55,1.94s.91,1.7,2.9,2.4c2.65.94,4,2.17,4,4.28,0,2.5-2.08,4.26-5.71,4.26a9.23,9.23,0,0,1-4.3-1Z" transform="translate(-32.5 -12)"/><path class="cls-5" d="M777.61,394.86a1.73,1.73,0,0,1-3.45,0,1.64,1.64,0,0,1,1.74-1.61A1.59,1.59,0,0,1,777.61,394.86ZM774.51,413V398.85h2.78V413Z" transform="translate(-32.5 -12)"/><path class="cls-5" d="M785.24,394.77v4.08h4v2h-4v7.65c0,1.76.54,2.76,2.08,2.76a6.41,6.41,0,0,0,1.61-.18l.13,1.93a7.09,7.09,0,0,1-2.46.36,4,4,0,0,1-3-1.09c-.79-.76-1.07-2-1.07-3.69v-7.74h-2.37v-2h2.37v-3.4Z" transform="translate(-32.5 -12)"/><path class="cls-5" d="M793.64,398.85l3.34,8.39c.35.94.73,2.05,1,2.9H798c.29-.85.6-1.93,1-3l3-8.33H805L800.8,409c-2,4.87-3.34,7.36-5.24,8.88a7.59,7.59,0,0,1-3.41,1.67l-.69-2.17a7.36,7.36,0,0,0,2.43-1.26,7.8,7.8,0,0,0,2.33-2.87,1.65,1.65,0,0,0,.22-.62,2,2,0,0,0-.19-.67l-5.64-13.08Z" transform="translate(-32.5 -12)"/><path class="cls-5" d="M614,82.17a34.93,34.93,0,0,1,5.27-.38c2.72,0,4.71.59,6,1.64a5.15,5.15,0,0,1,1.86,4.14,5.56,5.56,0,0,1-1.64,4.22A9.2,9.2,0,0,1,619,94a9.93,9.93,0,0,1-2.21-.18v7.92H614Zm2.75,9.53a9.68,9.68,0,0,0,2.27.21c3.32,0,5.34-1.5,5.34-4.23s-2-3.87-5-3.87a12.1,12.1,0,0,0-2.59.21Z" transform="translate(-32.5 -12)"/><path class="cls-5" d="M630.2,91.94c0-1.68,0-3.11-.12-4.43h2.43l.09,2.78h.13A4.55,4.55,0,0,1,637,87.18a3.81,3.81,0,0,1,.79.09v2.44a4.44,4.44,0,0,0-1-.09,3.79,3.79,0,0,0-3.73,3.31,7.16,7.16,0,0,0-.12,1.2v7.57H630.2Z" transform="translate(-32.5 -12)"/><path class="cls-5" d="M654,94.49c0,5.25-3.91,7.53-7.61,7.53a7,7,0,0,1-7.32-7.3c0-4.75,3.35-7.54,7.58-7.54A7,7,0,0,1,654,94.49Zm-12.12.14c0,3.11,1.92,5.46,4.64,5.46s4.64-2.32,4.64-5.51c0-2.41-1.3-5.46-4.58-5.46S641.91,91.94,641.91,94.63Z" transform="translate(-32.5 -12)"/><path class="cls-5" d="M653.8,105.81a4.65,4.65,0,0,0,3-1.09c.76-.82,1-1.93,1-5.34V87.51h2.77v12.87c0,2.76-.47,4.55-1.83,5.84a7.39,7.39,0,0,1-4.73,1.61ZM661,83.52a1.57,1.57,0,0,1-1.74,1.58,1.6,1.6,0,0,1-1.7-1.58,1.65,1.65,0,0,1,1.77-1.61A1.58,1.58,0,0,1,661,83.52Z" transform="translate(-32.5 -12)"/><path class="cls-5" d="M666.74,95.07c.07,3.49,2.47,4.93,5.24,4.93a10.72,10.72,0,0,0,4.23-.73l.48,1.84a13.24,13.24,0,0,1-5.08.88c-4.71,0-7.52-2.87-7.52-7.15s2.72-7.66,7.17-7.66c5,0,6.31,4.08,6.31,6.69a7.56,7.56,0,0,1-.1,1.2Zm8.15-1.84c0-1.65-.73-4.2-3.85-4.2-2.81,0-4,2.41-4.27,4.2Z" transform="translate(-32.5 -12)"/><path class="cls-5" d="M691.9,101.17a11,11,0,0,1-4.39.82c-4.61,0-7.61-2.9-7.61-7.24s3.22-7.53,8.21-7.53A9.94,9.94,0,0,1,692,88l-.63,2a6.91,6.91,0,0,0-3.22-.67,5.34,5.34,0,1,0-.1,10.67,8.45,8.45,0,0,0,3.41-.7Z" transform="translate(-32.5 -12)"/><path class="cls-5" d="M698.9,83.43v4.08h4v2h-4v7.66c0,1.76.54,2.75,2.08,2.75a6.58,6.58,0,0,0,1.61-.17l.13,1.93a7.18,7.18,0,0,1-2.46.35,4,4,0,0,1-3-1.08c-.79-.76-1.08-2-1.08-3.7V89.47h-2.36v-2h2.36v-3.4Z" transform="translate(-32.5 -12)"/><path class="cls-5" d="M706,91.35c0-1.47,0-2.67-.13-3.84h2.43l.13,2.28h.09a5.35,5.35,0,0,1,4.8-2.61A4.53,4.53,0,0,1,717.65,90h.06a6,6,0,0,1,1.7-1.85,5.54,5.54,0,0,1,3.38-1c2,0,5,1.24,5,6.16v8.36H725.1v-8c0-2.73-1.08-4.37-3.32-4.37a3.55,3.55,0,0,0-3.28,2.34,3.86,3.86,0,0,0-.22,1.29v8.77h-2.72V93.2c0-2.26-1.07-3.9-3.19-3.9a3.73,3.73,0,0,0-3.43,2.58,3.1,3.1,0,0,0-.23,1.26v8.56H706Z" transform="translate(-32.5 -12)"/><path class="cls-5" d="M740.78,101.7l-.23-1.79h-.09a5.83,5.83,0,0,1-4.67,2.11c-3.1,0-4.67-2-4.67-4.07,0-3.43,3.28-5.31,9.18-5.28v-.29c0-1.18-.35-3.29-3.47-3.29a8,8,0,0,0-4,1.06l-.63-1.7a9.94,9.94,0,0,1,5-1.27c4.67,0,5.81,3,5.81,5.81V98.3a18.56,18.56,0,0,0,.25,3.4Zm-.42-7.24c-3-.06-6.47.44-6.47,3.19a2.38,2.38,0,0,0,2.62,2.47,3.8,3.8,0,0,0,3.7-2.38,2.58,2.58,0,0,0,.15-.82Z" transform="translate(-32.5 -12)"/><path class="cls-5" d="M747.52,91.35c0-1.47,0-2.67-.12-3.84h2.46l.16,2.34h.06a5.7,5.7,0,0,1,5-2.67c2.12,0,5.4,1.18,5.4,6v8.47h-2.78V93.52c0-2.29-.91-4.19-3.53-4.19A3.92,3.92,0,0,0,750.49,92a3.6,3.6,0,0,0-.19,1.2v8.53h-2.78Z" transform="translate(-32.5 -12)"/><path class="cls-5" d="M773.5,101.7l-.22-1.79h-.1a5.82,5.82,0,0,1-4.67,2.11c-3.09,0-4.67-2-4.67-4.07,0-3.43,3.28-5.31,9.19-5.28v-.29c0-1.18-.35-3.29-3.48-3.29a8,8,0,0,0-4,1.06l-.63-1.7a9.93,9.93,0,0,1,5-1.27c4.68,0,5.81,3,5.81,5.81V98.3a18.56,18.56,0,0,0,.25,3.4Zm-.41-7.24c-3-.06-6.47.44-6.47,3.19a2.38,2.38,0,0,0,2.62,2.47,3.79,3.79,0,0,0,3.69-2.38,2.34,2.34,0,0,0,.16-.82Z" transform="translate(-32.5 -12)"/><path class="cls-5" d="M793.41,87.51c-.06,1-.12,2.17-.12,3.9v8.24c0,3.25-.7,5.25-2.18,6.48a8.53,8.53,0,0,1-5.56,1.7,10.48,10.48,0,0,1-5.08-1.17l.7-2a9,9,0,0,0,4.48,1.12c2.84,0,4.92-1.38,4.92-5V99.27h-.06a5.58,5.58,0,0,1-4.86,2.37c-3.79,0-6.5-3-6.5-6.92,0-4.81,3.37-7.54,6.87-7.54a5.15,5.15,0,0,1,4.77,2.47h.07l.12-2.14Zm-2.87,5.6a3.32,3.32,0,0,0-.16-1.17,4,4,0,0,0-3.88-2.73c-2.65,0-4.55,2.08-4.55,5.37,0,2.78,1.52,5.1,4.52,5.1A4,4,0,0,0,790.32,97a4.15,4.15,0,0,0,.22-1.38Z" transform="translate(-32.5 -12)"/><path class="cls-5" d="M799.43,95.07c.07,3.49,2.47,4.93,5.25,4.93a10.7,10.7,0,0,0,4.22-.73l.48,1.84a13.2,13.2,0,0,1-5.08.88c-4.71,0-7.52-2.87-7.52-7.15s2.72-7.66,7.17-7.66c5,0,6.31,4.08,6.31,6.69a9.38,9.38,0,0,1-.09,1.2Zm8.15-1.84c0-1.65-.73-4.2-3.85-4.2-2.81,0-4,2.41-4.26,4.2Z" transform="translate(-32.5 -12)"/><path class="cls-5" d="M813.7,91.35c0-1.47,0-2.67-.13-3.84H816l.13,2.28h.09a5.35,5.35,0,0,1,4.8-2.61A4.51,4.51,0,0,1,825.34,90h.07a6,6,0,0,1,1.7-1.85,5.54,5.54,0,0,1,3.38-1c2,0,5,1.24,5,6.16v8.36h-2.72v-8c0-2.73-1.07-4.37-3.31-4.37a3.55,3.55,0,0,0-3.28,2.34,3.86,3.86,0,0,0-.22,1.29v8.77h-2.72V93.2c0-2.26-1.07-3.9-3.19-3.9a3.75,3.75,0,0,0-3.44,2.58,3.28,3.28,0,0,0-.22,1.26v8.56H813.7Z" transform="translate(-32.5 -12)"/><path class="cls-5" d="M841.56,95.07c.06,3.49,2.46,4.93,5.24,4.93a10.72,10.72,0,0,0,4.23-.73l.47,1.84a13.16,13.16,0,0,1-5.08.88c-4.7,0-7.51-2.87-7.51-7.15s2.71-7.66,7.17-7.66c5,0,6.31,4.08,6.31,6.69a9,9,0,0,1-.1,1.2Zm8.15-1.84c0-1.65-.73-4.2-3.86-4.2-2.8,0-4,2.41-4.26,4.2Z" transform="translate(-32.5 -12)"/><path class="cls-5" d="M855.82,91.35c0-1.47,0-2.67-.12-3.84h2.46l.16,2.34h.06a5.7,5.7,0,0,1,5-2.67c2.12,0,5.4,1.18,5.4,6v8.47h-2.78V93.52c0-2.29-.92-4.19-3.54-4.19A3.91,3.91,0,0,0,858.79,92a3.36,3.36,0,0,0-.19,1.2v8.53h-2.78Z" transform="translate(-32.5 -12)"/><path class="cls-5" d="M876.56,83.43v4.08h4v2h-4v7.66c0,1.76.53,2.75,2.08,2.75a6.52,6.52,0,0,0,1.61-.17l.13,1.93a7.18,7.18,0,0,1-2.46.35,4,4,0,0,1-3-1.08c-.79-.76-1.07-2-1.07-3.7V89.47h-2.37v-2h2.37v-3.4Z" transform="translate(-32.5 -12)"/><path class="cls-5" d="M632.19,127.44c0,6.81-4.45,10.41-9.88,10.41-5.62,0-9.56-4-9.56-10,0-6.27,4.2-10.38,9.88-10.38S632.19,121.58,632.19,127.44Zm-16.51.32c0,4.23,2.47,8,6.79,8s6.82-3.72,6.82-8.21c0-3.93-2.21-8-6.79-8S615.68,123.43,615.68,127.76Z" transform="translate(-32.5 -12)"/><path class="cls-5" d="M635.28,134.89a7.65,7.65,0,0,0,3.66,1c2,0,3-.94,3-2.12s-.79-1.9-2.84-2.61c-2.75-.9-4-2.31-4-4,0-2.29,2-4.17,5.27-4.17a8.2,8.2,0,0,1,3.76.88l-.7,1.88a6.28,6.28,0,0,0-3.12-.82c-1.64,0-2.56.88-2.56,1.93s.92,1.71,2.9,2.41c2.66.94,4,2.17,4,4.28,0,2.49-2.08,4.25-5.71,4.25a9.19,9.19,0,0,1-4.29-1Z" transform="translate(-32.5 -12)"/><path class="cls-5" d="M648.16,116.71h2.77v20.82h-2.77Z" transform="translate(-32.5 -12)"/><path class="cls-5" d="M669.43,130.32c0,5.25-3.92,7.53-7.61,7.53a7,7,0,0,1-7.32-7.3c0-4.75,3.34-7.54,7.58-7.54A7,7,0,0,1,669.43,130.32Zm-12.12.14c0,3.11,1.92,5.46,4.64,5.46s4.64-2.32,4.64-5.52c0-2.4-1.29-5.45-4.58-5.45S657.31,127.76,657.31,130.46Z" transform="translate(-32.5 -12)"/><path class="cls-5" d="M672.93,127.18c0-1.47,0-2.67-.13-3.84h2.43l.13,2.28h.09a5.33,5.33,0,0,1,4.8-2.61,4.53,4.53,0,0,1,4.33,2.85h.06a6,6,0,0,1,1.7-1.85,5.54,5.54,0,0,1,3.38-1c2,0,5,1.24,5,6.16v8.36H692v-8c0-2.72-1.08-4.36-3.32-4.36a3.55,3.55,0,0,0-3.28,2.34,3.86,3.86,0,0,0-.22,1.29v8.77h-2.72V129c0-2.26-1.07-3.9-3.19-3.9a3.73,3.73,0,0,0-3.43,2.58,3.1,3.1,0,0,0-.23,1.26v8.56h-2.71Z" transform="translate(-32.5 -12)"/><path class="cls-5" d="M700.79,130.9c.06,3.49,2.46,4.93,5.24,4.93a10.72,10.72,0,0,0,4.23-.73l.48,1.84a13.26,13.26,0,0,1-5.09.88c-4.7,0-7.51-2.87-7.51-7.15s2.71-7.66,7.17-7.66c5,0,6.31,4.08,6.31,6.69a7.56,7.56,0,0,1-.1,1.2Zm8.15-1.84c0-1.65-.73-4.2-3.85-4.2-2.81,0-4,2.41-4.27,4.2Z" transform="translate(-32.5 -12)"/><path class="cls-5" d="M718.4,119.26v4.08h4v2h-4V133c0,1.75.54,2.75,2.08,2.75a6.41,6.41,0,0,0,1.61-.18l.13,1.94a7.18,7.18,0,0,1-2.46.35,4,4,0,0,1-3-1.08c-.79-.76-1.07-2-1.07-3.7V125.3h-2.37v-2h2.37v-3.41Z" transform="translate(-32.5 -12)"/><path class="cls-5" d="M628.88,172.71a14.52,14.52,0,0,1-5.62.94c-6,0-10.51-3.52-10.51-10,0-6.19,4.51-10.38,11.11-10.38a12.16,12.16,0,0,1,5,.88l-.66,2.08a10.65,10.65,0,0,0-4.29-.82c-5,0-8.31,3-8.31,8.15,0,4.84,3,7.95,8.18,7.95a11.67,11.67,0,0,0,4.48-.82Z" transform="translate(-32.5 -12)"/><path class="cls-5" d="M645.7,166.14c0,5.25-3.92,7.54-7.61,7.54a7,7,0,0,1-7.32-7.3,7.18,7.18,0,0,1,7.57-7.54A7,7,0,0,1,645.7,166.14Zm-12.12.15c0,3.11,1.92,5.46,4.64,5.46s4.64-2.32,4.64-5.52c0-2.4-1.3-5.45-4.58-5.45S633.58,163.59,633.58,166.29Z" transform="translate(-32.5 -12)"/><path class="cls-5" d="M649.2,152.54H652v20.82H649.2Z" transform="translate(-32.5 -12)"/><path class="cls-5" d="M656.65,152.54h2.77v20.82h-2.77Z" transform="translate(-32.5 -12)"/><path class="cls-5" d="M665.64,166.73c.06,3.49,2.46,4.93,5.24,4.93a10.69,10.69,0,0,0,4.23-.74l.47,1.85a13.16,13.16,0,0,1-5.08.88c-4.7,0-7.51-2.87-7.51-7.15s2.71-7.66,7.16-7.66c5,0,6.31,4.08,6.31,6.69a9.38,9.38,0,0,1-.09,1.2Zm8.14-1.85c0-1.64-.72-4.19-3.85-4.19-2.81,0-4,2.41-4.26,4.19Z" transform="translate(-32.5 -12)"/><path class="cls-5" d="M693.06,159.17c-.06,1-.12,2.17-.12,3.89v8.24c0,3.26-.7,5.25-2.18,6.49a8.51,8.51,0,0,1-5.56,1.7,10.37,10.37,0,0,1-5.08-1.18l.7-2a9.19,9.19,0,0,0,4.48,1.11c2.84,0,4.92-1.37,4.92-5v-1.59h-.06a5.56,5.56,0,0,1-4.86,2.38c-3.79,0-6.5-3-6.5-6.92,0-4.81,3.37-7.54,6.88-7.54a5.16,5.16,0,0,1,4.77,2.47h.06l.12-2.14Zm-2.87,5.6a3.41,3.41,0,0,0-.16-1.18,4,4,0,0,0-3.88-2.72c-2.65,0-4.54,2.08-4.54,5.36,0,2.79,1.51,5.1,4.51,5.1a3.94,3.94,0,0,0,4.07-4Z" transform="translate(-32.5 -12)"/><path class="cls-5" d="M710.32,169.49c0,1.46,0,2.75.13,3.87H708l-.16-2.32h-.06a5.83,5.83,0,0,1-5,2.64c-2.4,0-5.28-1.23-5.28-6.22v-8.29h2.78V167c0,2.7.88,4.52,3.41,4.52a4,4,0,0,0,3.66-2.35,3.49,3.49,0,0,0,.25-1.32v-8.7h2.78Z" transform="translate(-32.5 -12)"/><path class="cls-5" d="M716.47,166.73c.07,3.49,2.47,4.93,5.24,4.93a10.69,10.69,0,0,0,4.23-.74l.47,1.85a13.16,13.16,0,0,1-5.08.88c-4.7,0-7.51-2.87-7.51-7.15s2.72-7.66,7.17-7.66c5,0,6.31,4.08,6.31,6.69a9.38,9.38,0,0,1-.09,1.2Zm8.15-1.85c0-1.64-.73-4.19-3.85-4.19a4.41,4.41,0,0,0-4.26,4.19Z" transform="translate(-32.5 -12)"/><path class="cls-5" d="M613,209.19V207.6l2.18-2c5.24-4.63,7.61-7.1,7.64-10,0-1.94-1-3.72-4.07-3.72a7.26,7.26,0,0,0-4.36,1.61l-.88-1.82a9.39,9.39,0,0,1,5.81-1.94c4.41,0,6.28,2.82,6.28,5.55,0,3.51-2.75,6.36-7.07,10.23L616.92,207v.06h9.21v2.14Z" transform="translate(-32.5 -12)"/><path class="cls-5" d="M642.86,199.45c0,6.48-2.59,10.06-7.13,10.06-4,0-6.73-3.49-6.79-9.79s3-9.92,7.13-9.92C640.4,189.8,642.86,193.38,642.86,199.45Zm-11.14.29c0,5,1.64,7.78,4.16,7.78,2.84,0,4.2-3.08,4.2-8,0-4.69-1.29-7.77-4.17-7.77C633.48,191.8,631.72,194.55,631.72,199.74Z" transform="translate(-32.5 -12)"/><path class="cls-5" d="M651.44,192.53h-.07l-3.56,1.79-.54-2,4.48-2.23h2.37v19.06h-2.68Z" transform="translate(-32.5 -12)"/><path class="cls-5" d="M667.62,192.53h-.06L664,194.32l-.53-2,4.48-2.23h2.37v19.06h-2.69Z" transform="translate(-32.5 -12)"/><path class="cls-5" d="M648.84,559.05h-.06l-3.57,1.79-.53-2,4.48-2.23h2.36V575.7h-2.68Z" transform="translate(-32.5 -12)"/><path class="cls-5" d="M665,559.05H665l-3.57,1.79-.54-2,4.49-2.23h2.36V575.7H665Z" transform="translate(-32.5 -12)"/><path class="cls-5" d="M683.77,561.51l3.35,8.39c.34.94.72,2.05,1,2.9h.06c.28-.85.6-1.93,1-3l3-8.33h2.93l-4.17,10.12c-2,4.87-3.34,7.36-5.23,8.88a7.64,7.64,0,0,1-3.41,1.67l-.7-2.17a7.27,7.27,0,0,0,2.43-1.26,7.81,7.81,0,0,0,2.34-2.87,1.65,1.65,0,0,0,.22-.62,2,2,0,0,0-.19-.67l-5.65-13.08Z" transform="translate(-32.5 -12)"/><path class="cls-5" d="M698.85,569.08c.07,3.49,2.47,4.92,5.24,4.92a10.81,10.81,0,0,0,4.24-.73l.47,1.85a13.24,13.24,0,0,1-5.08.88c-4.71,0-7.52-2.88-7.52-7.16s2.72-7.65,7.17-7.65c5,0,6.31,4.07,6.31,6.68a9.73,9.73,0,0,1-.09,1.21Zm8.15-1.85c0-1.64-.73-4.19-3.85-4.19-2.81,0-4,2.4-4.26,4.19Z" transform="translate(-32.5 -12)"/><path class="cls-5" d="M721.58,575.7l-.23-1.79h-.09a5.82,5.82,0,0,1-4.67,2.12c-3.09,0-4.67-2-4.67-4.08,0-3.43,3.28-5.31,9.18-5.28v-.29c0-1.17-.35-3.28-3.47-3.28a8.13,8.13,0,0,0-4,1l-.63-1.7a10.07,10.07,0,0,1,5-1.26c4.67,0,5.81,3,5.81,5.8v5.31a18.49,18.49,0,0,0,.25,3.4Zm-.41-7.24c-3-.06-6.48.44-6.48,3.2a2.38,2.38,0,0,0,2.62,2.46,3.8,3.8,0,0,0,3.7-2.37,2.71,2.71,0,0,0,.16-.83Z" transform="translate(-32.5 -12)"/><path class="cls-5" d="M728.33,565.94c0-1.67,0-3.11-.13-4.43h2.43l.1,2.79h.12a4.54,4.54,0,0,1,4.23-3.11,3.12,3.12,0,0,1,.79.09v2.43a4.38,4.38,0,0,0-1-.09,3.79,3.79,0,0,0-3.72,3.32,7,7,0,0,0-.13,1.2v7.56h-2.74Z" transform="translate(-32.5 -12)"/><path class="cls-5" d="M738.27,573.07a7.77,7.77,0,0,0,3.66,1c2,0,3-.94,3-2.11s-.78-1.91-2.84-2.61c-2.74-.91-4-2.32-4-4,0-2.29,2-4.16,5.28-4.16a8.06,8.06,0,0,1,3.75.88l-.69,1.88a6.21,6.21,0,0,0-3.13-.83c-1.64,0-2.55.88-2.55,1.94s.91,1.7,2.9,2.4c2.65.94,4,2.17,4,4.29,0,2.49-2.09,4.25-5.72,4.25a9.22,9.22,0,0,1-4.29-1Z" transform="translate(-32.5 -12)"/><path class="cls-5" d="M771.66,568.49c0,5.25-3.92,7.54-7.61,7.54a7,7,0,0,1-7.33-7.3c0-4.76,3.35-7.54,7.58-7.54A7,7,0,0,1,771.66,568.49Zm-12.12.15c0,3.11,1.92,5.45,4.64,5.45s4.64-2.32,4.64-5.51c0-2.41-1.3-5.46-4.58-5.46S759.54,565.94,759.54,568.64Z" transform="translate(-32.5 -12)"/><path class="cls-5" d="M775.44,575.7V563.48h-2.15v-2h2.15v-.67a6.41,6.41,0,0,1,1.76-5,5.58,5.58,0,0,1,3.73-1.32,7,7,0,0,1,2.37.41l-.38,2a4.34,4.34,0,0,0-1.77-.33c-2.37,0-3,1.94-3,4.11v.76h3.7v2h-3.7V575.7Z" transform="translate(-32.5 -12)"/><path class="cls-5" d="M791.06,554.88h2.77v8.86h.07a5,5,0,0,1,2-1.82,6,6,0,0,1,2.84-.73c2,0,5.33,1.17,5.33,6.07v8.44h-2.77v-8.15c0-2.29-.92-4.22-3.54-4.22a4,4,0,0,0-3.73,2.58,3,3,0,0,0-.19,1.23v8.56h-2.77Z" transform="translate(-32.5 -12)"/><path class="cls-5" d="M811.66,557.52a1.73,1.73,0,0,1-3.44,0,1.64,1.64,0,0,1,1.74-1.61A1.58,1.58,0,0,1,811.66,557.52Zm-3.09,18.18V561.51h2.78V575.7Z" transform="translate(-32.5 -12)"/><path class="cls-5" d="M829.12,561.51c-.07,1-.13,2.17-.13,3.9v8.24c0,3.26-.69,5.25-2.18,6.48a8.5,8.5,0,0,1-5.55,1.7,10.48,10.48,0,0,1-5.08-1.17l.69-2a9.19,9.19,0,0,0,4.48,1.11c2.84,0,4.93-1.38,4.93-5v-1.58h-.07a5.56,5.56,0,0,1-4.86,2.38c-3.79,0-6.5-3-6.5-6.92,0-4.81,3.38-7.54,6.88-7.54a5.16,5.16,0,0,1,4.77,2.46h.06l.13-2.14Zm-2.87,5.6a3.56,3.56,0,0,0-.16-1.17,4,4,0,0,0-3.88-2.73c-2.66,0-4.55,2.08-4.55,5.37,0,2.78,1.52,5.1,4.51,5.1A4,4,0,0,0,826,571a4.16,4.16,0,0,0,.23-1.38Z" transform="translate(-32.5 -12)"/><path class="cls-5" d="M833.6,554.88h2.77v8.86h.06a5.1,5.1,0,0,1,2-1.82,6.06,6.06,0,0,1,2.85-.73c2.05,0,5.33,1.17,5.33,6.07v8.44h-2.78v-8.15c0-2.29-.91-4.22-3.53-4.22a4,4,0,0,0-3.73,2.58,2.87,2.87,0,0,0-.19,1.23v8.56H833.6Z" transform="translate(-32.5 -12)"/><path class="cls-5" d="M852.65,569.08c.07,3.49,2.47,4.92,5.25,4.92a10.67,10.67,0,0,0,4.22-.73l.48,1.85a13.2,13.2,0,0,1-5.08.88c-4.71,0-7.52-2.88-7.52-7.16s2.72-7.65,7.17-7.65c5,0,6.31,4.07,6.31,6.68a9.73,9.73,0,0,1-.09,1.21Zm8.15-1.85c0-1.64-.73-4.19-3.85-4.19-2.81,0-4,2.4-4.26,4.19Z" transform="translate(-32.5 -12)"/><path class="cls-5" d="M866.92,565.94c0-1.67,0-3.11-.13-4.43h2.43l.1,2.79h.12a4.54,4.54,0,0,1,4.23-3.11,3.12,3.12,0,0,1,.79.09v2.43a4.38,4.38,0,0,0-1-.09,3.79,3.79,0,0,0-3.72,3.32,7,7,0,0,0-.13,1.2v7.56h-2.74Z" transform="translate(-32.5 -12)"/><path class="cls-5" d="M885.47,569.08c.06,3.49,2.46,4.92,5.24,4.92a10.72,10.72,0,0,0,4.23-.73l.47,1.85a13.16,13.16,0,0,1-5.08.88c-4.7,0-7.51-2.88-7.51-7.16s2.71-7.65,7.17-7.65c5,0,6.31,4.07,6.31,6.68a7.83,7.83,0,0,1-.1,1.21Zm8.15-1.85c0-1.64-.73-4.19-3.86-4.19-2.8,0-4,2.4-4.26,4.19Z" transform="translate(-32.5 -12)"/><path class="cls-5" d="M912.93,554.88V572c0,1.26,0,2.7.12,3.66h-2.49l-.13-2.46h-.06a5.73,5.73,0,0,1-5.21,2.79c-3.69,0-6.53-2.91-6.53-7.22,0-4.72,3.12-7.62,6.85-7.62a5.23,5.23,0,0,1,4.61,2.17h.06v-8.48Zm-2.78,12.41a4.11,4.11,0,0,0-.13-1.09,4,4,0,0,0-4-3c-2.87,0-4.57,2.35-4.57,5.48,0,2.88,1.51,5.25,4.51,5.25a4.11,4.11,0,0,0,4.07-3.07,4,4,0,0,0,.13-1.12Z" transform="translate(-32.5 -12)"/><path class="cls-5" d="M930.31,571.83c0,1.47,0,2.76.13,3.87H928l-.16-2.31h-.06a5.85,5.85,0,0,1-5,2.64c-2.4,0-5.27-1.24-5.27-6.22v-8.3h2.77v7.86c0,2.7.89,4.52,3.41,4.52a4,4,0,0,0,3.66-2.35,3.49,3.49,0,0,0,.26-1.32v-8.71h2.77Z" transform="translate(-32.5 -12)"/><path class="cls-5" d="M945.81,575.18a11,11,0,0,1-4.39.82c-4.61,0-7.61-2.91-7.61-7.25s3.22-7.53,8.21-7.53a9.94,9.94,0,0,1,3.85.73l-.63,2a6.71,6.71,0,0,0-3.22-.68,5.34,5.34,0,1,0-.09,10.67,8.49,8.49,0,0,0,3.41-.7Z" transform="translate(-32.5 -12)"/><path class="cls-5" d="M957.52,575.7l-.23-1.79h-.09a5.84,5.84,0,0,1-4.67,2.12c-3.1,0-4.67-2-4.67-4.08,0-3.43,3.28-5.31,9.18-5.28v-.29c0-1.17-.35-3.28-3.47-3.28a8.1,8.1,0,0,0-4,1l-.63-1.7a10,10,0,0,1,5-1.26c4.67,0,5.81,3,5.81,5.8v5.31a18.49,18.49,0,0,0,.25,3.4Zm-.42-7.24c-3-.06-6.47.44-6.47,3.2a2.38,2.38,0,0,0,2.62,2.46,3.8,3.8,0,0,0,3.7-2.37,2.69,2.69,0,0,0,.15-.83Z" transform="translate(-32.5 -12)"/><path class="cls-5" d="M967.48,557.43v4.08h4v2h-4v7.65c0,1.76.54,2.76,2.09,2.76a6.54,6.54,0,0,0,1.61-.18l.12,1.94a7.39,7.39,0,0,1-2.46.35,4,4,0,0,1-3-1.09c-.78-.76-1.07-2-1.07-3.69v-7.74H962.4v-2h2.37v-3.4Z" transform="translate(-32.5 -12)"/><path class="cls-5" d="M977.68,557.52a1.73,1.73,0,0,1-3.44,0,1.63,1.63,0,0,1,1.73-1.61A1.59,1.59,0,0,1,977.68,557.52Zm-3.1,18.18V561.51h2.78V575.7Z" transform="translate(-32.5 -12)"/><path class="cls-5" d="M995.79,568.49c0,5.25-3.91,7.54-7.6,7.54a7,7,0,0,1-7.33-7.3c0-4.76,3.35-7.54,7.58-7.54A7,7,0,0,1,995.79,568.49Zm-12.12.15c0,3.11,1.93,5.45,4.64,5.45s4.64-2.32,4.64-5.51c0-2.41-1.29-5.46-4.57-5.46S983.67,565.94,983.67,568.64Z" transform="translate(-32.5 -12)"/><path class="cls-5" d="M999.29,565.35c0-1.46,0-2.67-.12-3.84h2.46l.16,2.35h.06a5.69,5.69,0,0,1,5-2.67c2.11,0,5.4,1.17,5.4,6v8.47h-2.78v-8.18c0-2.28-.92-4.19-3.54-4.19a3.9,3.9,0,0,0-3.72,2.64,3.36,3.36,0,0,0-.19,1.2v8.53h-2.78Z" transform="translate(-32.5 -12)"/><path class="cls-5" d="M646.79,593.35a1.73,1.73,0,0,1-3.44,0,1.64,1.64,0,0,1,1.74-1.61A1.58,1.58,0,0,1,646.79,593.35Zm-3.09,18.18V597.34h2.77v14.19Z" transform="translate(-32.5 -12)"/><path class="cls-5" d="M651.08,601.18c0-1.46,0-2.67-.12-3.84h2.46l.15,2.35h.07a5.69,5.69,0,0,1,5.05-2.67c2.11,0,5.4,1.17,5.4,6v8.47h-2.78v-8.18c0-2.29-.92-4.19-3.54-4.19a3.9,3.9,0,0,0-3.72,2.64,3.36,3.36,0,0,0-.19,1.2v8.53h-2.78Z" transform="translate(-32.5 -12)"/><path class="cls-5" d="M678.63,593.26v4.08h4v2h-4V607c0,1.76.54,2.75,2.08,2.75a6.52,6.52,0,0,0,1.61-.17l.13,1.93a7.14,7.14,0,0,1-2.46.36,4,4,0,0,1-3-1.09c-.79-.76-1.07-2-1.07-3.69v-7.74h-2.37v-2h2.37v-3.4Z" transform="translate(-32.5 -12)"/><path class="cls-5" d="M685.73,590.71h2.78v8.86h.06a5,5,0,0,1,2-1.82,6,6,0,0,1,2.84-.73c2.05,0,5.33,1.17,5.33,6.07v8.44H696v-8.15c0-2.29-.92-4.22-3.54-4.22a4,4,0,0,0-3.72,2.58,2.87,2.87,0,0,0-.19,1.23v8.56h-2.78Z" transform="translate(-32.5 -12)"/><path class="cls-5" d="M704.79,604.91c.06,3.48,2.46,4.92,5.24,4.92a10.72,10.72,0,0,0,4.23-.73l.47,1.85a13.16,13.16,0,0,1-5.08.88c-4.7,0-7.51-2.88-7.51-7.16s2.71-7.65,7.16-7.65c5,0,6.32,4.07,6.32,6.68a9.35,9.35,0,0,1-.1,1.21Zm8.14-1.85c0-1.64-.72-4.2-3.85-4.2-2.81,0-4,2.41-4.26,4.2Z" transform="translate(-32.5 -12)"/><path class="cls-5" d="M726,611.53V599.31h-2.14v-2H726v-.76c0-3.76,2.37-6.19,6.66-6.19a8.08,8.08,0,0,1,3.89.94l-.79,2a6.16,6.16,0,0,0-3.22-.82c-2.94,0-3.79,1.91-3.79,4.17v.7h8.87v14.19H734.9V599.31h-6.13v12.22Z" transform="translate(-32.5 -12)"/><path class="cls-5" d="M743.79,604.91c.06,3.48,2.46,4.92,5.24,4.92a10.72,10.72,0,0,0,4.23-.73l.48,1.85a13.26,13.26,0,0,1-5.09.88c-4.7,0-7.51-2.88-7.51-7.16s2.71-7.65,7.17-7.65c5,0,6.31,4.07,6.31,6.68a7.83,7.83,0,0,1-.1,1.21Zm8.14-1.85c0-1.64-.72-4.2-3.84-4.2-2.82,0-4,2.41-4.27,4.2Z" transform="translate(-32.5 -12)"/><path class="cls-5" d="M758.05,590.71h2.78v20.82h-2.78Z" transform="translate(-32.5 -12)"/><path class="cls-5" d="M778.7,590.71v17.16c0,1.26,0,2.7.12,3.66h-2.49l-.13-2.46h-.06a5.74,5.74,0,0,1-5.21,2.79c-3.69,0-6.53-2.91-6.53-7.22,0-4.72,3.12-7.62,6.85-7.62a5.22,5.22,0,0,1,4.61,2.17h.06v-8.48Zm-2.78,12.41a4,4,0,0,0-4.14-4.08c-2.87,0-4.57,2.35-4.57,5.48,0,2.88,1.51,5.25,4.51,5.25a4.11,4.11,0,0,0,4.07-3.08,3.93,3.93,0,0,0,.13-1.11Z" transform="translate(-32.5 -12)"/><path class="cls-5" d="M803.82,604.32c0,5.25-3.92,7.54-7.61,7.54a7,7,0,0,1-7.33-7.31c0-4.75,3.35-7.53,7.58-7.53A7,7,0,0,1,803.82,604.32Zm-12.13.15c0,3.1,1.93,5.45,4.64,5.45s4.64-2.32,4.64-5.51c0-2.41-1.29-5.46-4.57-5.46S791.69,601.77,791.69,604.47Z" transform="translate(-32.5 -12)"/><path class="cls-5" d="M807.6,611.53V599.31h-2.15v-2h2.15v-.67a6.41,6.41,0,0,1,1.76-5,5.56,5.56,0,0,1,3.73-1.32,7,7,0,0,1,2.37.41l-.38,2a4.54,4.54,0,0,0-1.77-.32c-2.37,0-3,1.94-3,4.11v.76H814v2h-3.7v12.22Z" transform="translate(-32.5 -12)"/><path class="cls-5" d="M823.22,601.18c0-1.46,0-2.67-.13-3.84h2.43l.13,2.29h.09a5.32,5.32,0,0,1,4.8-2.61,4.5,4.5,0,0,1,4.32,2.84h.07a6,6,0,0,1,1.7-1.85,5.54,5.54,0,0,1,3.38-1c2,0,5,1.23,5,6.15v8.36h-2.72v-8c0-2.73-1.07-4.37-3.31-4.37a3.57,3.57,0,0,0-3.29,2.34,4.25,4.25,0,0,0-.21,1.29v8.77h-2.72V603c0-2.26-1.07-3.9-3.19-3.9a3.75,3.75,0,0,0-3.44,2.58,3.28,3.28,0,0,0-.22,1.26v8.56h-2.71Z" transform="translate(-32.5 -12)"/><path class="cls-5" d="M858,611.53l-.22-1.79h-.09a5.85,5.85,0,0,1-4.67,2.12c-3.1,0-4.68-2-4.68-4.08,0-3.43,3.29-5.31,9.19-5.28v-.29c0-1.18-.35-3.29-3.47-3.29a8,8,0,0,0-4,1.06l-.63-1.7a10,10,0,0,1,5-1.26c4.67,0,5.81,3,5.81,5.8v5.31a18.49,18.49,0,0,0,.25,3.4Zm-.41-7.24c-3-.06-6.47.44-6.47,3.2a2.38,2.38,0,0,0,2.62,2.46,3.77,3.77,0,0,0,3.69-2.38,2.34,2.34,0,0,0,.16-.82Z" transform="translate(-32.5 -12)"/><path class="cls-5" d="M864.74,601.77c0-1.67,0-3.11-.12-4.43h2.43l.09,2.79h.13A4.53,4.53,0,0,1,871.5,597a3.24,3.24,0,0,1,.79.09v2.43a4.44,4.44,0,0,0-.95-.09,3.78,3.78,0,0,0-3.72,3.31,6.32,6.32,0,0,0-.13,1.21v7.56h-2.75Z" transform="translate(-32.5 -12)"/><path class="cls-5" d="M877.93,603.85H878c.38-.5.91-1.11,1.35-1.61l4.49-4.9h3.34l-5.9,5.83,6.72,8.36h-3.37l-5.28-6.8-1.42,1.47v5.33h-2.74V590.71h2.74Z" transform="translate(-32.5 -12)"/><path class="cls-5" d="M891.53,604.91c.07,3.48,2.47,4.92,5.24,4.92a10.72,10.72,0,0,0,4.23-.73l.48,1.85a13.24,13.24,0,0,1-5.08.88c-4.71,0-7.52-2.88-7.52-7.16s2.72-7.65,7.17-7.65c5,0,6.31,4.07,6.31,6.68a7.83,7.83,0,0,1-.1,1.21Zm8.15-1.85c0-1.64-.73-4.2-3.85-4.2-2.81,0-4,2.41-4.27,4.2Z" transform="translate(-32.5 -12)"/><path class="cls-5" d="M909.14,593.26v4.08h4v2h-4V607c0,1.76.54,2.75,2.09,2.75a6.64,6.64,0,0,0,1.61-.17l.12,1.93a7.14,7.14,0,0,1-2.46.36,4,4,0,0,1-3-1.09c-.79-.76-1.07-2-1.07-3.69v-7.74h-2.37v-2h2.37v-3.4Z" transform="translate(-32.5 -12)"/><path class="cls-5" d="M919.33,593.35a1.73,1.73,0,0,1-3.44,0,1.64,1.64,0,0,1,1.74-1.61A1.58,1.58,0,0,1,919.33,593.35Zm-3.09,18.18V597.34H919v14.19Z" transform="translate(-32.5 -12)"/><path class="cls-5" d="M923.62,601.18c0-1.46,0-2.67-.12-3.84H926l.16,2.35h.06a5.7,5.7,0,0,1,5.05-2.67c2.12,0,5.4,1.17,5.4,6v8.47h-2.78v-8.18c0-2.29-.91-4.19-3.53-4.19a3.92,3.92,0,0,0-3.73,2.64,3.6,3.6,0,0,0-.19,1.2v8.53h-2.78Z" transform="translate(-32.5 -12)"/><path class="cls-5" d="M954.3,597.34c-.06,1-.12,2.17-.12,3.9v8.24c0,3.25-.7,5.25-2.18,6.48a8.53,8.53,0,0,1-5.56,1.7,10.48,10.48,0,0,1-5.08-1.17l.7-2a9,9,0,0,0,4.48,1.12c2.84,0,4.92-1.38,4.92-5V609.1h-.06a5.58,5.58,0,0,1-4.86,2.37c-3.79,0-6.5-3-6.5-6.92,0-4.81,3.37-7.53,6.87-7.53a5.15,5.15,0,0,1,4.77,2.46h.07l.12-2.14Zm-2.87,5.6a3.32,3.32,0,0,0-.16-1.17,4,4,0,0,0-3.88-2.73c-2.65,0-4.55,2.08-4.55,5.37,0,2.78,1.52,5.1,4.52,5.1a4,4,0,0,0,3.85-2.64,4.15,4.15,0,0,0,.22-1.38Z" transform="translate(-32.5 -12)"/><path class="cls-5" d="M956.51,615.14a40.43,40.43,0,0,0,1.89-7l3.09-.29a34,34,0,0,1-3,7.12Z" transform="translate(-32.5 -12)"/><path class="cls-5" d="M654.59,646.83a11,11,0,0,1-4.39.82c-4.61,0-7.61-2.9-7.61-7.24s3.22-7.53,8.21-7.53a9.94,9.94,0,0,1,3.85.73l-.63,2a6.88,6.88,0,0,0-3.22-.67,5.34,5.34,0,1,0-.09,10.67,8.43,8.43,0,0,0,3.4-.7Z" transform="translate(-32.5 -12)"/><path class="cls-5" d="M671.47,640.15c0,5.25-3.91,7.53-7.61,7.53a7,7,0,0,1-7.32-7.3c0-4.75,3.35-7.53,7.58-7.53A7,7,0,0,1,671.47,640.15Zm-12.12.15c0,3.1,1.93,5.45,4.64,5.45s4.64-2.32,4.64-5.51c0-2.41-1.29-5.46-4.58-5.46S659.35,637.6,659.35,640.3Z" transform="translate(-32.5 -12)"/><path class="cls-5" d="M675,637c0-1.47,0-2.67-.13-3.84h2.43l.13,2.29h.1a5.32,5.32,0,0,1,4.79-2.61,4.52,4.52,0,0,1,4.33,2.84h.06a6,6,0,0,1,1.7-1.85,5.54,5.54,0,0,1,3.38-1c2,0,5,1.23,5,6.15v8.36h-2.71v-8c0-2.73-1.08-4.37-3.32-4.37a3.55,3.55,0,0,0-3.28,2.34,3.86,3.86,0,0,0-.22,1.29v8.77h-2.72v-8.5c0-2.26-1.07-3.9-3.19-3.9a3.73,3.73,0,0,0-3.43,2.58,3.28,3.28,0,0,0-.23,1.26v8.56H675Z" transform="translate(-32.5 -12)"/><path class="cls-5" d="M701.29,637c0-1.47,0-2.67-.13-3.84h2.43l.13,2.29h.09a5.33,5.33,0,0,1,4.8-2.61,4.5,4.5,0,0,1,4.32,2.84H713a6,6,0,0,1,1.7-1.85,5.54,5.54,0,0,1,3.38-1c2,0,5,1.23,5,6.15v8.36h-2.71v-8c0-2.73-1.08-4.37-3.32-4.37a3.55,3.55,0,0,0-3.28,2.34,3.86,3.86,0,0,0-.23,1.29v8.77h-2.71v-8.5c0-2.26-1.07-3.9-3.19-3.9a3.76,3.76,0,0,0-3.44,2.58,3.28,3.28,0,0,0-.22,1.26v8.56h-2.71Z" transform="translate(-32.5 -12)"/><path class="cls-5" d="M740.39,643.49c0,1.47,0,2.76.13,3.87h-2.47L737.9,645h-.07a5.81,5.81,0,0,1-5.05,2.64c-2.4,0-5.27-1.23-5.27-6.21v-8.3h2.78V641c0,2.7.88,4.51,3.4,4.51a4,4,0,0,0,3.67-2.34,3.49,3.49,0,0,0,.25-1.32v-8.71h2.78Z" transform="translate(-32.5 -12)"/><path class="cls-5" d="M745,637c0-1.47,0-2.67-.13-3.84h2.47l.15,2.34h.07a5.71,5.71,0,0,1,5.05-2.66c2.11,0,5.4,1.17,5.4,6v8.47h-2.78v-8.18c0-2.29-.92-4.19-3.54-4.19a3.9,3.9,0,0,0-3.72,2.64,3.36,3.36,0,0,0-.19,1.2v8.53H745Z" transform="translate(-32.5 -12)"/><path class="cls-5" d="M765.6,629.18a1.73,1.73,0,0,1-3.44,0,1.63,1.63,0,0,1,1.73-1.61A1.59,1.59,0,0,1,765.6,629.18Zm-3.1,18.18V633.17h2.78v14.19Z" transform="translate(-32.5 -12)"/><path class="cls-5" d="M780.78,646.83a11,11,0,0,1-4.39.82c-4.61,0-7.61-2.9-7.61-7.24s3.22-7.53,8.21-7.53a9.94,9.94,0,0,1,3.85.73l-.63,2a6.85,6.85,0,0,0-3.22-.67,5.34,5.34,0,1,0-.09,10.67,8.49,8.49,0,0,0,3.41-.7Z" transform="translate(-32.5 -12)"/><path class="cls-5" d="M792.49,647.36l-.22-1.79h-.1a5.82,5.82,0,0,1-4.67,2.11c-3.09,0-4.67-2-4.67-4.07,0-3.43,3.28-5.31,9.18-5.28V638c0-1.18-.34-3.29-3.47-3.29a8,8,0,0,0-4,1.06l-.63-1.7a10,10,0,0,1,5-1.26c4.67,0,5.81,3,5.81,5.8V644a18.56,18.56,0,0,0,.25,3.4Zm-.42-7.24c-3-.06-6.46.44-6.46,3.2a2.38,2.38,0,0,0,2.62,2.46,3.77,3.77,0,0,0,3.69-2.38,2.58,2.58,0,0,0,.15-.82Z" transform="translate(-32.5 -12)"/><path class="cls-5" d="M802.46,629.09v4.08h4v2h-4v7.66c0,1.76.53,2.75,2.08,2.75a6.52,6.52,0,0,0,1.61-.17l.13,1.93a7.18,7.18,0,0,1-2.46.35,4,4,0,0,1-3-1.08c-.79-.76-1.08-2-1.08-3.7v-7.74h-2.36v-2h2.36v-3.4Z" transform="translate(-32.5 -12)"/><path class="cls-5" d="M812.65,629.18a1.73,1.73,0,0,1-3.44,0,1.63,1.63,0,0,1,1.74-1.61A1.58,1.58,0,0,1,812.65,629.18Zm-3.09,18.18V633.17h2.78v14.19Z" transform="translate(-32.5 -12)"/><path class="cls-5" d="M830.77,640.15c0,5.25-3.92,7.53-7.61,7.53a7,7,0,0,1-7.32-7.3c0-4.75,3.34-7.53,7.57-7.53A7,7,0,0,1,830.77,640.15Zm-12.12.15c0,3.1,1.92,5.45,4.64,5.45s4.63-2.32,4.63-5.51c0-2.41-1.29-5.46-4.57-5.46S818.65,637.6,818.65,640.3Z" transform="translate(-32.5 -12)"/><path class="cls-5" d="M834.27,637c0-1.47,0-2.67-.13-3.84h2.46l.16,2.34h.06a5.72,5.72,0,0,1,5-2.66c2.12,0,5.4,1.17,5.4,6v8.47h-2.78v-8.18c0-2.29-.91-4.19-3.53-4.19a3.92,3.92,0,0,0-3.73,2.64,3.36,3.36,0,0,0-.19,1.2v8.53h-2.77Z" transform="translate(-32.5 -12)"/><path class="cls-5" d="M856.67,651a39.56,39.56,0,0,0,1.89-7l3.1-.29a34.76,34.76,0,0,1-3,7.12Z" transform="translate(-32.5 -12)"/><path class="cls-5" d="M643.7,673.63c0-1.82-.07-3.28-.13-4.63h2.5l.12,2.43h.06a6.13,6.13,0,0,1,5.43-2.76c3.7,0,6.47,2.91,6.47,7.22,0,5.1-3.34,7.62-6.94,7.62a5.47,5.47,0,0,1-4.7-2.23h-.07V689H643.7Zm2.74,3.78a5.59,5.59,0,0,0,.13,1.06,4.25,4.25,0,0,0,4.17,3c2.93,0,4.64-2.23,4.64-5.48,0-2.85-1.61-5.28-4.55-5.28a4.38,4.38,0,0,0-4.2,3.19,4.21,4.21,0,0,0-.19,1.06Z" transform="translate(-32.5 -12)"/><path class="cls-5" d="M661.65,673.42c0-1.67,0-3.1-.12-4.42H664l.09,2.78h.13a4.55,4.55,0,0,1,4.23-3.11,3.18,3.18,0,0,1,.79.09v2.44a4.44,4.44,0,0,0-1-.09,3.79,3.79,0,0,0-3.73,3.31,7.16,7.16,0,0,0-.12,1.2v7.57h-2.75Z" transform="translate(-32.5 -12)"/><path class="cls-5" d="M685.48,676c0,5.25-3.91,7.53-7.6,7.53a7,7,0,0,1-7.33-7.3c0-4.75,3.35-7.54,7.58-7.54A7,7,0,0,1,685.48,676Zm-12.12.14c0,3.11,1.93,5.46,4.64,5.46s4.64-2.32,4.64-5.52c0-2.4-1.29-5.45-4.58-5.45S673.36,673.42,673.36,676.12Z" transform="translate(-32.5 -12)"/><path class="cls-5" d="M685.25,687.29a4.64,4.64,0,0,0,3-1.08c.76-.82,1.05-1.94,1.05-5.34V669h2.78v12.87c0,2.76-.48,4.55-1.84,5.84a7.39,7.39,0,0,1-4.73,1.61ZM692.42,665a1.57,1.57,0,0,1-1.74,1.58A1.6,1.6,0,0,1,689,665a1.65,1.65,0,0,1,1.77-1.61A1.58,1.58,0,0,1,692.42,665Z" transform="translate(-32.5 -12)"/><path class="cls-5" d="M698.19,676.56c.07,3.49,2.47,4.93,5.25,4.93a10.67,10.67,0,0,0,4.22-.73l.48,1.84a13.2,13.2,0,0,1-5.08.88c-4.71,0-7.52-2.87-7.52-7.15s2.72-7.66,7.17-7.66c5,0,6.31,4.08,6.31,6.69a9.38,9.38,0,0,1-.09,1.2Zm8.15-1.84c0-1.65-.73-4.2-3.85-4.2-2.81,0-4,2.41-4.26,4.2Z" transform="translate(-32.5 -12)"/><path class="cls-5" d="M723.35,682.66a11,11,0,0,1-4.39.82c-4.61,0-7.61-2.9-7.61-7.24s3.22-7.54,8.21-7.54a9.92,9.92,0,0,1,3.85.74l-.63,2a6.88,6.88,0,0,0-3.22-.67,5.34,5.34,0,1,0-.1,10.67,8.45,8.45,0,0,0,3.41-.7Z" transform="translate(-32.5 -12)"/><path class="cls-5" d="M730.35,664.92V669h4v2h-4v7.66c0,1.75.54,2.75,2.08,2.75a7.12,7.12,0,0,0,1.61-.17l.13,1.93a7.18,7.18,0,0,1-2.46.35,4,4,0,0,1-3-1.08c-.79-.76-1.08-2-1.08-3.7V671h-2.36v-2h2.36v-3.4Z" transform="translate(-32.5 -12)"/><path class="cls-5" d="M737.45,672.84c0-1.47,0-2.67-.13-3.84h2.43l.13,2.28H740a5.35,5.35,0,0,1,4.8-2.61,4.53,4.53,0,0,1,4.33,2.85h.06a6,6,0,0,1,1.7-1.85,5.54,5.54,0,0,1,3.38-1c2,0,5,1.24,5,6.16v8.36h-2.71v-8c0-2.73-1.08-4.37-3.32-4.37a3.55,3.55,0,0,0-3.28,2.34,3.86,3.86,0,0,0-.22,1.29v8.77H747v-8.5c0-2.26-1.07-3.9-3.19-3.9a3.73,3.73,0,0,0-3.43,2.58,3.1,3.1,0,0,0-.23,1.26v8.56h-2.71Z" transform="translate(-32.5 -12)"/><path class="cls-5" d="M772.23,683.19,772,681.4h-.09a5.83,5.83,0,0,1-4.67,2.11c-3.1,0-4.67-2-4.67-4.07,0-3.43,3.28-5.31,9.18-5.28v-.29c0-1.18-.35-3.29-3.47-3.29a8,8,0,0,0-4,1.06l-.63-1.7a9.94,9.94,0,0,1,5-1.27c4.67,0,5.81,3,5.81,5.81v5.31a18.56,18.56,0,0,0,.25,3.4Zm-.42-7.24c-3-.06-6.47.44-6.47,3.19a2.38,2.38,0,0,0,2.62,2.47,3.8,3.8,0,0,0,3.7-2.38,2.63,2.63,0,0,0,.15-.82Z" transform="translate(-32.5 -12)"/><path class="cls-5" d="M779,672.84c0-1.47,0-2.67-.12-3.84h2.46l.16,2.34h.06a5.7,5.7,0,0,1,5.05-2.67c2.12,0,5.4,1.18,5.4,6.05v8.47H789.2V675c0-2.29-.91-4.2-3.53-4.2a3.93,3.93,0,0,0-3.73,2.65,3.6,3.6,0,0,0-.19,1.2v8.53H779Z" transform="translate(-32.5 -12)"/><path class="cls-5" d="M805,683.19l-.22-1.79h-.1a5.82,5.82,0,0,1-4.67,2.11c-3.09,0-4.67-2-4.67-4.07,0-3.43,3.28-5.31,9.19-5.28v-.29c0-1.18-.35-3.29-3.48-3.29a8,8,0,0,0-4,1.06l-.63-1.7a9.93,9.93,0,0,1,5-1.27c4.68,0,5.81,3,5.81,5.81v5.31a18.56,18.56,0,0,0,.25,3.4Zm-.41-7.24c-3-.06-6.47.44-6.47,3.19a2.38,2.38,0,0,0,2.62,2.47,3.79,3.79,0,0,0,3.69-2.38,2.39,2.39,0,0,0,.16-.82Z" transform="translate(-32.5 -12)"/><path class="cls-5" d="M824.86,669c-.06,1-.12,2.17-.12,3.9v8.24c0,3.25-.7,5.25-2.18,6.48a8.53,8.53,0,0,1-5.56,1.7,10.48,10.48,0,0,1-5.08-1.17l.7-2a9.05,9.05,0,0,0,4.48,1.11c2.84,0,4.92-1.37,4.92-4.95v-1.58H822a5.58,5.58,0,0,1-4.86,2.37c-3.79,0-6.5-3-6.5-6.92,0-4.81,3.37-7.54,6.87-7.54a5.15,5.15,0,0,1,4.77,2.47h.07l.12-2.14ZM822,674.6a3.41,3.41,0,0,0-.16-1.18A4,4,0,0,0,818,670.7c-2.65,0-4.55,2.08-4.55,5.36,0,2.79,1.52,5.11,4.52,5.11a4,4,0,0,0,3.85-2.64,4.15,4.15,0,0,0,.22-1.38Z" transform="translate(-32.5 -12)"/><path class="cls-5" d="M830.88,676.56c.07,3.49,2.47,4.93,5.25,4.93a10.67,10.67,0,0,0,4.22-.73l.48,1.84a13.2,13.2,0,0,1-5.08.88c-4.71,0-7.52-2.87-7.52-7.15s2.72-7.66,7.17-7.66c5,0,6.31,4.08,6.31,6.69a9.38,9.38,0,0,1-.09,1.2Zm8.15-1.84c0-1.65-.73-4.2-3.85-4.2-2.81,0-4,2.41-4.26,4.2Z" transform="translate(-32.5 -12)"/><path class="cls-5" d="M845.15,672.84c0-1.47,0-2.67-.13-3.84h2.43l.13,2.28h.09a5.35,5.35,0,0,1,4.8-2.61,4.51,4.51,0,0,1,4.32,2.85h.07a6,6,0,0,1,1.7-1.85,5.54,5.54,0,0,1,3.38-1c2,0,5,1.24,5,6.16v8.36h-2.72v-8c0-2.73-1.07-4.37-3.31-4.37a3.55,3.55,0,0,0-3.28,2.34,3.86,3.86,0,0,0-.22,1.29v8.77h-2.72v-8.5c0-2.26-1.07-3.9-3.19-3.9a3.75,3.75,0,0,0-3.44,2.58,3.28,3.28,0,0,0-.22,1.26v8.56h-2.71Z" transform="translate(-32.5 -12)"/><path class="cls-5" d="M873,676.56c.06,3.49,2.46,4.93,5.24,4.93a10.72,10.72,0,0,0,4.23-.73l.47,1.84a13.16,13.16,0,0,1-5.08.88c-4.7,0-7.51-2.87-7.51-7.15s2.71-7.66,7.17-7.66c5,0,6.31,4.08,6.31,6.69a9,9,0,0,1-.1,1.2Zm8.15-1.84c0-1.65-.73-4.2-3.86-4.2-2.8,0-4,2.41-4.26,4.2Z" transform="translate(-32.5 -12)"/><path class="cls-5" d="M887.27,672.84c0-1.47,0-2.67-.12-3.84h2.46l.16,2.34h.06a5.7,5.7,0,0,1,5-2.67c2.12,0,5.4,1.18,5.4,6.05v8.47H897.5V675c0-2.29-.92-4.2-3.53-4.2a3.92,3.92,0,0,0-3.73,2.65,3.36,3.36,0,0,0-.19,1.2v8.53h-2.78Z" transform="translate(-32.5 -12)"/><path class="cls-5" d="M908,664.92V669h4v2h-4v7.66c0,1.75.53,2.75,2.08,2.75a7.2,7.2,0,0,0,1.61-.17l.12,1.93a7.09,7.09,0,0,1-2.46.35,4,4,0,0,1-3-1.08c-.79-.76-1.08-2-1.08-3.7V671h-2.36v-2h2.36v-3.4Z" transform="translate(-32.5 -12)"/><path class="cls-5" d="M936.94,683.19l-.22-1.79h-.09a5.83,5.83,0,0,1-4.67,2.11c-3.1,0-4.68-2-4.68-4.07,0-3.43,3.29-5.31,9.19-5.28v-.29c0-1.18-.35-3.29-3.47-3.29a8,8,0,0,0-4,1.06l-.63-1.7a9.94,9.94,0,0,1,5-1.27c4.67,0,5.81,3,5.81,5.81v5.31a18.56,18.56,0,0,0,.25,3.4Zm-.41-7.24c-3-.06-6.47.44-6.47,3.19a2.38,2.38,0,0,0,2.62,2.47,3.81,3.81,0,0,0,3.7-2.38,2.63,2.63,0,0,0,.15-.82Z" transform="translate(-32.5 -12)"/><path class="cls-5" d="M943.69,672.84c0-1.47,0-2.67-.12-3.84H946l.16,2.34h.06a5.69,5.69,0,0,1,5-2.67c2.12,0,5.4,1.18,5.4,6.05v8.47h-2.78V675c0-2.29-.91-4.2-3.53-4.2a3.91,3.91,0,0,0-3.73,2.65,3.36,3.36,0,0,0-.19,1.2v8.53h-2.78Z" transform="translate(-32.5 -12)"/><path class="cls-5" d="M974.4,662.37v17.15c0,1.27,0,2.7.13,3.67H972l-.12-2.46h-.06a5.75,5.75,0,0,1-5.21,2.78c-3.7,0-6.54-2.9-6.54-7.21,0-4.72,3.13-7.63,6.85-7.63a5.2,5.2,0,0,1,4.61,2.18h.06v-8.48Zm-2.78,12.4a4.42,4.42,0,0,0-.12-1.08,4,4,0,0,0-4-3c-2.87,0-4.58,2.34-4.58,5.48,0,2.87,1.52,5.25,4.52,5.25a4.12,4.12,0,0,0,4.07-3.08,4.34,4.34,0,0,0,.12-1.11Z" transform="translate(-32.5 -12)"/><path class="cls-5" d="M998.89,662.37v17.15c0,1.27,0,2.7.13,3.67h-2.5l-.12-2.46h-.07a5.72,5.72,0,0,1-5.21,2.78c-3.69,0-6.53-2.9-6.53-7.21,0-4.72,3.13-7.63,6.85-7.63a5.2,5.2,0,0,1,4.61,2.18h.06v-8.48Zm-2.78,12.4a4.42,4.42,0,0,0-.12-1.08,4,4,0,0,0-4-3c-2.88,0-4.58,2.34-4.58,5.48,0,2.87,1.51,5.25,4.51,5.25a4.12,4.12,0,0,0,4.08-3.08,4.34,4.34,0,0,0,.12-1.11Z" transform="translate(-32.5 -12)"/><path class="cls-5" d="M1005,676.56c.06,3.49,2.46,4.93,5.24,4.93a10.72,10.72,0,0,0,4.23-.73l.47,1.84a13.16,13.16,0,0,1-5.08.88c-4.7,0-7.51-2.87-7.51-7.15s2.71-7.66,7.16-7.66c5,0,6.32,4.08,6.32,6.69a9,9,0,0,1-.1,1.2Zm8.14-1.84c0-1.65-.72-4.2-3.85-4.2-2.81,0-4,2.41-4.26,4.2Z" transform="translate(-32.5 -12)"/><path class="cls-5" d="M1018.92,680.55a7.68,7.68,0,0,0,3.66,1c2,0,3-.94,3-2.11s-.79-1.91-2.84-2.61c-2.75-.91-4-2.32-4-4,0-2.29,2-4.17,5.27-4.17a8.06,8.06,0,0,1,3.76.89l-.7,1.87a6.28,6.28,0,0,0-3.12-.82c-1.64,0-2.56.88-2.56,1.94s.92,1.7,2.91,2.4c2.65.94,4,2.17,4,4.28,0,2.49-2.09,4.25-5.72,4.25a9.32,9.32,0,0,1-4.29-1Z" transform="translate(-32.5 -12)"/><path class="cls-5" d="M1034.89,665a1.73,1.73,0,0,1-3.44,0,1.64,1.64,0,0,1,1.74-1.61A1.58,1.58,0,0,1,1034.89,665Zm-3.09,18.18V669h2.77v14.19Z" transform="translate(-32.5 -12)"/><path class="cls-5" d="M1052.35,669c-.07,1-.13,2.17-.13,3.9v8.24c0,3.25-.7,5.25-2.18,6.48a8.51,8.51,0,0,1-5.56,1.7,10.53,10.53,0,0,1-5.08-1.17l.7-2a9.08,9.08,0,0,0,4.48,1.11c2.84,0,4.92-1.37,4.92-4.95v-1.58h-.06a5.55,5.55,0,0,1-4.86,2.37c-3.79,0-6.5-3-6.5-6.92,0-4.81,3.37-7.54,6.88-7.54a5.18,5.18,0,0,1,4.77,2.47h.06l.12-2.14Zm-2.88,5.6a3.67,3.67,0,0,0-.15-1.18,4,4,0,0,0-3.89-2.72c-2.65,0-4.54,2.08-4.54,5.36,0,2.79,1.51,5.11,4.51,5.11a4,4,0,0,0,3.85-2.64,4.15,4.15,0,0,0,.22-1.38Z" transform="translate(-32.5 -12)"/><path class="cls-5" d="M1056.63,672.84c0-1.47,0-2.67-.12-3.84H1059l.16,2.34h.06a5.69,5.69,0,0,1,5-2.67c2.12,0,5.4,1.18,5.4,6.05v8.47h-2.78V675c0-2.29-.91-4.2-3.53-4.2a3.91,3.91,0,0,0-3.73,2.65,3.36,3.36,0,0,0-.19,1.2v8.53h-2.78Z" transform="translate(-32.5 -12)"/><line class="cls-3" x1="567.82" y1="69.65" x2="567.82" y2="232.85"/><rect class="cls-4" x="566.07" y="69.65" width="3.51" height="163.2"/><ellipse class="cls-3" cx="567.82" cy="239.81" rx="10.05" ry="8.83"/><path class="cls-5" d="M863.42,268.23a43,43,0,0,1,5.84-.41c3.94,0,6.76.85,8.62,2.46a8.8,8.8,0,0,1,3,7.1,10,10,0,0,1-3.06,7.68c-2,1.85-5.27,2.85-9.4,2.85a46.64,46.64,0,0,1-5-.24Zm2.74,17.48a18.57,18.57,0,0,0,2.79.14c5.86,0,9-3.05,9-8.38,0-4.67-2.81-7.63-8.61-7.63a16.55,16.55,0,0,0-3.23.27Z" transform="translate(-32.5 -12)"/><path class="cls-5" d="M887.44,269.55a1.73,1.73,0,0,1-3.45,0,1.64,1.64,0,0,1,1.74-1.61A1.59,1.59,0,0,1,887.44,269.55Zm-3.1,18.18V273.54h2.78v14.19Z" transform="translate(-32.5 -12)"/><path class="cls-5" d="M904.89,273.54c-.07,1-.13,2.17-.13,3.9v8.24c0,3.25-.69,5.25-2.18,6.48a8.5,8.5,0,0,1-5.55,1.7,10.55,10.55,0,0,1-5.09-1.17l.7-2a9.08,9.08,0,0,0,4.48,1.12c2.84,0,4.93-1.38,4.93-5V285.3H902a5.55,5.55,0,0,1-4.86,2.37c-3.79,0-6.5-3-6.5-6.92,0-4.81,3.38-7.54,6.88-7.54a5.18,5.18,0,0,1,4.77,2.47h.06l.13-2.14Zm-2.87,5.6a3.56,3.56,0,0,0-.16-1.17,4,4,0,0,0-3.89-2.73c-2.65,0-4.54,2.08-4.54,5.37,0,2.78,1.51,5.1,4.51,5.1a4,4,0,0,0,3.85-2.64,4.16,4.16,0,0,0,.23-1.38Z" transform="translate(-32.5 -12)"/><path class="cls-5" d="M912.27,269.55a1.73,1.73,0,0,1-3.44,0,1.63,1.63,0,0,1,1.73-1.61A1.59,1.59,0,0,1,912.27,269.55Zm-3.1,18.18V273.54H912v14.19Z" transform="translate(-32.5 -12)"/><path class="cls-5" d="M919.9,269.46v4.08h4v2h-4v7.66c0,1.76.54,2.75,2.09,2.75a6.64,6.64,0,0,0,1.61-.17l.12,1.93a7.13,7.13,0,0,1-2.46.35,4,4,0,0,1-3-1.08c-.79-.76-1.07-2-1.07-3.7V275.5h-2.37v-2h2.37v-3.4Z" transform="translate(-32.5 -12)"/><path class="cls-5" d="M935.46,287.73l-.22-1.79h-.09a5.85,5.85,0,0,1-4.67,2.11c-3.1,0-4.68-2-4.68-4.07,0-3.43,3.29-5.31,9.19-5.28v-.29c0-1.18-.35-3.29-3.47-3.29a8,8,0,0,0-4,1.06l-.63-1.7a9.94,9.94,0,0,1,5-1.27c4.67,0,5.8,3,5.8,5.81v5.31a18.51,18.51,0,0,0,.26,3.4Zm-.41-7.24c-3-.06-6.47.44-6.47,3.19a2.38,2.38,0,0,0,2.62,2.47,3.79,3.79,0,0,0,3.69-2.38,2.34,2.34,0,0,0,.16-.82Z" transform="translate(-32.5 -12)"/><path class="cls-5" d="M942.21,266.91H945v20.82h-2.78Z" transform="translate(-32.5 -12)"/><path class="cls-5" d="M956.35,277.38c0-1.47,0-2.67-.13-3.84h2.43l.13,2.28h.1a5.34,5.34,0,0,1,4.79-2.61,4.53,4.53,0,0,1,4.33,2.85h.06a6,6,0,0,1,1.7-1.85,5.54,5.54,0,0,1,3.38-1c2,0,5,1.24,5,6.16v8.36h-2.71v-8c0-2.73-1.08-4.37-3.32-4.37a3.55,3.55,0,0,0-3.28,2.34,3.86,3.86,0,0,0-.22,1.29v8.77h-2.72v-8.5c0-2.26-1.07-3.9-3.19-3.9a3.73,3.73,0,0,0-3.43,2.58,3.28,3.28,0,0,0-.23,1.26v8.56h-2.71Z" transform="translate(-32.5 -12)"/><path class="cls-5" d="M984.21,281.1c.06,3.49,2.47,4.93,5.24,4.93a10.72,10.72,0,0,0,4.23-.73l.48,1.84a13.24,13.24,0,0,1-5.08.88c-4.71,0-7.52-2.87-7.52-7.15s2.71-7.66,7.17-7.66c5,0,6.31,4.08,6.31,6.69a7.56,7.56,0,0,1-.1,1.2Zm8.15-1.84c0-1.65-.73-4.2-3.85-4.2-2.81,0-4,2.41-4.27,4.2Z" transform="translate(-32.5 -12)"/><path class="cls-5" d="M1011.67,266.91v17.15c0,1.27,0,2.7.13,3.67h-2.5l-.13-2.46h-.06a5.72,5.72,0,0,1-5.2,2.78c-3.7,0-6.54-2.9-6.54-7.21,0-4.72,3.12-7.63,6.85-7.63a5.21,5.21,0,0,1,4.61,2.18h.06v-8.48Zm-2.78,12.4a4.42,4.42,0,0,0-.12-1.08,4,4,0,0,0-4-3c-2.88,0-4.58,2.35-4.58,5.48,0,2.88,1.52,5.25,4.51,5.25a4.12,4.12,0,0,0,4.08-3.08,4.34,4.34,0,0,0,.12-1.11Z" transform="translate(-32.5 -12)"/><path class="cls-5" d="M1019.37,269.55a1.73,1.73,0,0,1-3.44,0,1.63,1.63,0,0,1,1.73-1.61A1.59,1.59,0,0,1,1019.37,269.55Zm-3.1,18.18V273.54h2.78v14.19Z" transform="translate(-32.5 -12)"/><path class="cls-5" d="M1032.12,287.73l-.22-1.79h-.1a5.82,5.82,0,0,1-4.67,2.11c-3.09,0-4.67-2-4.67-4.07,0-3.43,3.28-5.31,9.18-5.28v-.29c0-1.18-.34-3.29-3.47-3.29a8,8,0,0,0-4,1.06l-.63-1.7a10,10,0,0,1,5-1.27c4.67,0,5.81,3,5.81,5.81v5.31a18.56,18.56,0,0,0,.25,3.4Zm-.41-7.24c-3-.06-6.47.44-6.47,3.19a2.38,2.38,0,0,0,2.62,2.47,3.79,3.79,0,0,0,3.69-2.38,2.59,2.59,0,0,0,.16-.82Z" transform="translate(-32.5 -12)"/><path class="cls-5" d="M1058.75,266.91v17.15c0,1.27,0,2.7.13,3.67h-2.5l-.12-2.46h-.07a5.72,5.72,0,0,1-5.2,2.78c-3.7,0-6.54-2.9-6.54-7.21,0-4.72,3.13-7.63,6.85-7.63a5.21,5.21,0,0,1,4.61,2.18h.06v-8.48Zm-2.78,12.4a4.42,4.42,0,0,0-.12-1.08,4,4,0,0,0-4-3c-2.87,0-4.58,2.35-4.58,5.48,0,2.88,1.52,5.25,4.51,5.25a4.12,4.12,0,0,0,4.08-3.08,4.34,4.34,0,0,0,.12-1.11Z" transform="translate(-32.5 -12)"/><path class="cls-5" d="M1064.9,281.1c.06,3.49,2.46,4.93,5.24,4.93a10.72,10.72,0,0,0,4.23-.73l.47,1.84a13.16,13.16,0,0,1-5.08.88c-4.7,0-7.51-2.87-7.51-7.15s2.71-7.66,7.16-7.66c5,0,6.32,4.08,6.32,6.69a7.56,7.56,0,0,1-.1,1.2Zm8.14-1.84c0-1.65-.72-4.2-3.84-4.2-2.82,0-4,2.41-4.27,4.2Z" transform="translate(-32.5 -12)"/><path class="cls-5" d="M1078.79,285.09a7.62,7.62,0,0,0,3.66,1c2,0,3-.94,3-2.11s-.8-1.91-2.85-2.61c-2.74-.91-4-2.32-4-4,0-2.29,2-4.17,5.27-4.17a8.06,8.06,0,0,1,3.76.89l-.69,1.87a6.36,6.36,0,0,0-3.13-.82c-1.64,0-2.56.88-2.56,1.94s.92,1.7,2.91,2.4c2.65.94,4,2.17,4,4.28,0,2.49-2.09,4.25-5.72,4.25a9.32,9.32,0,0,1-4.29-1Z" transform="translate(-32.5 -12)"/><path class="cls-5" d="M1094.75,269.55a1.73,1.73,0,0,1-3.44,0,1.64,1.64,0,0,1,1.74-1.61A1.58,1.58,0,0,1,1094.75,269.55Zm-3.09,18.18V273.54h2.78v14.19Z" transform="translate(-32.5 -12)"/><path class="cls-5" d="M1112.21,273.54c-.07,1-.13,2.17-.13,3.9v8.24c0,3.25-.69,5.25-2.18,6.48a8.5,8.5,0,0,1-5.55,1.7,10.42,10.42,0,0,1-5.08-1.17l.69-2a9.08,9.08,0,0,0,4.48,1.12c2.84,0,4.93-1.38,4.93-5V285.3h-.07a5.55,5.55,0,0,1-4.86,2.37c-3.79,0-6.5-3-6.5-6.92,0-4.81,3.38-7.54,6.88-7.54a5.18,5.18,0,0,1,4.77,2.47h.06l.13-2.14Zm-2.87,5.6a3.31,3.31,0,0,0-.17-1.17,3.94,3.94,0,0,0-3.87-2.73c-2.66,0-4.55,2.08-4.55,5.37,0,2.78,1.51,5.1,4.51,5.1a4,4,0,0,0,3.85-2.64,4.16,4.16,0,0,0,.23-1.38Z" transform="translate(-32.5 -12)"/><path class="cls-5" d="M1116.5,277.38c0-1.47,0-2.67-.13-3.84h2.46l.16,2.34h.06a5.7,5.7,0,0,1,5-2.67c2.12,0,5.4,1.18,5.4,6.05v8.47h-2.78v-8.18c0-2.29-.91-4.19-3.53-4.19a3.91,3.91,0,0,0-3.73,2.64,3.36,3.36,0,0,0-.19,1.2v8.53h-2.77Z" transform="translate(-32.5 -12)"/><path class="cls-5" d="M881.6,313.47c0,6.8-4.45,10.41-9.88,10.41-5.62,0-9.56-4.05-9.56-10,0-6.27,4.2-10.38,9.88-10.38S881.6,307.61,881.6,313.47Zm-16.51.32c0,4.23,2.47,8,6.79,8s6.82-3.72,6.82-8.21c0-3.93-2.21-8-6.79-8S865.09,309.46,865.09,313.79Z" transform="translate(-32.5 -12)"/><path class="cls-5" d="M884.69,320.92a7.65,7.65,0,0,0,3.66,1c2,0,3-.94,3-2.12s-.79-1.9-2.84-2.6c-2.75-.91-4-2.32-4-4,0-2.29,2-4.17,5.27-4.17a8.23,8.23,0,0,1,3.76.88l-.7,1.88a6.32,6.32,0,0,0-3.13-.82c-1.64,0-2.55.88-2.55,1.93s.91,1.71,2.9,2.41c2.65.94,4,2.17,4,4.28,0,2.49-2.08,4.25-5.71,4.25a9.23,9.23,0,0,1-4.3-1Z" transform="translate(-32.5 -12)"/><path class="cls-5" d="M897.56,302.74h2.78v20.82h-2.78Z" transform="translate(-32.5 -12)"/><path class="cls-5" d="M918.84,316.35c0,5.24-3.92,7.53-7.61,7.53a7,7,0,0,1-7.32-7.3,7.18,7.18,0,0,1,7.57-7.54A7,7,0,0,1,918.84,316.35Zm-12.12.14c0,3.11,1.92,5.46,4.64,5.46s4.64-2.32,4.64-5.52c0-2.4-1.3-5.45-4.58-5.45S906.72,313.79,906.72,316.49Z" transform="translate(-32.5 -12)"/><path class="cls-5" d="M922.34,313.21c0-1.47,0-2.67-.13-3.84h2.43l.13,2.28h.09a5.32,5.32,0,0,1,4.8-2.61,4.51,4.51,0,0,1,4.32,2.85h.07a6,6,0,0,1,1.7-1.85,5.54,5.54,0,0,1,3.38-1c2,0,5,1.24,5,6.16v8.36h-2.72v-8c0-2.72-1.07-4.36-3.31-4.36a3.57,3.57,0,0,0-3.29,2.34,4.15,4.15,0,0,0-.21,1.29v8.77H931.9v-8.5c0-2.26-1.07-3.9-3.19-3.9a3.75,3.75,0,0,0-3.44,2.58,3.28,3.28,0,0,0-.22,1.26v8.56h-2.71Z" transform="translate(-32.5 -12)"/><path class="cls-5" d="M950.2,316.93c.06,3.49,2.46,4.93,5.24,4.93a10.72,10.72,0,0,0,4.23-.73l.47,1.84a13.16,13.16,0,0,1-5.08.88c-4.7,0-7.51-2.87-7.51-7.15s2.71-7.66,7.16-7.66c5,0,6.32,4.08,6.32,6.69a9,9,0,0,1-.1,1.2Zm8.14-1.84c0-1.65-.72-4.2-3.85-4.2-2.81,0-4,2.41-4.26,4.2Z" transform="translate(-32.5 -12)"/><path class="cls-5" d="M967.81,305.29v4.08h4v2h-4V319c0,1.75.54,2.75,2.08,2.75a6.48,6.48,0,0,0,1.61-.18l.13,1.94a7.2,7.2,0,0,1-2.47.35,4,4,0,0,1-3-1.08c-.79-.76-1.08-2-1.08-3.7v-7.74h-2.36v-2h2.36V306Z" transform="translate(-32.5 -12)"/><path class="cls-5" d="M878.29,358.74a14.52,14.52,0,0,1-5.62.94c-6,0-10.51-3.52-10.51-10,0-6.19,4.51-10.38,11.11-10.38a12.2,12.2,0,0,1,5.05.88l-.66,2.08a10.66,10.66,0,0,0-4.3-.82c-5,0-8.3,3-8.3,8.15,0,4.84,3,8,8.18,8a11.67,11.67,0,0,0,4.48-.82Z" transform="translate(-32.5 -12)"/><path class="cls-5" d="M895.11,352.17c0,5.25-3.92,7.54-7.61,7.54a7,7,0,0,1-7.32-7.3,7.18,7.18,0,0,1,7.57-7.54A7,7,0,0,1,895.11,352.17Zm-12.13.15c0,3.11,1.93,5.46,4.64,5.46s4.64-2.32,4.64-5.52c0-2.4-1.29-5.45-4.57-5.45S883,349.62,883,352.32Z" transform="translate(-32.5 -12)"/><path class="cls-5" d="M898.6,338.57h2.78v20.82H898.6Z" transform="translate(-32.5 -12)"/><path class="cls-5" d="M906.05,338.57h2.78v20.82h-2.78Z" transform="translate(-32.5 -12)"/><path class="cls-5" d="M915.05,352.76c.06,3.49,2.46,4.93,5.24,4.93a10.73,10.73,0,0,0,4.23-.74l.47,1.85a13.2,13.2,0,0,1-5.08.88c-4.71,0-7.51-2.87-7.51-7.15s2.71-7.66,7.16-7.66c5,0,6.31,4.08,6.31,6.69a9.38,9.38,0,0,1-.09,1.2Zm8.14-1.85c0-1.64-.73-4.19-3.85-4.19-2.81,0-4,2.4-4.26,4.19Z" transform="translate(-32.5 -12)"/><path class="cls-5" d="M942.47,345.2c-.06,1-.12,2.17-.12,3.89v8.24c0,3.26-.7,5.25-2.18,6.49a8.53,8.53,0,0,1-5.56,1.7,10.37,10.37,0,0,1-5.08-1.18l.7-2a9.16,9.16,0,0,0,4.48,1.11c2.84,0,4.92-1.37,4.92-4.95V357h-.06a5.58,5.58,0,0,1-4.86,2.38c-3.79,0-6.5-3-6.5-6.92,0-4.81,3.37-7.54,6.87-7.54a5.13,5.13,0,0,1,4.77,2.47h.07l.12-2.14Zm-2.87,5.6a3.41,3.41,0,0,0-.16-1.18,4,4,0,0,0-3.88-2.72c-2.65,0-4.55,2.08-4.55,5.36,0,2.79,1.52,5.1,4.52,5.1a3.94,3.94,0,0,0,4.07-4Z" transform="translate(-32.5 -12)"/><path class="cls-5" d="M959.73,355.52c0,1.46,0,2.75.13,3.87H957.4l-.16-2.32h-.07a5.82,5.82,0,0,1-5,2.64c-2.4,0-5.27-1.23-5.27-6.22V345.2h2.78v7.85c0,2.7.88,4.52,3.41,4.52a4,4,0,0,0,3.66-2.35,3.49,3.49,0,0,0,.25-1.32v-8.7h2.78Z" transform="translate(-32.5 -12)"/><path class="cls-5" d="M965.88,352.76c.06,3.49,2.46,4.93,5.24,4.93a10.69,10.69,0,0,0,4.23-.74l.47,1.85a13.2,13.2,0,0,1-5.08.88c-4.7,0-7.51-2.87-7.51-7.15s2.71-7.66,7.16-7.66c5,0,6.32,4.08,6.32,6.69a7.56,7.56,0,0,1-.1,1.2Zm8.14-1.85c0-1.64-.72-4.19-3.85-4.19-2.81,0-4,2.4-4.26,4.19Z" transform="translate(-32.5 -12)"/><path class="cls-5" d="M862.44,395.22v-1.59l2.18-2c5.24-4.63,7.61-7.1,7.64-10,0-1.94-1-3.73-4.07-3.73a7.24,7.24,0,0,0-4.36,1.62l-.88-1.82a9.38,9.38,0,0,1,5.8-1.94c4.42,0,6.29,2.82,6.29,5.55,0,3.51-2.75,6.36-7.07,10.23L866.32,393v.06h9.22v2.14Z" transform="translate(-32.5 -12)"/><path class="cls-5" d="M892.27,385.48c0,6.48-2.59,10.06-7.14,10.06-4,0-6.72-3.49-6.79-9.79s3-9.92,7.14-9.92S892.27,379.41,892.27,385.48Zm-11.15.29c0,5,1.64,7.78,4.17,7.78,2.84,0,4.2-3.08,4.2-7.95,0-4.69-1.3-7.77-4.17-7.77C882.89,377.83,881.12,380.58,881.12,385.77Z" transform="translate(-32.5 -12)"/><path class="cls-5" d="M900.84,378.56h-.06l-3.57,1.79-.53-2,4.48-2.23h2.37v19.06h-2.69Z" transform="translate(-32.5 -12)"/><path class="cls-5" d="M917,378.56H917l-3.57,1.79-.53-2,4.48-2.23h2.36v19.06H917Z" transform="translate(-32.5 -12)"/><line class="cls-3" x1="801.97" y1="235.46" x2="801.97" y2="401.65"/><rect class="cls-4" x="800.22" y="235.46" width="3.51" height="166.2"/><ellipse class="cls-3" cx="801.97" cy="229.91" rx="10.05" ry="10.58"/><rect class="cls-6" x="129.48" y="463.14" width="863.98" height="2.44"/><rect class="cls-6" x="566.5" y="509.33" width="2.63" height="233.67"/></svg>