<?xml version="1.0" encoding="utf-8"?>
<!-- Generator: Adobe Illustrator 23.1.0, SVG Export Plug-In . SVG Version: 6.00 Build 0)  -->
<svg version="1.1" id="Layer_1" xmlns="http://www.w3.org/2000/svg" xmlns:xlink="http://www.w3.org/1999/xlink" x="0px" y="0px"
	 viewBox="0 0 1222.7 355" style="enable-background:new 0 0 1222.7 355;" xml:space="preserve">
<style type="text/css">
	.st0{fill:#7F785B;}
	.st1{fill:#D5A076;}
	.st2{fill:#9E2221;}
	.st3{fill:#FCEEBC;}
	.st4{font-family:'Lato-Regular';}
	.st5{font-size:36px;}
	.st6{font-family:'ArialMT';}
</style>
<title>part8</title>
<rect x="606.3" y="80.7" class="st0" width="249.2" height="20.8"/>
<rect x="606.3" y="131.7" class="st1" width="348.9" height="24.3"/>
<rect x="606.3" y="186.2" class="st2" width="249.2" height="22.8"/>
<rect x="606.3" y="231.8" class="st3" width="398.7" height="22.3"/>
<rect x="606.3" y="271" class="st2" width="498.4" height="24"/>
<text transform="matrix(1 0 0 1 378.46 105.2299)" class="st0 st4 st5">Photoshop</text>
<text transform="matrix(1 0 0 1 376.73 155.33)" class="st0 st4 st5">Socilal media</text>
<text transform="matrix(1 0 0 1 378.73 197.5299)" class="st0 st6 st5">H</text>
<text transform="matrix(1 0 0 1 402.78 197.5299)" class="st0 st6 st5">tml\css</text>
<text transform="matrix(1 0 0 1 379.73 244.89)" class="st0 st4 st5">Illust</text>
<text transform="matrix(1 0 0 1 458.28 244.89)" class="st0 st4 st5">r</text>
<text transform="matrix(1 0 0 1 472.1 244.89)" class="st0 st4 st5">ator</text>
<text transform="matrix(1 0 0 1 379.73 289.4799)" class="st0 st4 st5">MC Office</text>
<rect x="595.9" y="83.4" class="st1" width="2.4" height="205"/>
</svg>
