<svg id="Layer_4" data-name="Layer 4" xmlns="http://www.w3.org/2000/svg" viewBox="0 0 1097 743"><defs><style>.cls-1{fill:#fdefbd;}.cls-2{fill:#34121b;}.cls-3{fill:#9f2221;}.cls-4{fill:#9b1b37;}.cls-5{fill:#7f785b;}.cls-6{fill:#d6a176;}</style></defs><title>part5</title><rect class="cls-1" x="32.5" y="240.01" width="1035.33" height="14.85" transform="translate(1067.83 482.87) rotate(180)"/><path class="cls-2" d="M56.82,70.51l5.32-5h.61q5.46,0,7.53-2.1t3.58-9.25l6.54-30.5q-7.41,0-12,3.69A11.81,11.81,0,0,0,63.86,37v.73l-7,3.14q.9-10.12,8.56-15t22.68-4.85h21.14l-3.2,9.46h-2.26a11.12,11.12,0,0,0,.29-2.34q0-2.64-3.26-3.64T89,23.56H87.88L83.71,43.33h16l-3.66,3.44q-8.16-1-11.11-1h-1.8l-.75,3.6A25.07,25.07,0,0,1,78.59,59a28.62,28.62,0,0,1-8.25,7l17.25.64,3.78.1a18.31,18.31,0,0,0,11-3.71l-.57,2.67q-6.36,6-12,6l-1.66,0Z" transform="translate(-32.5 -12)"/><path class="cls-2" d="M138.79,52.38h-.65a46.3,46.3,0,0,1-9.81,13.69q-5.69,5.28-10.64,5.28-7.64,0-7.63-8.85a25.61,25.61,0,0,1,3.72-12.59,36.09,36.09,0,0,1,9.62-11.06,22.7,22.7,0,0,1,7.91-4,48.87,48.87,0,0,1,11.47-1,42.42,42.42,0,0,1,4.42-10.1A27.72,27.72,0,0,1,169.39,12a27.54,27.54,0,0,1,6.47.7l-4.93,4.74a20.12,20.12,0,0,0-7.26-1.73c-3.84,0-6.72,1.3-8.67,3.89s-3.67,7.45-5.21,14.58l-5.64,26.45a31.16,31.16,0,0,0-.87,4.94,1.9,1.9,0,0,0,2.12,2.17q3.6,0,10.75-7.35l-.68,3.11q-7.83,7.84-14.09,7.85c-3.48,0-5.21-1.68-5.21-5a31.45,31.45,0,0,1,.86-5.68ZM141.67,39a23,23,0,0,0-9-1.87q-6.51,0-10.43,7.68-4.64,9.09-4.64,16.33,0,5.25,3.35,5.25,3.09,0,8.9-6a68.9,68.9,0,0,0,10.19-13.79Z" transform="translate(-32.5 -12)"/><path class="cls-2" d="M190.61,52.38H190q-10.2,19-19.9,19-5.74,0-5.75-6.31a21.94,21.94,0,0,1,.58-4.51l3.48-16.4a30.48,30.48,0,0,0,.83-5,1.85,1.85,0,0,0-2.12-2.07q-3.52,0-10.71,7.31l.64-3.07q7.86-7.84,14.16-7.85,5.22,0,5.22,5a31.24,31.24,0,0,1-.87,5.68L172,60.56a17.81,17.81,0,0,0-.47,3.14c0,1.8.71,2.71,2.12,2.71,1.8,0,4.52-2,8.18-6.06a80.57,80.57,0,0,0,10.07-14.12l2.61-12,7.62-.4-2.66,10.29L196,60.63a31.21,31.21,0,0,0-.82,5,1.86,1.86,0,0,0,2.12,2.1q3.56,0,10.71-7.35l-.64,3.11q-7.89,7.84-14.16,7.85-5.22,0-5.22-5a30.64,30.64,0,0,1,.87-5.68Z" transform="translate(-32.5 -12)"/><path class="cls-2" d="M242.59,61.33l-.54,2.6q-11.81,7.42-19.35,7.42a11.12,11.12,0,0,1-8.37-3.27,11.94,11.94,0,0,1-3.17-8.65q0-9.72,7.91-17.85t17.4-8.14a21.61,21.61,0,0,1,8.31,1.71l-2.41,8.58h-2.23l.11-.5a11.67,11.67,0,0,0,.36-2.31q0-4.61-6.73-4.61c-4.21,0-7.73,2.1-10.53,6.28s-4.21,9.44-4.21,15.77q0,9,7.27,9Q233.31,67.41,242.59,61.33Z" transform="translate(-32.5 -12)"/><path class="cls-2" d="M279.52,52.38h-.65a45,45,0,0,1-9.77,13.67q-5.72,5.31-10.7,5.3-7.57,0-7.58-8.82,0-9.72,8.34-19,8.63-9.65,21.07-9.65c3.43,0,7,.14,10.75.4l-2.59,9.89-3.49,16.5a32.4,32.4,0,0,0-.83,5,1.87,1.87,0,0,0,2.13,2.1q3.58,0,10.71-7.35l-.65,3.11q-7.89,7.84-14.15,7.85c-3.48,0-5.23-1.68-5.23-5a31.12,31.12,0,0,1,.87-5.68ZM282.41,39a23.25,23.25,0,0,0-9-1.87q-6.54,0-10.46,7.68-4.59,9.09-4.6,16.33c0,3.5,1.11,5.25,3.31,5.25s5-2,8.89-6A67.89,67.89,0,0,0,280.79,46.6Z" transform="translate(-32.5 -12)"/><path class="cls-2" d="M309.74,36.71h-8.23L304,34.24h6.26l2.05-9.45,7.44-1.67-2.37,11.12h13.55L328,37.18q-4.64-.47-8.23-.47h-2.91l-4.89,22.88a27.57,27.57,0,0,0-.76,5q0,2.64,2.52,2.64,3.89,0,10.61-5.35l-.65,3.08q-7,6.41-13.41,6.41-6.12,0-6.11-6.28a29.78,29.78,0,0,1,.79-5.94Z" transform="translate(-32.5 -12)"/><path class="cls-2" d="M358.78,60.39l-.64,3.11q-7.87,7.84-14.13,7.85-5.17,0-5.18-5a31.19,31.19,0,0,1,.83-5.61l2.48-11.63a42.09,42.09,0,0,0,1-6.58c0-1.87-.78-2.8-2.34-2.8A26.85,26.85,0,0,0,335,40.82l.43-2L353,33.44,350.3,44.13l-3.52,16.5a31.66,31.66,0,0,0-.83,4.94,1.9,1.9,0,0,0,2.12,2.17Q351.63,67.74,358.78,60.39ZM345.59,27.63,348,23.09l10.14-6.15-3.09,6.15Z" transform="translate(-32.5 -12)"/><path class="cls-2" d="M372.88,71.35A10.24,10.24,0,0,1,365,67.93a12.14,12.14,0,0,1-3.14-8.54q0-9.62,7.83-17.78t17.08-8.17A11,11,0,0,1,395,36.78a11.74,11.74,0,0,1,3.24,8.52q0,10-7.84,18T372.88,71.35Zm4.1-2.91q5.31,0,9.36-6.36a26.93,26.93,0,0,0,4.05-14.78q0-11.05-7.27-11-5.13,0-9.25,6.56a27.2,27.2,0,0,0-4.12,14.78Q369.75,68.45,377,68.44Z" transform="translate(-32.5 -12)"/><path class="cls-2" d="M407.21,70.92l2.67-10.29,3.52-16.5a33,33,0,0,0,.83-5,1.86,1.86,0,0,0-2.13-2.07q-3.53,0-10.71,7.34l.65-3.07q7.83-7.87,14.12-7.88,5.18,0,5.18,5a32.06,32.06,0,0,1-.82,5.68l-1.77,8.25h.54a50.09,50.09,0,0,1,10.16-13.74q5.66-5.2,10.55-5.2,5.89,0,5.9,6.08a24,24,0,0,1-.61,4.81l-3.49,16.3a32.4,32.4,0,0,0-.83,5,1.87,1.87,0,0,0,2.13,2.1q3.58,0,10.74-7.34l-.68,3.11q-7.85,7.83-14.13,7.84-5.17,0-5.18-5a31.82,31.82,0,0,1,.86-5.67l3.5-16.35a14.73,14.73,0,0,0,.43-3.2c0-1.8-.72-2.71-2.16-2.71q-6.87,0-19.06,20.21L414.8,70.51Z" transform="translate(-32.5 -12)"/><path class="cls-1" d="M172.82,308.09" transform="translate(-32.5 -12)"/><line class="cls-3" x1="46.36" y1="241.1" x2="46.36" y2="410.67"/><rect class="cls-4" x="44.61" y="241.1" width="3.51" height="169.56"/><path class="cls-5" d="M72.68,569.83h-.5L43.65,584.14l-4.29-15.72L75.21,550.6H94.14V703.05H72.68Z" transform="translate(-32.5 -12)"/><path class="cls-5" d="M202.19,569.83h-.51l-28.53,14.31-4.29-15.72,35.85-17.82h18.93V703.05H202.19Z" transform="translate(-32.5 -12)"/><path class="cls-5" d="M302.43,607.64l13.38,33.53c1.38,3.75,2.9,8.21,3.91,11.61H320c1.14-3.4,2.4-7.74,3.91-11.85L336,607.64h11.73l-16.65,40.45c-8,19.46-13.38,29.42-20.95,35.52a30.88,30.88,0,0,1-13.63,6.68l-2.78-8.67a30,30,0,0,0,9.72-5,31.9,31.9,0,0,0,9.34-11.49,7.16,7.16,0,0,0,.88-2.47,8.38,8.38,0,0,0-.76-2.69l-22.59-52.29Z" transform="translate(-32.5 -12)"/><path class="cls-5" d="M362.76,637.89c.25,14,9.85,19.69,20.95,19.69,8,0,12.75-1.29,16.91-2.93l1.9,7.39c-3.92,1.64-10.6,3.52-20.32,3.52-18.81,0-30-11.49-30-28.61s10.85-30.6,28.65-30.6c19.94,0,25.24,16.29,25.24,26.73a35.65,35.65,0,0,1-.38,4.81Zm32.56-7.39c.13-6.57-2.9-16.76-15.4-16.76-11.23,0-16.15,9.61-17,16.76Z" transform="translate(-32.5 -12)"/><path class="cls-5" d="M453.64,664.38l-.89-7.15h-.37c-3.41,4.46-10,8.44-18.68,8.44-12.37,0-18.68-8.09-18.68-16.29,0-13.72,13.12-21.22,36.72-21.11V627.1c0-4.69-1.38-13.13-13.88-13.13a32.15,32.15,0,0,0-15.9,4.22l-2.52-6.8c5-3,12.36-5,20.06-5,18.68,0,23.23,11.84,23.23,23.21v21.22a74.05,74.05,0,0,0,1,13.6Zm-1.64-29c-12.12-.23-25.88,1.76-25.88,12.78,0,6.69,4.8,9.85,10.48,9.85,7.95,0,13-4.69,14.77-9.49a10.36,10.36,0,0,0,.63-3.29Z" transform="translate(-32.5 -12)"/><path class="cls-5" d="M480.65,625.34c0-6.68-.12-12.43-.5-17.7h9.72l.38,11.14h.5c2.78-7.62,9.47-12.43,16.91-12.43a13.17,13.17,0,0,1,3.16.35v9.73a18.25,18.25,0,0,0-3.79-.35c-7.82,0-13.37,5.51-14.89,13.25a27.3,27.3,0,0,0-.51,4.81v30.24h-11Z" transform="translate(-32.5 -12)"/><path class="cls-5" d="M520.42,653.83a30.6,30.6,0,0,0,14.64,4.1c8.07,0,11.86-3.75,11.86-8.44,0-4.92-3.16-7.62-11.36-10.43-11-3.64-16.15-9.26-16.15-16.06,0-9.15,8-16.65,21.07-16.65a32.27,32.27,0,0,1,15,3.52l-2.77,7.5a25.1,25.1,0,0,0-12.5-3.28c-6.56,0-10.22,3.51-10.22,7.73,0,4.69,3.66,6.8,11.61,9.62,10.6,3.75,16,8.67,16,17.12,0,10-8.33,17-22.85,17a37,37,0,0,1-17.16-3.87Z" transform="translate(-32.5 -12)"/><ellipse class="cls-3" cx="46.36" cy="238.33" rx="10.05" ry="10.58"/><path class="cls-5" d="M108.34,276.27a22.16,22.16,0,0,1,4.38-.41c2.39,0,3.94.44,5.09,1.42a4.19,4.19,0,0,1,1.55,3.46,4.61,4.61,0,0,1-3.14,4.29v.06a5,5,0,0,1,3.83,4.91,5.45,5.45,0,0,1-1.57,3.92c-1.3,1.24-3.39,1.82-6.42,1.82a26,26,0,0,1-3.72-.23Zm2.39,8h2.18c2.53,0,4-1.39,4-3.28,0-2.29-1.65-3.19-4.08-3.19a9.7,9.7,0,0,0-2.12.17Zm0,9.37a11.8,11.8,0,0,0,2,.12c2.49,0,4.77-1,4.77-3.8,0-2.67-2.18-3.78-4.79-3.78h-2Z" transform="translate(-32.5 -12)"/><path class="cls-5" d="M126.27,289.42l-1.93,6.15h-2.48L128.17,276h2.89l6.34,19.56h-2.56l-2-6.15Zm6.09-2-1.82-5.63c-.42-1.27-.69-2.44-1-3.57h0c-.28,1.16-.58,2.35-.94,3.54l-1.82,5.66Z" transform="translate(-32.5 -12)"/><path class="cls-5" d="M148.57,277.57a1.46,1.46,0,0,1-1.54,1.57,1.48,1.48,0,0,1-1.46-1.57,1.51,1.51,0,0,1,1.52-1.59A1.47,1.47,0,0,1,148.57,277.57Zm-2.7,18V281.52h2.43v14.05Z" transform="translate(-32.5 -12)"/><path class="cls-5" d="M152.32,285.32c0-1.45,0-2.64-.11-3.8h2.15l.13,2.32h.06A4.87,4.87,0,0,1,159,281.2c1.84,0,4.71,1.16,4.71,6v8.39h-2.43v-8.1c0-2.26-.79-4.15-3.08-4.15a3.47,3.47,0,0,0-3.25,2.61,3.88,3.88,0,0,0-.17,1.19v8.45h-2.42Z" transform="translate(-32.5 -12)"/><path class="cls-5" d="M183.14,286.4h-7.22v7.05H184v2.12H173.52V276h10v2.12h-7.63v6.18h7.22Z" transform="translate(-32.5 -12)"/><path class="cls-5" d="M196.39,295.05a8.56,8.56,0,0,1-3.83.81c-4,0-6.64-2.87-6.64-7.17s2.81-7.46,7.16-7.46a7.72,7.72,0,0,1,3.36.73l-.55,2a5.38,5.38,0,0,0-2.81-.67c-3.06,0-4.71,2.38-4.71,5.31,0,3.26,2,5.26,4.63,5.26a6.59,6.59,0,0,0,3-.7Z" transform="translate(-32.5 -12)"/><path class="cls-5" d="M211.12,288.43c0,5.19-3.42,7.46-6.64,7.46-3.61,0-6.39-2.79-6.39-7.23,0-4.7,2.92-7.46,6.61-7.46S211.12,284.13,211.12,288.43Zm-10.58.14c0,3.08,1.68,5.4,4.05,5.4s4-2.29,4-5.45c0-2.38-1.13-5.4-4-5.4S200.54,285.9,200.54,288.57Z" transform="translate(-32.5 -12)"/><path class="cls-5" d="M214.17,285.32c0-1.45,0-2.64-.11-3.8h2.15l.14,2.32h.05a4.9,4.9,0,0,1,4.41-2.64c1.85,0,4.71,1.16,4.71,6v8.39H223.1v-8.1c0-2.26-.8-4.15-3.09-4.15a3.48,3.48,0,0,0-3.25,2.61,3.9,3.9,0,0,0-.16,1.19v8.45h-2.43Z" transform="translate(-32.5 -12)"/><path class="cls-5" d="M241.53,288.43c0,5.19-3.42,7.46-6.65,7.46-3.6,0-6.39-2.79-6.39-7.23,0-4.7,2.92-7.46,6.62-7.46S241.53,284.13,241.53,288.43Zm-10.58.14c0,3.08,1.68,5.4,4.05,5.4s4-2.29,4-5.45c0-2.38-1.12-5.4-4-5.4S231,285.9,231,288.57Z" transform="translate(-32.5 -12)"/><path class="cls-5" d="M244.58,285.32c0-1.45,0-2.64-.11-3.8h2.12l.11,2.27h.08A4.56,4.56,0,0,1,251,281.2a4,4,0,0,1,3.77,2.82h.06a5.68,5.68,0,0,1,1.49-1.83,4.37,4.37,0,0,1,2.94-1c1.77,0,4.39,1.22,4.39,6.1v8.27h-2.37v-7.95c0-2.7-.94-4.33-2.9-4.33a3.17,3.17,0,0,0-2.86,2.32,4.46,4.46,0,0,0-.2,1.28v8.68h-2.37v-8.42c0-2.23-.93-3.86-2.78-3.86a3.36,3.36,0,0,0-3,2.56,3.58,3.58,0,0,0-.19,1.24v8.48h-2.37Z" transform="translate(-32.5 -12)"/><path class="cls-5" d="M268.07,281.52l2.92,8.3c.3.93.63,2,.85,2.88h.06c.25-.85.52-1.92.85-2.94l2.65-8.24H278l-3.64,10c-1.73,4.82-2.92,7.29-4.57,8.8a6.37,6.37,0,0,1-3,1.65l-.6-2.14a6.52,6.52,0,0,0,2.12-1.25,7.69,7.69,0,0,0,2-2.85,1.85,1.85,0,0,0,.19-.61,2.28,2.28,0,0,0-.16-.66l-4.94-13Z" transform="translate(-32.5 -12)"/><path class="cls-5" d="M108.13,310.12a19.62,19.62,0,0,1,3.93-.37c2.16,0,3.55.4,4.59,1.28a3.79,3.79,0,0,1,1.38,3.11,4.15,4.15,0,0,1-2.82,3.86v.05a4.47,4.47,0,0,1,3.44,4.41,4.85,4.85,0,0,1-1.41,3.52c-1.16,1.13-3,1.65-5.77,1.65a24.38,24.38,0,0,1-3.34-.21Zm2.15,7.2h2c2.28,0,3.61-1.25,3.61-2.95,0-2.06-1.48-2.87-3.66-2.87a8.66,8.66,0,0,0-1.91.16Zm0,8.43a10.84,10.84,0,0,0,1.81.1c2.23,0,4.28-.86,4.28-3.41s-2-3.4-4.31-3.4h-1.78Z" transform="translate(-32.5 -12)"/><path class="cls-5" d="M122.8,321.57c0,3.11,1.93,4.39,4.11,4.39a7.63,7.63,0,0,0,3.32-.65l.37,1.64a9.23,9.23,0,0,1-4,.78c-3.69,0-5.89-2.55-5.89-6.36s2.13-6.81,5.62-6.81c3.91,0,4.95,3.62,4.95,5.95a10.44,10.44,0,0,1-.07,1.06Zm6.39-1.64c0-1.46-.57-3.73-3-3.73-2.21,0-3.17,2.14-3.35,3.73Z" transform="translate(-32.5 -12)"/><path class="cls-5" d="M134,309h2.18v18.52H134Z" transform="translate(-32.5 -12)"/><path class="cls-5" d="M146.49,327.47l-.17-1.59h-.08a4.39,4.39,0,0,1-3.66,1.88,3.51,3.51,0,0,1-3.67-3.63c0-3.05,2.58-4.72,7.21-4.69v-.27c0-1-.27-2.92-2.73-2.92a5.79,5.79,0,0,0-3.12.94l-.49-1.51a7.15,7.15,0,0,1,3.94-1.12c3.66,0,4.55,2.63,4.55,5.16v4.73a18.5,18.5,0,0,0,.2,3Zm-.32-6.44c-2.38-.06-5.08.39-5.08,2.84a2,2,0,0,0,2.06,2.19A3,3,0,0,0,146,324a2.34,2.34,0,0,0,.13-.73Z" transform="translate(-32.5 -12)"/><path class="cls-5" d="M151.8,318.78c0-1.48,0-2.76-.1-3.94h1.91l.07,2.48h.1a3.63,3.63,0,0,1,3.32-2.76,2.35,2.35,0,0,1,.62.07v2.17a3.25,3.25,0,0,0-.75-.08c-1.53,0-2.62,1.23-2.92,2.95a6.72,6.72,0,0,0-.1,1.07v6.73H151.8Z" transform="translate(-32.5 -12)"/><path class="cls-5" d="M169.93,324c0,1.3,0,2.45.1,3.44H168.1l-.12-2.06h0a4.49,4.49,0,0,1-4,2.35c-1.89,0-4.14-1.1-4.14-5.53v-7.39H162v7c0,2.4.69,4,2.67,4a3.18,3.18,0,0,0,2.88-2.08,3.65,3.65,0,0,0,.2-1.18v-7.75h2.17Z" transform="translate(-32.5 -12)"/><path class="cls-5" d="M173.26,325.12a5.5,5.5,0,0,0,2.88.92c1.58,0,2.32-.84,2.32-1.88s-.62-1.7-2.22-2.32c-2.16-.81-3.18-2.07-3.18-3.58,0-2,1.56-3.7,4.14-3.7a5.75,5.75,0,0,1,3,.78L179.6,317a4.41,4.41,0,0,0-2.45-.73,1.78,1.78,0,0,0-2,1.72c0,1,.72,1.51,2.28,2.14,2.09.83,3.15,1.93,3.15,3.81,0,2.22-1.63,3.78-4.48,3.78a6.56,6.56,0,0,1-3.37-.86Z" transform="translate(-32.5 -12)"/><path class="cls-5" d="M183.08,325.12A5.43,5.43,0,0,0,186,326c1.59,0,2.33-.84,2.33-1.88s-.62-1.7-2.23-2.32c-2.16-.81-3.17-2.07-3.17-3.58,0-2,1.56-3.7,4.14-3.7a5.71,5.71,0,0,1,2.94.78l-.54,1.67a4.44,4.44,0,0,0-2.45-.73,1.78,1.78,0,0,0-2,1.72c0,1,.72,1.51,2.28,2.14,2.08.83,3.15,1.93,3.15,3.81,0,2.22-1.64,3.78-4.49,3.78a6.59,6.59,0,0,1-3.37-.86Z" transform="translate(-32.5 -12)"/><path class="cls-5" d="M195.62,311.29a1.35,1.35,0,1,1-2.7,0,1.37,1.37,0,0,1,1.36-1.43A1.33,1.33,0,0,1,195.62,311.29Zm-2.43,16.18V314.84h2.18v12.63Z" transform="translate(-32.5 -12)"/><path class="cls-5" d="M205.63,327.47l-.17-1.59h-.08a4.4,4.4,0,0,1-3.66,1.88,3.51,3.51,0,0,1-3.67-3.63c0-3.05,2.57-4.72,7.21-4.69v-.27c0-1-.27-2.92-2.73-2.92a5.79,5.79,0,0,0-3.12.94l-.49-1.51a7.12,7.12,0,0,1,3.93-1.12c3.67,0,4.56,2.63,4.56,5.16v4.73a18.5,18.5,0,0,0,.2,3Zm-.32-6.44c-2.38-.06-5.08.39-5.08,2.84a2,2,0,0,0,2.06,2.19,3,3,0,0,0,2.89-2.11,2.34,2.34,0,0,0,.13-.73Z" transform="translate(-32.5 -12)"/><path class="cls-5" d="M210.94,318.26c0-1.3,0-2.37-.1-3.42h1.93l.12,2.09h.05a4.4,4.4,0,0,1,4-2.37c1.66,0,4.23,1,4.23,5.37v7.54H219v-7.28c0-2-.72-3.73-2.77-3.73a3.14,3.14,0,0,0-2.93,2.35,3.8,3.8,0,0,0-.14,1.07v7.59h-2.18Z" transform="translate(-32.5 -12)"/><path class="cls-5" d="M238.67,319.23h-6.49v6.34h7.23v1.9H230V309.88h9v1.91h-6.86v5.56h6.49Z" transform="translate(-32.5 -12)"/><path class="cls-5" d="M250.59,327a7.58,7.58,0,0,1-3.44.73c-3.62,0-6-2.58-6-6.44s2.52-6.71,6.44-6.71a7.07,7.07,0,0,1,3,.65l-.5,1.78a4.75,4.75,0,0,0-2.52-.6c-2.75,0-4.24,2.14-4.24,4.77,0,2.93,1.78,4.73,4.16,4.73a5.91,5.91,0,0,0,2.68-.63Z" transform="translate(-32.5 -12)"/><path class="cls-5" d="M263.85,321.05c0,4.67-3.07,6.71-6,6.71-3.25,0-5.75-2.51-5.75-6.5,0-4.22,2.63-6.7,5.95-6.7S263.85,317.19,263.85,321.05Zm-9.51.13c0,2.77,1.51,4.86,3.64,4.86s3.64-2.06,3.64-4.91c0-2.14-1-4.85-3.59-4.85S254.34,318.78,254.34,321.18Z" transform="translate(-32.5 -12)"/><path class="cls-5" d="M266.61,318.26c0-1.3,0-2.37-.1-3.42h1.93l.12,2.09h.05a4.38,4.38,0,0,1,4-2.37c1.67,0,4.24,1,4.24,5.37v7.54h-2.18v-7.28c0-2-.72-3.73-2.77-3.73a3.13,3.13,0,0,0-2.93,2.35,3.46,3.46,0,0,0-.15,1.07v7.59h-2.17Z" transform="translate(-32.5 -12)"/><path class="cls-5" d="M291.21,321.05c0,4.67-3.07,6.71-6,6.71-3.24,0-5.75-2.51-5.75-6.5,0-4.22,2.63-6.7,5.95-6.7S291.21,317.19,291.21,321.05Zm-9.51.13c0,2.77,1.51,4.86,3.64,4.86S289,324,289,321.13c0-2.14-1-4.85-3.59-4.85S281.7,318.78,281.7,321.18Z" transform="translate(-32.5 -12)"/><path class="cls-5" d="M294,318.26c0-1.3,0-2.37-.1-3.42h1.91l.1,2H296a4.11,4.11,0,0,1,3.77-2.32,3.56,3.56,0,0,1,3.39,2.53h.05a5,5,0,0,1,1.34-1.65,4,4,0,0,1,2.65-.88c1.58,0,3.94,1.09,3.94,5.47v7.44H309v-7.15c0-2.42-.85-3.89-2.6-3.89a2.86,2.86,0,0,0-2.58,2.09,4,4,0,0,0-.17,1.15v7.8h-2.14V319.9c0-2-.84-3.47-2.5-3.47a3,3,0,0,0-2.7,2.3,3.41,3.41,0,0,0-.17,1.12v7.62H294Z" transform="translate(-32.5 -12)"/><path class="cls-5" d="M317.07,311.29a1.35,1.35,0,1,1-2.7,0,1.37,1.37,0,0,1,1.36-1.43A1.33,1.33,0,0,1,317.07,311.29Zm-2.43,16.18V314.84h2.18v12.63Z" transform="translate(-32.5 -12)"/><path class="cls-5" d="M329,327a7.63,7.63,0,0,1-3.45.73c-3.61,0-6-2.58-6-6.44s2.53-6.71,6.44-6.71a7.08,7.08,0,0,1,3,.65l-.5,1.78a4.79,4.79,0,0,0-2.53-.6c-2.75,0-4.23,2.14-4.23,4.77,0,2.93,1.78,4.73,4.16,4.73a5.83,5.83,0,0,0,2.67-.63Z" transform="translate(-32.5 -12)"/><path class="cls-5" d="M110.28,341.79V352.2c0,3.94,1.66,5.61,3.89,5.61,2.48,0,4.06-1.73,4.06-5.61V341.79h2.18V352c0,5.4-2.7,7.62-6.31,7.62-3.42,0-6-2.06-6-7.52V341.79Z" transform="translate(-32.5 -12)"/><path class="cls-5" d="M124.09,350.16c0-1.3,0-2.37-.1-3.42h1.93l.12,2.09h0a4.4,4.4,0,0,1,4-2.37c1.66,0,4.23,1,4.23,5.37v7.54h-2.18v-7.28c0-2-.71-3.73-2.77-3.73a3.12,3.12,0,0,0-2.92,2.35,3.46,3.46,0,0,0-.15,1.07v7.59h-2.18Z" transform="translate(-32.5 -12)"/><path class="cls-5" d="M140.27,343.19a1.32,1.32,0,0,1-1.39,1.41,1.33,1.33,0,0,1-1.31-1.41,1.37,1.37,0,0,1,1.36-1.43A1.33,1.33,0,0,1,140.27,343.19Zm-2.43,16.18V346.74H140v12.63Z" transform="translate(-32.5 -12)"/><path class="cls-5" d="M144.49,346.74l2.35,7.1a33.14,33.14,0,0,1,1,3.24h.07c.27-1.05.62-2.09,1-3.24l2.32-7.1h2.28l-4.7,12.63h-2.09l-4.55-12.63Z" transform="translate(-32.5 -12)"/><path class="cls-5" d="M156.53,353.47c.05,3.11,1.93,4.39,4.11,4.39a7.57,7.57,0,0,0,3.32-.65l.37,1.64a9.18,9.18,0,0,1-4,.78c-3.69,0-5.9-2.55-5.9-6.36s2.13-6.81,5.62-6.81c3.92,0,5,3.62,5,6a7.64,7.64,0,0,1-.08,1.06Zm6.39-1.64c0-1.46-.57-3.73-3-3.73-2.2,0-3.17,2.14-3.34,3.73Z" transform="translate(-32.5 -12)"/><path class="cls-5" d="M167.74,350.68c0-1.48,0-2.76-.1-3.94h1.9l.08,2.48h.1a3.63,3.63,0,0,1,3.32-2.76,2.4,2.4,0,0,1,.62.07v2.17a3.32,3.32,0,0,0-.75-.08c-1.53,0-2.62,1.23-2.92,2.95a6.72,6.72,0,0,0-.1,1.07v6.73h-2.15Z" transform="translate(-32.5 -12)"/><path class="cls-5" d="M175.54,357a5.5,5.5,0,0,0,2.88.92c1.58,0,2.32-.84,2.32-1.88s-.61-1.7-2.22-2.32c-2.16-.81-3.17-2.07-3.17-3.58,0-2,1.55-3.7,4.13-3.7a5.72,5.72,0,0,1,3,.78l-.55,1.67a4.5,4.5,0,0,0-2.45-.73,1.77,1.77,0,0,0-2,1.72c0,1,.71,1.51,2.27,2.14,2.09.84,3.15,1.93,3.15,3.81,0,2.22-1.63,3.78-4.48,3.78a6.56,6.56,0,0,1-3.37-.86Z" transform="translate(-32.5 -12)"/><path class="cls-5" d="M188.08,343.19a1.31,1.31,0,0,1-1.38,1.41,1.33,1.33,0,0,1-1.32-1.41,1.37,1.37,0,0,1,1.37-1.43A1.33,1.33,0,0,1,188.08,343.19Zm-2.43,16.18V346.74h2.18v12.63Z" transform="translate(-32.5 -12)"/><path class="cls-5" d="M194.08,343.12v3.62h3.12v1.75h-3.12v6.81c0,1.57.42,2.45,1.64,2.45a4.56,4.56,0,0,0,1.26-.15l.1,1.72a5.15,5.15,0,0,1-1.93.31,3,3,0,0,1-2.36-1,4.86,4.86,0,0,1-.84-3.29v-6.89h-1.86v-1.75H192v-3Z" transform="translate(-32.5 -12)"/><path class="cls-5" d="M200.67,346.74l2.63,7.47c.27.83.57,1.82.77,2.58h.05c.22-.76.47-1.72.77-2.64l2.37-7.41h2.31l-3.27,9c-1.56,4.33-2.63,6.55-4.11,7.9a5.94,5.94,0,0,1-2.68,1.49l-.54-1.93a5.69,5.69,0,0,0,1.9-1.12,7,7,0,0,0,1.84-2.56,1.71,1.71,0,0,0,.17-.55,2.1,2.1,0,0,0-.15-.6l-4.43-11.64Z" transform="translate(-32.5 -12)"/><path class="cls-5" d="M112.09,376.45h0l-2.8,1.59-.42-1.74,3.52-2h1.85v17h-2.1Z" transform="translate(-32.5 -12)"/><path class="cls-5" d="M121.34,389.66a8.6,8.6,0,0,0,1.75-.08,5.86,5.86,0,0,0,3.37-1.65,7.48,7.48,0,0,0,2.13-4.51h-.07a4.63,4.63,0,0,1-3.79,1.83c-2.9,0-4.76-2.3-4.76-5.2,0-3.21,2.21-6,5.5-6s5.33,2.81,5.33,7.15c0,3.73-1.19,6.34-2.78,7.95a7.8,7.8,0,0,1-4.68,2.27,9.34,9.34,0,0,1-2,.13Zm.79-9.76c0,2.11,1.21,3.6,3.1,3.6a3.56,3.56,0,0,0,3.17-1.78,1.59,1.59,0,0,0,.19-.83c0-2.9-1-5.11-3.29-5.11C123.44,375.78,122.13,377.5,122.13,379.9Z" transform="translate(-32.5 -12)"/><path class="cls-5" d="M134.05,389.66a8.7,8.7,0,0,0,1.76-.08,5.92,5.92,0,0,0,3.37-1.65,7.6,7.6,0,0,0,2.13-4.51h-.08a4.61,4.61,0,0,1-3.79,1.83c-2.89,0-4.75-2.3-4.75-5.2,0-3.21,2.2-6,5.5-6s5.32,2.81,5.32,7.15c0,3.73-1.19,6.34-2.77,7.95a7.83,7.83,0,0,1-4.68,2.27,9.47,9.47,0,0,1-2,.13Zm.79-9.76c0,2.11,1.22,3.6,3.1,3.6a3.56,3.56,0,0,0,3.17-1.78,1.59,1.59,0,0,0,.2-.83c0-2.9-1-5.11-3.3-5.11C136.16,375.78,134.84,377.5,134.84,379.9Z" transform="translate(-32.5 -12)"/><path class="cls-5" d="M145.3,387a4.84,4.84,0,0,1,3.2-4.54l0-.08a4.21,4.21,0,0,1-2.55-3.81c0-2.69,2.16-4.51,5-4.51,3.12,0,4.68,2.06,4.68,4.17a4.3,4.3,0,0,1-2.65,4v.08a4.66,4.66,0,0,1,3.25,4.38c0,2.95-2.4,4.93-5.47,4.93C147.34,391.56,145.3,389.45,145.3,387Zm8.67-.11c0-2.06-1.36-3.05-3.54-3.7a3.64,3.64,0,0,0-2.9,3.5,3.06,3.06,0,0,0,3.22,3.23A3,3,0,0,0,154,386.86Zm-6-8.48c0,1.7,1.21,2.61,3.07,3.14a3.3,3.3,0,0,0,2.45-3.08,2.57,2.57,0,0,0-2.72-2.77A2.62,2.62,0,0,0,148,378.38Z" transform="translate(-32.5 -12)"/><line class="cls-3" x1="315.52" y1="243.61" x2="315.52" y2="409.81"/><rect class="cls-4" x="313.77" y="243.61" width="3.51" height="166.2"/><ellipse class="cls-3" cx="315.52" cy="238.06" rx="10.05" ry="10.58"/><path class="cls-5" d="M366.84,279.94a28.06,28.06,0,0,1,5-.41c2.75,0,4.51.44,5.84,1.43a4.07,4.07,0,0,1,1.77,3.49c0,1.91-1.36,3.58-3.6,4.34v.06c2,.47,4.39,2,4.39,5a5.18,5.18,0,0,1-1.8,4c-1.49,1.26-3.89,1.84-7.36,1.84a34.27,34.27,0,0,1-4.26-.23Zm2.75,8.09h2.49c2.9,0,4.61-1.41,4.61-3.31,0-2.32-1.89-3.23-4.67-3.23a12.38,12.38,0,0,0-2.43.18Zm0,9.47a15.3,15.3,0,0,0,2.3.12c2.84,0,5.46-1,5.46-3.84,0-2.7-2.49-3.81-5.49-3.81h-2.27Z" transform="translate(-32.5 -12)"/><path class="cls-5" d="M387.38,293.22l-2.21,6.22h-2.84l7.23-19.77h3.32l7.26,19.77H397.2l-2.27-6.22Zm7-2-2.08-5.69c-.48-1.29-.79-2.46-1.11-3.61h-.06c-.32,1.17-.66,2.38-1.07,3.58L388,291.23Z" transform="translate(-32.5 -12)"/><path class="cls-5" d="M412.94,281.26a1.73,1.73,0,0,1-3.44,0,1.64,1.64,0,0,1,1.74-1.62A1.59,1.59,0,0,1,412.94,281.26Zm-3.09,18.18v-14.2h2.78v14.2Z" transform="translate(-32.5 -12)"/><path class="cls-5" d="M417.23,289.09c0-1.47,0-2.67-.12-3.85h2.46l.16,2.35h.06a5.69,5.69,0,0,1,5-2.67c2.12,0,5.4,1.18,5.4,6v8.48h-2.78v-8.18c0-2.29-.91-4.2-3.53-4.2a3.9,3.9,0,0,0-3.73,2.64,3.4,3.4,0,0,0-.19,1.2v8.54h-2.78Z" transform="translate(-32.5 -12)"/><path class="cls-5" d="M444.53,281.26a1.73,1.73,0,0,1-3.44,0,1.64,1.64,0,0,1,1.73-1.62A1.6,1.6,0,0,1,444.53,281.26Zm-3.09,18.18v-14.2h2.77v14.2Z" transform="translate(-32.5 -12)"/><path class="cls-5" d="M448.82,289.09c0-1.47,0-2.67-.13-3.85h2.47l.15,2.35h.07a5.68,5.68,0,0,1,5.05-2.67c2.11,0,5.4,1.18,5.4,6v8.48h-2.78v-8.18c0-2.29-.92-4.2-3.54-4.2a3.9,3.9,0,0,0-3.72,2.64,3.4,3.4,0,0,0-.19,1.2v8.54h-2.78Z" transform="translate(-32.5 -12)"/><path class="cls-5" d="M469.55,281.17v4.07h4v2h-4v7.65c0,1.76.54,2.76,2.09,2.76a6.54,6.54,0,0,0,1.61-.18l.12,1.94a7.39,7.39,0,0,1-2.46.35,4,4,0,0,1-3-1.08c-.79-.77-1.07-2-1.07-3.7v-7.74h-2.37v-2h2.37v-3.4Z" transform="translate(-32.5 -12)"/><path class="cls-5" d="M478,292.81c.06,3.49,2.46,4.93,5.24,4.93a10.69,10.69,0,0,0,4.23-.74l.47,1.85a13.16,13.16,0,0,1-5.08.88c-4.7,0-7.51-2.87-7.51-7.15s2.71-7.66,7.17-7.66c5,0,6.31,4.08,6.31,6.69a7.56,7.56,0,0,1-.1,1.2Zm8.14-1.85c0-1.64-.72-4.19-3.85-4.19-2.81,0-4,2.4-4.26,4.19Z" transform="translate(-32.5 -12)"/><path class="cls-5" d="M492.27,289.67c0-1.67,0-3.11-.12-4.43h2.43l.09,2.79h.13a4.53,4.53,0,0,1,4.23-3.11,3.18,3.18,0,0,1,.79.09v2.43a5.27,5.27,0,0,0-.95-.08,3.77,3.77,0,0,0-3.72,3.31,6.12,6.12,0,0,0-.13,1.2v7.57h-2.75Z" transform="translate(-32.5 -12)"/><path class="cls-5" d="M502.72,289.09c0-1.47,0-2.67-.13-3.85h2.46l.16,2.35h.06a5.7,5.7,0,0,1,5.05-2.67c2.12,0,5.4,1.18,5.4,6v8.48h-2.78v-8.18c0-2.29-.91-4.2-3.53-4.2a3.92,3.92,0,0,0-3.73,2.64,3.64,3.64,0,0,0-.19,1.2v8.54h-2.77Z" transform="translate(-32.5 -12)"/><path class="cls-5" d="M528.69,299.44l-.22-1.79h-.09a5.88,5.88,0,0,1-4.68,2.11c-3.09,0-4.67-2-4.67-4.08,0-3.43,3.28-5.3,9.19-5.27v-.3c0-1.17-.35-3.28-3.47-3.28a8.07,8.07,0,0,0-4,1.05l-.63-1.7a10,10,0,0,1,5-1.26c4.68,0,5.81,3,5.81,5.81V296a18.51,18.51,0,0,0,.26,3.4Zm-.41-7.25c-3-.05-6.47.45-6.47,3.2a2.38,2.38,0,0,0,2.62,2.46,3.78,3.78,0,0,0,3.69-2.37,2.43,2.43,0,0,0,.16-.82Z" transform="translate(-32.5 -12)"/><path class="cls-5" d="M538.66,281.17v4.07h4v2h-4v7.65c0,1.76.54,2.76,2.08,2.76a6.57,6.57,0,0,0,1.62-.18l.12,1.94a7.43,7.43,0,0,1-2.46.35,4,4,0,0,1-3-1.08c-.79-.77-1.07-2-1.07-3.7v-7.74h-2.37v-2H536v-3.4Z" transform="translate(-32.5 -12)"/><path class="cls-5" d="M548.85,281.26a1.58,1.58,0,0,1-1.76,1.58,1.6,1.6,0,0,1-1.68-1.58,1.64,1.64,0,0,1,1.74-1.62A1.59,1.59,0,0,1,548.85,281.26Zm-3.09,18.18v-14.2h2.78v14.2Z" transform="translate(-32.5 -12)"/><path class="cls-5" d="M567,292.22c0,5.25-3.91,7.54-7.61,7.54a7,7,0,0,1-7.32-7.3c0-4.75,3.35-7.54,7.58-7.54A7,7,0,0,1,567,292.22Zm-12.12.15c0,3.11,1.92,5.45,4.64,5.45s4.64-2.31,4.64-5.51c0-2.4-1.29-5.45-4.58-5.45S554.85,289.67,554.85,292.37Z" transform="translate(-32.5 -12)"/><path class="cls-5" d="M570.47,289.09c0-1.47,0-2.67-.13-3.85h2.46l.16,2.35H573a5.68,5.68,0,0,1,5.05-2.67c2.11,0,5.39,1.18,5.39,6v8.48H580.7v-8.18c0-2.29-.92-4.2-3.54-4.2a3.9,3.9,0,0,0-3.72,2.64,3.4,3.4,0,0,0-.19,1.2v8.54h-2.78Z" transform="translate(-32.5 -12)"/><path class="cls-5" d="M596.44,299.44l-.22-1.79h-.09a5.88,5.88,0,0,1-4.67,2.11c-3.1,0-4.68-2-4.68-4.08,0-3.43,3.29-5.3,9.19-5.27v-.3c0-1.17-.35-3.28-3.47-3.28a8.1,8.1,0,0,0-4,1.05l-.63-1.7a10,10,0,0,1,5-1.26c4.67,0,5.81,3,5.81,5.81V296a18.56,18.56,0,0,0,.25,3.4Zm-.41-7.25c-3-.05-6.47.45-6.47,3.2a2.38,2.38,0,0,0,2.62,2.46,3.78,3.78,0,0,0,3.69-2.37,2.43,2.43,0,0,0,.16-.82Z" transform="translate(-32.5 -12)"/><path class="cls-5" d="M603.19,278.62H606v20.82h-2.78Z" transform="translate(-32.5 -12)"/><path class="cls-5" d="M366.75,324.92c0-1.47,0-2.67-.13-3.85h2.43l.13,2.29h.09a5.32,5.32,0,0,1,4.8-2.61,4.49,4.49,0,0,1,4.32,2.85h.07a5.88,5.88,0,0,1,1.7-1.85,5.47,5.47,0,0,1,3.38-1c2,0,5,1.23,5,6.16v8.36h-2.72v-8c0-2.73-1.07-4.37-3.31-4.37a3.56,3.56,0,0,0-3.28,2.35,3.86,3.86,0,0,0-.23,1.29v8.77h-2.71v-8.51c0-2.26-1.07-3.9-3.19-3.9a3.75,3.75,0,0,0-3.44,2.58,3.28,3.28,0,0,0-.22,1.26v8.57h-2.71Z" transform="translate(-32.5 -12)"/><path class="cls-5" d="M401.52,335.27l-.22-1.79h-.09a5.88,5.88,0,0,1-4.68,2.11c-3.09,0-4.67-2-4.67-4.08,0-3.43,3.29-5.3,9.19-5.28v-.29c0-1.17-.35-3.28-3.47-3.28a8.1,8.1,0,0,0-4,1L393,322a10,10,0,0,1,5-1.26c4.67,0,5.81,3,5.81,5.81v5.3a18.61,18.61,0,0,0,.25,3.41Zm-.41-7.25c-3-.06-6.47.44-6.47,3.2a2.38,2.38,0,0,0,2.62,2.46,3.78,3.78,0,0,0,3.69-2.37,2.43,2.43,0,0,0,.16-.82Z" transform="translate(-32.5 -12)"/><path class="cls-5" d="M408.27,325.5c0-1.67,0-3.11-.12-4.43h2.43l.09,2.79h.13a4.53,4.53,0,0,1,4.23-3.11,3.24,3.24,0,0,1,.79.09v2.43a4.49,4.49,0,0,0-.95-.08,3.77,3.77,0,0,0-3.72,3.31,6.12,6.12,0,0,0-.13,1.2v7.57h-2.75Z" transform="translate(-32.5 -12)"/><path class="cls-5" d="M421.46,327.58h.07c.38-.49.91-1.11,1.35-1.61l4.49-4.9h3.34l-5.9,5.84,6.72,8.36h-3.37l-5.28-6.81-1.42,1.47v5.34h-2.74V314.45h2.74Z" transform="translate(-32.5 -12)"/><path class="cls-5" d="M435.06,328.64c.07,3.49,2.47,4.93,5.24,4.93a10.79,10.79,0,0,0,4.24-.74l.47,1.85a13.2,13.2,0,0,1-5.08.88c-4.71,0-7.52-2.88-7.52-7.15s2.72-7.66,7.17-7.66c5,0,6.31,4.08,6.31,6.69a9.7,9.7,0,0,1-.09,1.2Zm8.15-1.85c0-1.64-.73-4.19-3.85-4.19-2.81,0-4,2.4-4.26,4.19Z" transform="translate(-32.5 -12)"/><path class="cls-5" d="M452.67,317v4.07h4v2h-4v7.65c0,1.76.54,2.76,2.09,2.76a6.54,6.54,0,0,0,1.61-.18l.12,1.94a7.39,7.39,0,0,1-2.46.35,4,4,0,0,1-3-1.09c-.79-.76-1.07-2-1.07-3.69V323h-2.37v-2H450v-3.4Z" transform="translate(-32.5 -12)"/><path class="cls-5" d="M477.35,334.74a10.93,10.93,0,0,1-4.39.82c-4.61,0-7.6-2.9-7.6-7.24s3.22-7.54,8.2-7.54a9.9,9.9,0,0,1,3.85.73l-.63,2a6.83,6.83,0,0,0-3.22-.68,5.34,5.34,0,1,0-.09,10.68,8.26,8.26,0,0,0,3.41-.71Z" transform="translate(-32.5 -12)"/><path class="cls-5" d="M494.24,328.05c0,5.25-3.92,7.54-7.61,7.54a7,7,0,0,1-7.33-7.3c0-4.75,3.35-7.54,7.58-7.54A7,7,0,0,1,494.24,328.05Zm-12.13.15c0,3.11,1.93,5.45,4.64,5.45s4.64-2.31,4.64-5.51c0-2.4-1.29-5.45-4.57-5.45S482.11,325.5,482.11,328.2Z" transform="translate(-32.5 -12)"/><path class="cls-5" d="M497.73,324.92c0-1.47,0-2.67-.12-3.85H500l.12,2.29h.1a5.32,5.32,0,0,1,4.8-2.61,4.49,4.49,0,0,1,4.32,2.85h.06a6,6,0,0,1,1.71-1.85,5.43,5.43,0,0,1,3.38-1c2,0,5,1.23,5,6.16v8.36h-2.71v-8c0-2.73-1.07-4.37-3.31-4.37a3.58,3.58,0,0,0-3.29,2.35,4.14,4.14,0,0,0-.22,1.29v8.77H507.3v-8.51c0-2.26-1.08-3.9-3.19-3.9a3.74,3.74,0,0,0-3.44,2.58,3.28,3.28,0,0,0-.22,1.26v8.57h-2.72Z" transform="translate(-32.5 -12)"/><path class="cls-5" d="M524.05,324.92c0-1.47,0-2.67-.13-3.85h2.44l.12,2.29h.1a5.32,5.32,0,0,1,4.79-2.61,4.5,4.5,0,0,1,4.33,2.85h.06a5.9,5.9,0,0,1,1.71-1.85,5.42,5.42,0,0,1,3.37-1c2,0,5,1.23,5,6.16v8.36h-2.71v-8c0-2.73-1.08-4.37-3.32-4.37a3.57,3.57,0,0,0-3.28,2.35,3.86,3.86,0,0,0-.22,1.29v8.77h-2.72v-8.51c0-2.26-1.07-3.9-3.18-3.9a3.74,3.74,0,0,0-3.44,2.58,3.28,3.28,0,0,0-.22,1.26v8.57h-2.72Z" transform="translate(-32.5 -12)"/><path class="cls-5" d="M563.15,331.4c0,1.46,0,2.75.13,3.87h-2.46l-.16-2.32h-.06a5.85,5.85,0,0,1-5.05,2.64c-2.4,0-5.28-1.23-5.28-6.22v-8.3h2.78v7.86c0,2.7.88,4.52,3.41,4.52a4,4,0,0,0,3.66-2.35,3.49,3.49,0,0,0,.25-1.32v-8.71h2.78Z" transform="translate(-32.5 -12)"/><path class="cls-5" d="M567.76,324.92c0-1.47,0-2.67-.13-3.85h2.46l.16,2.35h.06a5.7,5.7,0,0,1,5.05-2.67c2.12,0,5.4,1.17,5.4,6v8.48H578v-8.18c0-2.29-.91-4.2-3.53-4.2a3.92,3.92,0,0,0-3.73,2.64,3.6,3.6,0,0,0-.19,1.2v8.54h-2.77Z" transform="translate(-32.5 -12)"/><path class="cls-5" d="M588.36,317.09a1.73,1.73,0,0,1-3.44,0,1.64,1.64,0,0,1,1.74-1.62A1.59,1.59,0,0,1,588.36,317.09Zm-3.09,18.18v-14.2h2.78v14.2Z" transform="translate(-32.5 -12)"/><path class="cls-5" d="M603.54,334.74a10.87,10.87,0,0,1-4.38.82c-4.61,0-7.61-2.9-7.61-7.24s3.22-7.54,8.21-7.54a9.94,9.94,0,0,1,3.85.73l-.64,2a6.82,6.82,0,0,0-3.21-.68,5.34,5.34,0,1,0-.1,10.68,8.26,8.26,0,0,0,3.41-.71Z" transform="translate(-32.5 -12)"/><path class="cls-5" d="M615.25,335.27l-.22-1.79h-.1a5.84,5.84,0,0,1-4.67,2.11c-3.09,0-4.67-2-4.67-4.08,0-3.43,3.28-5.3,9.19-5.28v-.29c0-1.17-.35-3.28-3.48-3.28a8.06,8.06,0,0,0-4,1l-.63-1.7a10,10,0,0,1,5-1.26c4.67,0,5.8,3,5.8,5.81v5.3a18.55,18.55,0,0,0,.26,3.41Zm-.41-7.25c-3-.06-6.47.44-6.47,3.2a2.38,2.38,0,0,0,2.62,2.46,3.78,3.78,0,0,0,3.69-2.37,2.43,2.43,0,0,0,.16-.82Z" transform="translate(-32.5 -12)"/><path class="cls-5" d="M628.44,326.38v1.91h-7.8v-1.91Z" transform="translate(-32.5 -12)"/><path class="cls-5" d="M370.09,352.83v4.07h4v2h-4v7.65c0,1.76.54,2.76,2.08,2.76a6.57,6.57,0,0,0,1.62-.18l.12,1.94a7.43,7.43,0,0,1-2.46.35,4,4,0,0,1-3-1.09c-.79-.76-1.07-2-1.07-3.69v-7.74H365v-2h2.37v-3.4Z" transform="translate(-32.5 -12)"/><path class="cls-5" d="M380.28,352.91a1.58,1.58,0,0,1-1.76,1.59,1.6,1.6,0,0,1-1.68-1.59,1.64,1.64,0,0,1,1.74-1.61A1.59,1.59,0,0,1,380.28,352.91Zm-3.09,18.18V356.9H380v14.19Z" transform="translate(-32.5 -12)"/><path class="cls-5" d="M398.4,363.88c0,5.25-3.91,7.54-7.61,7.54a7,7,0,0,1-7.32-7.3c0-4.75,3.35-7.54,7.58-7.54A7,7,0,0,1,398.4,363.88Zm-12.12.15c0,3.11,1.92,5.45,4.64,5.45s4.64-2.32,4.64-5.51c0-2.4-1.3-5.46-4.58-5.46S386.28,361.33,386.28,364Z" transform="translate(-32.5 -12)"/><path class="cls-5" d="M401.9,360.74c0-1.46,0-2.66-.13-3.84h2.46l.16,2.35h.06a5.71,5.71,0,0,1,5.06-2.67c2.11,0,5.39,1.17,5.39,6v8.47h-2.77v-8.18c0-2.28-.92-4.19-3.54-4.19a3.9,3.9,0,0,0-3.72,2.64,3.36,3.36,0,0,0-.19,1.2v8.53H401.9Z" transform="translate(-32.5 -12)"/><path class="cls-5" d="M366.43,407l2-2.58a10.21,10.21,0,0,1-2.81-7.3c0-6.25,4.26-10.32,9.81-10.32a9.38,9.38,0,0,1,5.31,1.55l1.86-2.37,1.67,1.05-2,2.52a10.25,10.25,0,0,1,2.74,7.28c0,6.89-4.57,10.38-9.66,10.38a9.5,9.5,0,0,1-5.39-1.59l-2,2.52Zm12.91-16.77a6.27,6.27,0,0,0-4-1.38c-4.64,0-7,4-7,8.12a9.45,9.45,0,0,0,1.58,5.31l0,0Zm-8,13.52a5.69,5.69,0,0,0,4,1.4c4.45,0,6.91-3.78,6.91-8.24a9.17,9.17,0,0,0-1.48-5.13h-.1Z" transform="translate(-32.5 -12)"/><path class="cls-5" d="M388.11,404.29a7.77,7.77,0,0,0,3.66,1c2,0,3-.94,3-2.11s-.79-1.91-2.84-2.61c-2.75-.91-4-2.32-4-4,0-2.29,2-4.16,5.27-4.16a8,8,0,0,1,3.75.88l-.69,1.88a6.18,6.18,0,0,0-3.13-.83c-1.64,0-2.55.88-2.55,1.94s.91,1.7,2.9,2.4c2.65.94,4,2.17,4,4.28,0,2.5-2.08,4.26-5.71,4.26a9.23,9.23,0,0,1-4.3-1Z" transform="translate(-32.5 -12)"/><path class="cls-5" d="M404.33,388.65v4.08h4v2h-4v7.65c0,1.76.54,2.76,2.08,2.76a6.41,6.41,0,0,0,1.61-.18l.13,1.93a7.14,7.14,0,0,1-2.46.36,4,4,0,0,1-3-1.09c-.79-.76-1.07-2-1.07-3.69V394.7h-2.37v-2h2.37v-3.4Z" transform="translate(-32.5 -12)"/><path class="cls-5" d="M411.71,406.92V394.7h-2.14v-2h2.14v-.67a6.41,6.41,0,0,1,1.77-5,5.55,5.55,0,0,1,3.73-1.32,6.92,6.92,0,0,1,2.36.41l-.37,2a4.38,4.38,0,0,0-1.77-.33c-2.37,0-3,1.94-3,4.11v.76h3.69v2h-3.69v12.22Z" transform="translate(-32.5 -12)"/><path class="cls-5" d="M434.06,399.71c0,5.25-3.91,7.54-7.61,7.54a7,7,0,0,1-7.32-7.31c0-4.75,3.35-7.53,7.58-7.53A7,7,0,0,1,434.06,399.71Zm-12.12.15c0,3.1,1.92,5.45,4.64,5.45s4.64-2.32,4.64-5.51c0-2.41-1.3-5.46-4.58-5.46S421.94,397.16,421.94,399.86Z" transform="translate(-32.5 -12)"/><path class="cls-5" d="M437.56,386.1h2.78v20.82h-2.78Z" transform="translate(-32.5 -12)"/><path class="cls-5" d="M458.2,386.1v17.16c0,1.26,0,2.7.13,3.66h-2.5l-.12-2.46h-.07a5.73,5.73,0,0,1-5.21,2.79c-3.69,0-6.53-2.91-6.53-7.22,0-4.72,3.13-7.62,6.85-7.62a5.22,5.22,0,0,1,4.61,2.17h.06V386.1Zm-2.78,12.41a4.55,4.55,0,0,0-.12-1.09,4,4,0,0,0-4-3c-2.88,0-4.58,2.35-4.58,5.48,0,2.88,1.52,5.25,4.51,5.25a4.12,4.12,0,0,0,4.08-3.07,4.48,4.48,0,0,0,.12-1.12Z" transform="translate(-32.5 -12)"/><path class="cls-5" d="M472.33,387.16v11.7c0,4.43,2.12,6.3,5,6.3,3.16,0,5.18-1.93,5.18-6.3v-11.7h2.77v11.52c0,6.07-3.44,8.57-8,8.57-4.36,0-7.64-2.32-7.64-8.45V387.16Z" transform="translate(-32.5 -12)"/><path class="cls-5" d="M489.91,396.57c0-1.46,0-2.67-.13-3.84h2.46l.16,2.35h.07a5.68,5.68,0,0,1,5-2.67c2.11,0,5.39,1.17,5.39,6v8.47h-2.77v-8.18c0-2.28-.92-4.19-3.54-4.19a3.9,3.9,0,0,0-3.72,2.64,3.36,3.36,0,0,0-.19,1.2v8.53h-2.78Z" transform="translate(-32.5 -12)"/><path class="cls-5" d="M510.52,388.74a1.73,1.73,0,0,1-3.44,0,1.63,1.63,0,0,1,1.73-1.61A1.59,1.59,0,0,1,510.52,388.74Zm-3.1,18.18V392.73h2.78v14.19Z" transform="translate(-32.5 -12)"/><path class="cls-5" d="M515.88,392.73l3,8a37.09,37.09,0,0,1,1.23,3.63h.1c.34-1.17.78-2.34,1.29-3.63l3-8h2.9l-6,14.19h-2.65l-5.81-14.19Z" transform="translate(-32.5 -12)"/><path class="cls-5" d="M531.22,400.3c.06,3.49,2.46,4.92,5.24,4.92a10.76,10.76,0,0,0,4.23-.73l.47,1.85a13.2,13.2,0,0,1-5.08.88c-4.71,0-7.51-2.88-7.51-7.16s2.71-7.65,7.16-7.65c5,0,6.31,4.07,6.31,6.68a9.73,9.73,0,0,1-.09,1.21Zm8.14-1.85c0-1.64-.73-4.19-3.85-4.19-2.81,0-4,2.4-4.26,4.19Z" transform="translate(-32.5 -12)"/><path class="cls-5" d="M545.48,397.16c0-1.67,0-3.11-.13-4.43h2.43l.1,2.79H548a4.54,4.54,0,0,1,4.23-3.11,3.12,3.12,0,0,1,.79.09v2.43a4.31,4.31,0,0,0-.95-.09,3.79,3.79,0,0,0-3.72,3.32,7,7,0,0,0-.13,1.2v7.56h-2.74Z" transform="translate(-32.5 -12)"/><path class="cls-5" d="M555.42,404.29a7.77,7.77,0,0,0,3.66,1c2,0,3-.94,3-2.11s-.79-1.91-2.84-2.61c-2.75-.91-4-2.32-4-4,0-2.29,2-4.16,5.27-4.16a8.06,8.06,0,0,1,3.75.88l-.69,1.88a6.21,6.21,0,0,0-3.13-.83c-1.64,0-2.55.88-2.55,1.94s.91,1.7,2.9,2.4c2.65.94,4,2.17,4,4.28,0,2.5-2.08,4.26-5.71,4.26a9.23,9.23,0,0,1-4.3-1Z" transform="translate(-32.5 -12)"/><path class="cls-5" d="M571.39,388.74a1.73,1.73,0,0,1-3.44,0,1.63,1.63,0,0,1,1.73-1.61A1.59,1.59,0,0,1,571.39,388.74Zm-3.1,18.18V392.73h2.78v14.19Z" transform="translate(-32.5 -12)"/><path class="cls-5" d="M579,388.65v4.08h4v2h-4v7.65c0,1.76.54,2.76,2.09,2.76a6.54,6.54,0,0,0,1.61-.18l.12,1.93a7.09,7.09,0,0,1-2.46.36,4,4,0,0,1-3-1.09c-.79-.76-1.07-2-1.07-3.69V394.7h-2.37v-2h2.37v-3.4Z" transform="translate(-32.5 -12)"/><path class="cls-5" d="M587.42,392.73l3.34,8.39c.35.94.73,2.05,1,2.9h.06c.29-.85.6-1.93,1-3l3-8.33h2.94l-4.17,10.12c-2,4.87-3.34,7.36-5.24,8.88a7.59,7.59,0,0,1-3.41,1.67l-.69-2.17a7.36,7.36,0,0,0,2.43-1.26A7.91,7.91,0,0,0,590,407.1a1.85,1.85,0,0,0,.22-.62,2.33,2.33,0,0,0-.19-.67l-5.65-13.08Z" transform="translate(-32.5 -12)"/><path class="cls-5" d="M614,82.17a34.93,34.93,0,0,1,5.27-.38c2.72,0,4.71.59,6,1.64a5.15,5.15,0,0,1,1.86,4.14,5.56,5.56,0,0,1-1.64,4.22A9.2,9.2,0,0,1,619,94a9.93,9.93,0,0,1-2.21-.18v7.92H614Zm2.75,9.53a9.68,9.68,0,0,0,2.27.21c3.32,0,5.34-1.5,5.34-4.23s-2-3.87-5-3.87a12.1,12.1,0,0,0-2.59.21Z" transform="translate(-32.5 -12)"/><path class="cls-5" d="M630.2,91.94c0-1.68,0-3.11-.12-4.43h2.43l.09,2.78h.13A4.55,4.55,0,0,1,637,87.18a3.81,3.81,0,0,1,.79.09v2.44a4.44,4.44,0,0,0-1-.09,3.79,3.79,0,0,0-3.73,3.31,7.16,7.16,0,0,0-.12,1.2v7.57H630.2Z" transform="translate(-32.5 -12)"/><path class="cls-5" d="M654,94.49c0,5.25-3.91,7.53-7.61,7.53a7,7,0,0,1-7.32-7.3c0-4.75,3.35-7.54,7.58-7.54A7,7,0,0,1,654,94.49Zm-12.12.14c0,3.11,1.92,5.46,4.64,5.46s4.64-2.32,4.64-5.51c0-2.41-1.3-5.46-4.58-5.46S641.91,91.94,641.91,94.63Z" transform="translate(-32.5 -12)"/><path class="cls-5" d="M653.8,105.81a4.65,4.65,0,0,0,3-1.09c.76-.82,1-1.93,1-5.34V87.51h2.77v12.87c0,2.76-.47,4.55-1.83,5.84a7.39,7.39,0,0,1-4.73,1.61ZM661,83.52a1.57,1.57,0,0,1-1.74,1.58,1.6,1.6,0,0,1-1.7-1.58,1.65,1.65,0,0,1,1.77-1.61A1.58,1.58,0,0,1,661,83.52Z" transform="translate(-32.5 -12)"/><path class="cls-5" d="M666.74,95.07c.07,3.49,2.47,4.93,5.24,4.93a10.72,10.72,0,0,0,4.23-.73l.48,1.84a13.24,13.24,0,0,1-5.08.88c-4.71,0-7.52-2.87-7.52-7.15s2.72-7.66,7.17-7.66c5,0,6.31,4.08,6.31,6.69a7.56,7.56,0,0,1-.1,1.2Zm8.15-1.84c0-1.65-.73-4.2-3.85-4.2-2.81,0-4,2.41-4.27,4.2Z" transform="translate(-32.5 -12)"/><path class="cls-5" d="M691.9,101.17a11,11,0,0,1-4.39.82c-4.61,0-7.61-2.9-7.61-7.24s3.22-7.53,8.21-7.53A9.94,9.94,0,0,1,692,88l-.63,2a6.91,6.91,0,0,0-3.22-.67,5.34,5.34,0,1,0-.1,10.67,8.45,8.45,0,0,0,3.41-.7Z" transform="translate(-32.5 -12)"/><path class="cls-5" d="M698.9,83.43v4.08h4v2h-4v7.66c0,1.76.54,2.75,2.08,2.75a6.58,6.58,0,0,0,1.61-.17l.13,1.93a7.18,7.18,0,0,1-2.46.35,4,4,0,0,1-3-1.08c-.79-.76-1.08-2-1.08-3.7V89.47h-2.36v-2h2.36v-3.4Z" transform="translate(-32.5 -12)"/><path class="cls-5" d="M706,91.35c0-1.47,0-2.67-.13-3.84h2.43l.13,2.28h.09a5.35,5.35,0,0,1,4.8-2.61A4.53,4.53,0,0,1,717.65,90h.06a6,6,0,0,1,1.7-1.85,5.54,5.54,0,0,1,3.38-1c2,0,5,1.24,5,6.16v8.36H725.1v-8c0-2.73-1.08-4.37-3.32-4.37a3.55,3.55,0,0,0-3.28,2.34,3.86,3.86,0,0,0-.22,1.29v8.77h-2.72V93.2c0-2.26-1.07-3.9-3.19-3.9a3.73,3.73,0,0,0-3.43,2.58,3.1,3.1,0,0,0-.23,1.26v8.56H706Z" transform="translate(-32.5 -12)"/><path class="cls-5" d="M740.78,101.7l-.23-1.79h-.09a5.83,5.83,0,0,1-4.67,2.11c-3.1,0-4.67-2-4.67-4.07,0-3.43,3.28-5.31,9.18-5.28v-.29c0-1.18-.35-3.29-3.47-3.29a8,8,0,0,0-4,1.06l-.63-1.7a9.94,9.94,0,0,1,5-1.27c4.67,0,5.81,3,5.81,5.81V98.3a18.56,18.56,0,0,0,.25,3.4Zm-.42-7.24c-3-.06-6.47.44-6.47,3.19a2.38,2.38,0,0,0,2.62,2.47,3.8,3.8,0,0,0,3.7-2.38,2.58,2.58,0,0,0,.15-.82Z" transform="translate(-32.5 -12)"/><path class="cls-5" d="M747.52,91.35c0-1.47,0-2.67-.12-3.84h2.46l.16,2.34h.06a5.7,5.7,0,0,1,5-2.67c2.12,0,5.4,1.18,5.4,6v8.47h-2.78V93.52c0-2.29-.91-4.19-3.53-4.19A3.92,3.92,0,0,0,750.49,92a3.6,3.6,0,0,0-.19,1.2v8.53h-2.78Z" transform="translate(-32.5 -12)"/><path class="cls-5" d="M773.5,101.7l-.22-1.79h-.1a5.82,5.82,0,0,1-4.67,2.11c-3.09,0-4.67-2-4.67-4.07,0-3.43,3.28-5.31,9.19-5.28v-.29c0-1.18-.35-3.29-3.48-3.29a8,8,0,0,0-4,1.06l-.63-1.7a9.93,9.93,0,0,1,5-1.27c4.68,0,5.81,3,5.81,5.81V98.3a18.56,18.56,0,0,0,.25,3.4Zm-.41-7.24c-3-.06-6.47.44-6.47,3.19a2.38,2.38,0,0,0,2.62,2.47,3.79,3.79,0,0,0,3.69-2.38,2.34,2.34,0,0,0,.16-.82Z" transform="translate(-32.5 -12)"/><path class="cls-5" d="M793.41,87.51c-.06,1-.12,2.17-.12,3.9v8.24c0,3.25-.7,5.25-2.18,6.48a8.53,8.53,0,0,1-5.56,1.7,10.48,10.48,0,0,1-5.08-1.17l.7-2a9,9,0,0,0,4.48,1.12c2.84,0,4.92-1.38,4.92-5V99.27h-.06a5.58,5.58,0,0,1-4.86,2.37c-3.79,0-6.5-3-6.5-6.92,0-4.81,3.37-7.54,6.87-7.54a5.15,5.15,0,0,1,4.77,2.47h.07l.12-2.14Zm-2.87,5.6a3.32,3.32,0,0,0-.16-1.17,4,4,0,0,0-3.88-2.73c-2.65,0-4.55,2.08-4.55,5.37,0,2.78,1.52,5.1,4.52,5.1A4,4,0,0,0,790.32,97a4.15,4.15,0,0,0,.22-1.38Z" transform="translate(-32.5 -12)"/><path class="cls-5" d="M799.43,95.07c.07,3.49,2.47,4.93,5.25,4.93a10.7,10.7,0,0,0,4.22-.73l.48,1.84a13.2,13.2,0,0,1-5.08.88c-4.71,0-7.52-2.87-7.52-7.15s2.72-7.66,7.17-7.66c5,0,6.31,4.08,6.31,6.69a9.38,9.38,0,0,1-.09,1.2Zm8.15-1.84c0-1.65-.73-4.2-3.85-4.2-2.81,0-4,2.41-4.26,4.2Z" transform="translate(-32.5 -12)"/><path class="cls-5" d="M813.7,91.35c0-1.47,0-2.67-.13-3.84H816l.13,2.28h.09a5.35,5.35,0,0,1,4.8-2.61A4.51,4.51,0,0,1,825.34,90h.07a6,6,0,0,1,1.7-1.85,5.54,5.54,0,0,1,3.38-1c2,0,5,1.24,5,6.16v8.36h-2.72v-8c0-2.73-1.07-4.37-3.31-4.37a3.55,3.55,0,0,0-3.28,2.34,3.86,3.86,0,0,0-.22,1.29v8.77h-2.72V93.2c0-2.26-1.07-3.9-3.19-3.9a3.75,3.75,0,0,0-3.44,2.58,3.28,3.28,0,0,0-.22,1.26v8.56H813.7Z" transform="translate(-32.5 -12)"/><path class="cls-5" d="M841.56,95.07c.06,3.49,2.46,4.93,5.24,4.93a10.72,10.72,0,0,0,4.23-.73l.47,1.84a13.16,13.16,0,0,1-5.08.88c-4.7,0-7.51-2.87-7.51-7.15s2.71-7.66,7.17-7.66c5,0,6.31,4.08,6.31,6.69a9,9,0,0,1-.1,1.2Zm8.15-1.84c0-1.65-.73-4.2-3.86-4.2-2.8,0-4,2.41-4.26,4.2Z" transform="translate(-32.5 -12)"/><path class="cls-5" d="M855.82,91.35c0-1.47,0-2.67-.12-3.84h2.46l.16,2.34h.06a5.7,5.7,0,0,1,5-2.67c2.12,0,5.4,1.18,5.4,6v8.47h-2.78V93.52c0-2.29-.92-4.19-3.54-4.19A3.91,3.91,0,0,0,858.79,92a3.36,3.36,0,0,0-.19,1.2v8.53h-2.78Z" transform="translate(-32.5 -12)"/><path class="cls-5" d="M876.56,83.43v4.08h4v2h-4v7.66c0,1.76.53,2.75,2.08,2.75a6.52,6.52,0,0,0,1.61-.17l.13,1.93a7.18,7.18,0,0,1-2.46.35,4,4,0,0,1-3-1.08c-.79-.76-1.07-2-1.07-3.7V89.47h-2.37v-2h2.37v-3.4Z" transform="translate(-32.5 -12)"/><path class="cls-5" d="M632.19,127.44c0,6.81-4.45,10.41-9.88,10.41-5.62,0-9.56-4-9.56-10,0-6.27,4.2-10.38,9.88-10.38S632.19,121.58,632.19,127.44Zm-16.51.32c0,4.23,2.47,8,6.79,8s6.82-3.72,6.82-8.21c0-3.93-2.21-8-6.79-8S615.68,123.43,615.68,127.76Z" transform="translate(-32.5 -12)"/><path class="cls-5" d="M635.28,134.89a7.65,7.65,0,0,0,3.66,1c2,0,3-.94,3-2.12s-.79-1.9-2.84-2.61c-2.75-.9-4-2.31-4-4,0-2.29,2-4.17,5.27-4.17a8.2,8.2,0,0,1,3.76.88l-.7,1.88a6.28,6.28,0,0,0-3.12-.82c-1.64,0-2.56.88-2.56,1.93s.92,1.71,2.9,2.41c2.66.94,4,2.17,4,4.28,0,2.49-2.08,4.25-5.71,4.25a9.19,9.19,0,0,1-4.29-1Z" transform="translate(-32.5 -12)"/><path class="cls-5" d="M648.16,116.71h2.77v20.82h-2.77Z" transform="translate(-32.5 -12)"/><path class="cls-5" d="M669.43,130.32c0,5.25-3.92,7.53-7.61,7.53a7,7,0,0,1-7.32-7.3c0-4.75,3.34-7.54,7.58-7.54A7,7,0,0,1,669.43,130.32Zm-12.12.14c0,3.11,1.92,5.46,4.64,5.46s4.64-2.32,4.64-5.52c0-2.4-1.29-5.45-4.58-5.45S657.31,127.76,657.31,130.46Z" transform="translate(-32.5 -12)"/><path class="cls-5" d="M672.93,127.18c0-1.47,0-2.67-.13-3.84h2.43l.13,2.28h.09a5.33,5.33,0,0,1,4.8-2.61,4.53,4.53,0,0,1,4.33,2.85h.06a6,6,0,0,1,1.7-1.85,5.54,5.54,0,0,1,3.38-1c2,0,5,1.24,5,6.16v8.36H692v-8c0-2.72-1.08-4.36-3.32-4.36a3.55,3.55,0,0,0-3.28,2.34,3.86,3.86,0,0,0-.22,1.29v8.77h-2.72V129c0-2.26-1.07-3.9-3.19-3.9a3.73,3.73,0,0,0-3.43,2.58,3.1,3.1,0,0,0-.23,1.26v8.56h-2.71Z" transform="translate(-32.5 -12)"/><path class="cls-5" d="M700.79,130.9c.06,3.49,2.46,4.93,5.24,4.93a10.72,10.72,0,0,0,4.23-.73l.48,1.84a13.26,13.26,0,0,1-5.09.88c-4.7,0-7.51-2.87-7.51-7.15s2.71-7.66,7.17-7.66c5,0,6.31,4.08,6.31,6.69a7.56,7.56,0,0,1-.1,1.2Zm8.15-1.84c0-1.65-.73-4.2-3.85-4.2-2.81,0-4,2.41-4.27,4.2Z" transform="translate(-32.5 -12)"/><path class="cls-5" d="M718.4,119.26v4.08h4v2h-4V133c0,1.75.54,2.75,2.08,2.75a6.41,6.41,0,0,0,1.61-.18l.13,1.94a7.18,7.18,0,0,1-2.46.35,4,4,0,0,1-3-1.08c-.79-.76-1.07-2-1.07-3.7V125.3h-2.37v-2h2.37v-3.41Z" transform="translate(-32.5 -12)"/><path class="cls-5" d="M628.88,172.71a14.52,14.52,0,0,1-5.62.94c-6,0-10.51-3.52-10.51-10,0-6.19,4.51-10.38,11.11-10.38a12.16,12.16,0,0,1,5,.88l-.66,2.08a10.65,10.65,0,0,0-4.29-.82c-5,0-8.31,3-8.31,8.15,0,4.84,3,7.95,8.18,7.95a11.67,11.67,0,0,0,4.48-.82Z" transform="translate(-32.5 -12)"/><path class="cls-5" d="M645.7,166.14c0,5.25-3.92,7.54-7.61,7.54a7,7,0,0,1-7.32-7.3,7.18,7.18,0,0,1,7.57-7.54A7,7,0,0,1,645.7,166.14Zm-12.12.15c0,3.11,1.92,5.46,4.64,5.46s4.64-2.32,4.64-5.52c0-2.4-1.3-5.45-4.58-5.45S633.58,163.59,633.58,166.29Z" transform="translate(-32.5 -12)"/><path class="cls-5" d="M649.2,152.54H652v20.82H649.2Z" transform="translate(-32.5 -12)"/><path class="cls-5" d="M656.65,152.54h2.77v20.82h-2.77Z" transform="translate(-32.5 -12)"/><path class="cls-5" d="M665.64,166.73c.06,3.49,2.46,4.93,5.24,4.93a10.69,10.69,0,0,0,4.23-.74l.47,1.85a13.16,13.16,0,0,1-5.08.88c-4.7,0-7.51-2.87-7.51-7.15s2.71-7.66,7.16-7.66c5,0,6.31,4.08,6.31,6.69a9.38,9.38,0,0,1-.09,1.2Zm8.14-1.85c0-1.64-.72-4.19-3.85-4.19-2.81,0-4,2.41-4.26,4.19Z" transform="translate(-32.5 -12)"/><path class="cls-5" d="M693.06,159.17c-.06,1-.12,2.17-.12,3.89v8.24c0,3.26-.7,5.25-2.18,6.49a8.51,8.51,0,0,1-5.56,1.7,10.37,10.37,0,0,1-5.08-1.18l.7-2a9.19,9.19,0,0,0,4.48,1.11c2.84,0,4.92-1.37,4.92-5v-1.59h-.06a5.56,5.56,0,0,1-4.86,2.38c-3.79,0-6.5-3-6.5-6.92,0-4.81,3.37-7.54,6.88-7.54a5.16,5.16,0,0,1,4.77,2.47h.06l.12-2.14Zm-2.87,5.6a3.41,3.41,0,0,0-.16-1.18,4,4,0,0,0-3.88-2.72c-2.65,0-4.54,2.08-4.54,5.36,0,2.79,1.51,5.1,4.51,5.1a3.94,3.94,0,0,0,4.07-4Z" transform="translate(-32.5 -12)"/><path class="cls-5" d="M710.32,169.49c0,1.46,0,2.75.13,3.87H708l-.16-2.32h-.06a5.83,5.83,0,0,1-5,2.64c-2.4,0-5.28-1.23-5.28-6.22v-8.29h2.78V167c0,2.7.88,4.52,3.41,4.52a4,4,0,0,0,3.66-2.35,3.49,3.49,0,0,0,.25-1.32v-8.7h2.78Z" transform="translate(-32.5 -12)"/><path class="cls-5" d="M716.47,166.73c.07,3.49,2.47,4.93,5.24,4.93a10.69,10.69,0,0,0,4.23-.74l.47,1.85a13.16,13.16,0,0,1-5.08.88c-4.7,0-7.51-2.87-7.51-7.15s2.72-7.66,7.17-7.66c5,0,6.31,4.08,6.31,6.69a9.38,9.38,0,0,1-.09,1.2Zm8.15-1.85c0-1.64-.73-4.19-3.85-4.19a4.41,4.41,0,0,0-4.26,4.19Z" transform="translate(-32.5 -12)"/><path class="cls-5" d="M613,209.19V207.6l2.18-2c5.24-4.63,7.61-7.1,7.64-10,0-1.94-1-3.72-4.07-3.72a7.26,7.26,0,0,0-4.36,1.61l-.88-1.82a9.39,9.39,0,0,1,5.81-1.94c4.41,0,6.28,2.82,6.28,5.55,0,3.51-2.75,6.36-7.07,10.23L616.92,207v.06h9.21v2.14Z" transform="translate(-32.5 -12)"/><path class="cls-5" d="M642.86,199.45c0,6.48-2.59,10.06-7.13,10.06-4,0-6.73-3.49-6.79-9.79s3-9.92,7.13-9.92C640.4,189.8,642.86,193.38,642.86,199.45Zm-11.14.29c0,5,1.64,7.78,4.16,7.78,2.84,0,4.2-3.08,4.2-8,0-4.69-1.29-7.77-4.17-7.77C633.48,191.8,631.72,194.55,631.72,199.74Z" transform="translate(-32.5 -12)"/><path class="cls-5" d="M651.44,192.53h-.07l-3.56,1.79-.54-2,4.48-2.23h2.37v19.06h-2.68Z" transform="translate(-32.5 -12)"/><path class="cls-5" d="M667.62,192.53h-.06L664,194.32l-.53-2,4.48-2.23h2.37v19.06h-2.69Z" transform="translate(-32.5 -12)"/><path class="cls-5" d="M648.84,559.05h-.06l-3.57,1.79-.53-2,4.48-2.23h2.36V575.7h-2.68Z" transform="translate(-32.5 -12)"/><path class="cls-5" d="M665,559.05H665l-3.57,1.79-.54-2,4.49-2.23h2.36V575.7H665Z" transform="translate(-32.5 -12)"/><path class="cls-5" d="M683.77,561.51l3.35,8.39c.34.94.72,2.05,1,2.9h.06c.28-.85.6-1.93,1-3l3-8.33h2.93l-4.17,10.12c-2,4.87-3.34,7.36-5.23,8.88a7.64,7.64,0,0,1-3.41,1.67l-.7-2.17a7.27,7.27,0,0,0,2.43-1.26,7.81,7.81,0,0,0,2.34-2.87,1.65,1.65,0,0,0,.22-.62,2,2,0,0,0-.19-.67l-5.65-13.08Z" transform="translate(-32.5 -12)"/><path class="cls-5" d="M698.85,569.08c.07,3.49,2.47,4.92,5.24,4.92a10.81,10.81,0,0,0,4.24-.73l.47,1.85a13.24,13.24,0,0,1-5.08.88c-4.71,0-7.52-2.88-7.52-7.16s2.72-7.65,7.17-7.65c5,0,6.31,4.07,6.31,6.68a9.73,9.73,0,0,1-.09,1.21Zm8.15-1.85c0-1.64-.73-4.19-3.85-4.19-2.81,0-4,2.4-4.26,4.19Z" transform="translate(-32.5 -12)"/><path class="cls-5" d="M721.58,575.7l-.23-1.79h-.09a5.82,5.82,0,0,1-4.67,2.12c-3.09,0-4.67-2-4.67-4.08,0-3.43,3.28-5.31,9.18-5.28v-.29c0-1.17-.35-3.28-3.47-3.28a8.13,8.13,0,0,0-4,1l-.63-1.7a10.07,10.07,0,0,1,5-1.26c4.67,0,5.81,3,5.81,5.8v5.31a18.49,18.49,0,0,0,.25,3.4Zm-.41-7.24c-3-.06-6.48.44-6.48,3.2a2.38,2.38,0,0,0,2.62,2.46,3.8,3.8,0,0,0,3.7-2.37,2.71,2.71,0,0,0,.16-.83Z" transform="translate(-32.5 -12)"/><path class="cls-5" d="M728.33,565.94c0-1.67,0-3.11-.13-4.43h2.43l.1,2.79h.12a4.54,4.54,0,0,1,4.23-3.11,3.12,3.12,0,0,1,.79.09v2.43a4.38,4.38,0,0,0-1-.09,3.79,3.79,0,0,0-3.72,3.32,7,7,0,0,0-.13,1.2v7.56h-2.74Z" transform="translate(-32.5 -12)"/><path class="cls-5" d="M738.27,573.07a7.77,7.77,0,0,0,3.66,1c2,0,3-.94,3-2.11s-.78-1.91-2.84-2.61c-2.74-.91-4-2.32-4-4,0-2.29,2-4.16,5.28-4.16a8.06,8.06,0,0,1,3.75.88l-.69,1.88a6.21,6.21,0,0,0-3.13-.83c-1.64,0-2.55.88-2.55,1.94s.91,1.7,2.9,2.4c2.65.94,4,2.17,4,4.29,0,2.49-2.09,4.25-5.72,4.25a9.22,9.22,0,0,1-4.29-1Z" transform="translate(-32.5 -12)"/><path class="cls-5" d="M771.66,568.49c0,5.25-3.92,7.54-7.61,7.54a7,7,0,0,1-7.33-7.3c0-4.76,3.35-7.54,7.58-7.54A7,7,0,0,1,771.66,568.49Zm-12.12.15c0,3.11,1.92,5.45,4.64,5.45s4.64-2.32,4.64-5.51c0-2.41-1.3-5.46-4.58-5.46S759.54,565.94,759.54,568.64Z" transform="translate(-32.5 -12)"/><path class="cls-5" d="M775.44,575.7V563.48h-2.15v-2h2.15v-.67a6.41,6.41,0,0,1,1.76-5,5.58,5.58,0,0,1,3.73-1.32,7,7,0,0,1,2.37.41l-.38,2a4.34,4.34,0,0,0-1.77-.33c-2.37,0-3,1.94-3,4.11v.76h3.7v2h-3.7V575.7Z" transform="translate(-32.5 -12)"/><path class="cls-5" d="M791.06,554.88h2.77v8.86h.07a5,5,0,0,1,2-1.82,6,6,0,0,1,2.84-.73c2,0,5.33,1.17,5.33,6.07v8.44h-2.77v-8.15c0-2.29-.92-4.22-3.54-4.22a4,4,0,0,0-3.73,2.58,3,3,0,0,0-.19,1.23v8.56h-2.77Z" transform="translate(-32.5 -12)"/><path class="cls-5" d="M811.66,557.52a1.73,1.73,0,0,1-3.44,0,1.64,1.64,0,0,1,1.74-1.61A1.58,1.58,0,0,1,811.66,557.52Zm-3.09,18.18V561.51h2.78V575.7Z" transform="translate(-32.5 -12)"/><path class="cls-5" d="M829.12,561.51c-.07,1-.13,2.17-.13,3.9v8.24c0,3.26-.69,5.25-2.18,6.48a8.5,8.5,0,0,1-5.55,1.7,10.48,10.48,0,0,1-5.08-1.17l.69-2a9.19,9.19,0,0,0,4.48,1.11c2.84,0,4.93-1.38,4.93-5v-1.58h-.07a5.56,5.56,0,0,1-4.86,2.38c-3.79,0-6.5-3-6.5-6.92,0-4.81,3.38-7.54,6.88-7.54a5.16,5.16,0,0,1,4.77,2.46h.06l.13-2.14Zm-2.87,5.6a3.56,3.56,0,0,0-.16-1.17,4,4,0,0,0-3.88-2.73c-2.66,0-4.55,2.08-4.55,5.37,0,2.78,1.52,5.1,4.51,5.1A4,4,0,0,0,826,571a4.16,4.16,0,0,0,.23-1.38Z" transform="translate(-32.5 -12)"/><path class="cls-5" d="M833.6,554.88h2.77v8.86h.06a5.1,5.1,0,0,1,2-1.82,6.06,6.06,0,0,1,2.85-.73c2.05,0,5.33,1.17,5.33,6.07v8.44h-2.78v-8.15c0-2.29-.91-4.22-3.53-4.22a4,4,0,0,0-3.73,2.58,2.87,2.87,0,0,0-.19,1.23v8.56H833.6Z" transform="translate(-32.5 -12)"/><path class="cls-5" d="M852.65,569.08c.07,3.49,2.47,4.92,5.25,4.92a10.67,10.67,0,0,0,4.22-.73l.48,1.85a13.2,13.2,0,0,1-5.08.88c-4.71,0-7.52-2.88-7.52-7.16s2.72-7.65,7.17-7.65c5,0,6.31,4.07,6.31,6.68a9.73,9.73,0,0,1-.09,1.21Zm8.15-1.85c0-1.64-.73-4.19-3.85-4.19-2.81,0-4,2.4-4.26,4.19Z" transform="translate(-32.5 -12)"/><path class="cls-5" d="M866.92,565.94c0-1.67,0-3.11-.13-4.43h2.43l.1,2.79h.12a4.54,4.54,0,0,1,4.23-3.11,3.12,3.12,0,0,1,.79.09v2.43a4.38,4.38,0,0,0-1-.09,3.79,3.79,0,0,0-3.72,3.32,7,7,0,0,0-.13,1.2v7.56h-2.74Z" transform="translate(-32.5 -12)"/><path class="cls-5" d="M885.47,569.08c.06,3.49,2.46,4.92,5.24,4.92a10.72,10.72,0,0,0,4.23-.73l.47,1.85a13.16,13.16,0,0,1-5.08.88c-4.7,0-7.51-2.88-7.51-7.16s2.71-7.65,7.17-7.65c5,0,6.31,4.07,6.31,6.68a7.83,7.83,0,0,1-.1,1.21Zm8.15-1.85c0-1.64-.73-4.19-3.86-4.19-2.8,0-4,2.4-4.26,4.19Z" transform="translate(-32.5 -12)"/><path class="cls-5" d="M912.93,554.88V572c0,1.26,0,2.7.12,3.66h-2.49l-.13-2.46h-.06a5.73,5.73,0,0,1-5.21,2.79c-3.69,0-6.53-2.91-6.53-7.22,0-4.72,3.12-7.62,6.85-7.62a5.23,5.23,0,0,1,4.61,2.17h.06v-8.48Zm-2.78,12.41a4.11,4.11,0,0,0-.13-1.09,4,4,0,0,0-4-3c-2.87,0-4.57,2.35-4.57,5.48,0,2.88,1.51,5.25,4.51,5.25a4.11,4.11,0,0,0,4.07-3.07,4,4,0,0,0,.13-1.12Z" transform="translate(-32.5 -12)"/><path class="cls-5" d="M930.31,571.83c0,1.47,0,2.76.13,3.87H928l-.16-2.31h-.06a5.85,5.85,0,0,1-5,2.64c-2.4,0-5.27-1.24-5.27-6.22v-8.3h2.77v7.86c0,2.7.89,4.52,3.41,4.52a4,4,0,0,0,3.66-2.35,3.49,3.49,0,0,0,.26-1.32v-8.71h2.77Z" transform="translate(-32.5 -12)"/><path class="cls-5" d="M945.81,575.18a11,11,0,0,1-4.39.82c-4.61,0-7.61-2.91-7.61-7.25s3.22-7.53,8.21-7.53a9.94,9.94,0,0,1,3.85.73l-.63,2a6.71,6.71,0,0,0-3.22-.68,5.34,5.34,0,1,0-.09,10.67,8.49,8.49,0,0,0,3.41-.7Z" transform="translate(-32.5 -12)"/><path class="cls-5" d="M957.52,575.7l-.23-1.79h-.09a5.84,5.84,0,0,1-4.67,2.12c-3.1,0-4.67-2-4.67-4.08,0-3.43,3.28-5.31,9.18-5.28v-.29c0-1.17-.35-3.28-3.47-3.28a8.1,8.1,0,0,0-4,1l-.63-1.7a10,10,0,0,1,5-1.26c4.67,0,5.81,3,5.81,5.8v5.31a18.49,18.49,0,0,0,.25,3.4Zm-.42-7.24c-3-.06-6.47.44-6.47,3.2a2.38,2.38,0,0,0,2.62,2.46,3.8,3.8,0,0,0,3.7-2.37,2.69,2.69,0,0,0,.15-.83Z" transform="translate(-32.5 -12)"/><path class="cls-5" d="M967.48,557.43v4.08h4v2h-4v7.65c0,1.76.54,2.76,2.09,2.76a6.54,6.54,0,0,0,1.61-.18l.12,1.94a7.39,7.39,0,0,1-2.46.35,4,4,0,0,1-3-1.09c-.78-.76-1.07-2-1.07-3.69v-7.74H962.4v-2h2.37v-3.4Z" transform="translate(-32.5 -12)"/><path class="cls-5" d="M977.68,557.52a1.73,1.73,0,0,1-3.44,0,1.63,1.63,0,0,1,1.73-1.61A1.59,1.59,0,0,1,977.68,557.52Zm-3.1,18.18V561.51h2.78V575.7Z" transform="translate(-32.5 -12)"/><path class="cls-5" d="M995.79,568.49c0,5.25-3.91,7.54-7.6,7.54a7,7,0,0,1-7.33-7.3c0-4.76,3.35-7.54,7.58-7.54A7,7,0,0,1,995.79,568.49Zm-12.12.15c0,3.11,1.93,5.45,4.64,5.45s4.64-2.32,4.64-5.51c0-2.41-1.29-5.46-4.57-5.46S983.67,565.94,983.67,568.64Z" transform="translate(-32.5 -12)"/><path class="cls-5" d="M999.29,565.35c0-1.46,0-2.67-.12-3.84h2.46l.16,2.35h.06a5.69,5.69,0,0,1,5-2.67c2.11,0,5.4,1.17,5.4,6v8.47h-2.78v-8.18c0-2.28-.92-4.19-3.54-4.19a3.9,3.9,0,0,0-3.72,2.64,3.36,3.36,0,0,0-.19,1.2v8.53h-2.78Z" transform="translate(-32.5 -12)"/><path class="cls-5" d="M646.79,593.35a1.73,1.73,0,0,1-3.44,0,1.64,1.64,0,0,1,1.74-1.61A1.58,1.58,0,0,1,646.79,593.35Zm-3.09,18.18V597.34h2.77v14.19Z" transform="translate(-32.5 -12)"/><path class="cls-5" d="M651.08,601.18c0-1.46,0-2.67-.12-3.84h2.46l.15,2.35h.07a5.69,5.69,0,0,1,5.05-2.67c2.11,0,5.4,1.17,5.4,6v8.47h-2.78v-8.18c0-2.29-.92-4.19-3.54-4.19a3.9,3.9,0,0,0-3.72,2.64,3.36,3.36,0,0,0-.19,1.2v8.53h-2.78Z" transform="translate(-32.5 -12)"/><path class="cls-5" d="M678.63,593.26v4.08h4v2h-4V607c0,1.76.54,2.75,2.08,2.75a6.52,6.52,0,0,0,1.61-.17l.13,1.93a7.14,7.14,0,0,1-2.46.36,4,4,0,0,1-3-1.09c-.79-.76-1.07-2-1.07-3.69v-7.74h-2.37v-2h2.37v-3.4Z" transform="translate(-32.5 -12)"/><path class="cls-5" d="M685.73,590.71h2.78v8.86h.06a5,5,0,0,1,2-1.82,6,6,0,0,1,2.84-.73c2.05,0,5.33,1.17,5.33,6.07v8.44H696v-8.15c0-2.29-.92-4.22-3.54-4.22a4,4,0,0,0-3.72,2.58,2.87,2.87,0,0,0-.19,1.23v8.56h-2.78Z" transform="translate(-32.5 -12)"/><path class="cls-5" d="M704.79,604.91c.06,3.48,2.46,4.92,5.24,4.92a10.72,10.72,0,0,0,4.23-.73l.47,1.85a13.16,13.16,0,0,1-5.08.88c-4.7,0-7.51-2.88-7.51-7.16s2.71-7.65,7.16-7.65c5,0,6.32,4.07,6.32,6.68a9.35,9.35,0,0,1-.1,1.21Zm8.14-1.85c0-1.64-.72-4.2-3.85-4.2-2.81,0-4,2.41-4.26,4.2Z" transform="translate(-32.5 -12)"/><path class="cls-5" d="M726,611.53V599.31h-2.14v-2H726v-.76c0-3.76,2.37-6.19,6.66-6.19a8.08,8.08,0,0,1,3.89.94l-.79,2a6.16,6.16,0,0,0-3.22-.82c-2.94,0-3.79,1.91-3.79,4.17v.7h8.87v14.19H734.9V599.31h-6.13v12.22Z" transform="translate(-32.5 -12)"/><path class="cls-5" d="M743.79,604.91c.06,3.48,2.46,4.92,5.24,4.92a10.72,10.72,0,0,0,4.23-.73l.48,1.85a13.26,13.26,0,0,1-5.09.88c-4.7,0-7.51-2.88-7.51-7.16s2.71-7.65,7.17-7.65c5,0,6.31,4.07,6.31,6.68a7.83,7.83,0,0,1-.1,1.21Zm8.14-1.85c0-1.64-.72-4.2-3.84-4.2-2.82,0-4,2.41-4.27,4.2Z" transform="translate(-32.5 -12)"/><path class="cls-5" d="M758.05,590.71h2.78v20.82h-2.78Z" transform="translate(-32.5 -12)"/><path class="cls-5" d="M778.7,590.71v17.16c0,1.26,0,2.7.12,3.66h-2.49l-.13-2.46h-.06a5.74,5.74,0,0,1-5.21,2.79c-3.69,0-6.53-2.91-6.53-7.22,0-4.72,3.12-7.62,6.85-7.62a5.22,5.22,0,0,1,4.61,2.17h.06v-8.48Zm-2.78,12.41a4,4,0,0,0-4.14-4.08c-2.87,0-4.57,2.35-4.57,5.48,0,2.88,1.51,5.25,4.51,5.25a4.11,4.11,0,0,0,4.07-3.08,3.93,3.93,0,0,0,.13-1.11Z" transform="translate(-32.5 -12)"/><path class="cls-5" d="M803.82,604.32c0,5.25-3.92,7.54-7.61,7.54a7,7,0,0,1-7.33-7.31c0-4.75,3.35-7.53,7.58-7.53A7,7,0,0,1,803.82,604.32Zm-12.13.15c0,3.1,1.93,5.45,4.64,5.45s4.64-2.32,4.64-5.51c0-2.41-1.29-5.46-4.57-5.46S791.69,601.77,791.69,604.47Z" transform="translate(-32.5 -12)"/><path class="cls-5" d="M807.6,611.53V599.31h-2.15v-2h2.15v-.67a6.41,6.41,0,0,1,1.76-5,5.56,5.56,0,0,1,3.73-1.32,7,7,0,0,1,2.37.41l-.38,2a4.54,4.54,0,0,0-1.77-.32c-2.37,0-3,1.94-3,4.11v.76H814v2h-3.7v12.22Z" transform="translate(-32.5 -12)"/><path class="cls-5" d="M823.22,601.18c0-1.46,0-2.67-.13-3.84h2.43l.13,2.29h.09a5.32,5.32,0,0,1,4.8-2.61,4.5,4.5,0,0,1,4.32,2.84h.07a6,6,0,0,1,1.7-1.85,5.54,5.54,0,0,1,3.38-1c2,0,5,1.23,5,6.15v8.36h-2.72v-8c0-2.73-1.07-4.37-3.31-4.37a3.57,3.57,0,0,0-3.29,2.34,4.25,4.25,0,0,0-.21,1.29v8.77h-2.72V603c0-2.26-1.07-3.9-3.19-3.9a3.75,3.75,0,0,0-3.44,2.58,3.28,3.28,0,0,0-.22,1.26v8.56h-2.71Z" transform="translate(-32.5 -12)"/><path class="cls-5" d="M858,611.53l-.22-1.79h-.09a5.85,5.85,0,0,1-4.67,2.12c-3.1,0-4.68-2-4.68-4.08,0-3.43,3.29-5.31,9.19-5.28v-.29c0-1.18-.35-3.29-3.47-3.29a8,8,0,0,0-4,1.06l-.63-1.7a10,10,0,0,1,5-1.26c4.67,0,5.81,3,5.81,5.8v5.31a18.49,18.49,0,0,0,.25,3.4Zm-.41-7.24c-3-.06-6.47.44-6.47,3.2a2.38,2.38,0,0,0,2.62,2.46,3.77,3.77,0,0,0,3.69-2.38,2.34,2.34,0,0,0,.16-.82Z" transform="translate(-32.5 -12)"/><path class="cls-5" d="M864.74,601.77c0-1.67,0-3.11-.12-4.43h2.43l.09,2.79h.13A4.53,4.53,0,0,1,871.5,597a3.24,3.24,0,0,1,.79.09v2.43a4.44,4.44,0,0,0-.95-.09,3.78,3.78,0,0,0-3.72,3.31,6.32,6.32,0,0,0-.13,1.21v7.56h-2.75Z" transform="translate(-32.5 -12)"/><path class="cls-5" d="M877.93,603.85H878c.38-.5.91-1.11,1.35-1.61l4.49-4.9h3.34l-5.9,5.83,6.72,8.36h-3.37l-5.28-6.8-1.42,1.47v5.33h-2.74V590.71h2.74Z" transform="translate(-32.5 -12)"/><path class="cls-5" d="M891.53,604.91c.07,3.48,2.47,4.92,5.24,4.92a10.72,10.72,0,0,0,4.23-.73l.48,1.85a13.24,13.24,0,0,1-5.08.88c-4.71,0-7.52-2.88-7.52-7.16s2.72-7.65,7.17-7.65c5,0,6.31,4.07,6.31,6.68a7.83,7.83,0,0,1-.1,1.21Zm8.15-1.85c0-1.64-.73-4.2-3.85-4.2-2.81,0-4,2.41-4.27,4.2Z" transform="translate(-32.5 -12)"/><path class="cls-5" d="M909.14,593.26v4.08h4v2h-4V607c0,1.76.54,2.75,2.09,2.75a6.64,6.64,0,0,0,1.61-.17l.12,1.93a7.14,7.14,0,0,1-2.46.36,4,4,0,0,1-3-1.09c-.79-.76-1.07-2-1.07-3.69v-7.74h-2.37v-2h2.37v-3.4Z" transform="translate(-32.5 -12)"/><path class="cls-5" d="M919.33,593.35a1.73,1.73,0,0,1-3.44,0,1.64,1.64,0,0,1,1.74-1.61A1.58,1.58,0,0,1,919.33,593.35Zm-3.09,18.18V597.34H919v14.19Z" transform="translate(-32.5 -12)"/><path class="cls-5" d="M923.62,601.18c0-1.46,0-2.67-.12-3.84H926l.16,2.35h.06a5.7,5.7,0,0,1,5.05-2.67c2.12,0,5.4,1.17,5.4,6v8.47h-2.78v-8.18c0-2.29-.91-4.19-3.53-4.19a3.92,3.92,0,0,0-3.73,2.64,3.6,3.6,0,0,0-.19,1.2v8.53h-2.78Z" transform="translate(-32.5 -12)"/><path class="cls-5" d="M954.3,597.34c-.06,1-.12,2.17-.12,3.9v8.24c0,3.25-.7,5.25-2.18,6.48a8.53,8.53,0,0,1-5.56,1.7,10.48,10.48,0,0,1-5.08-1.17l.7-2a9,9,0,0,0,4.48,1.12c2.84,0,4.92-1.38,4.92-5V609.1h-.06a5.58,5.58,0,0,1-4.86,2.37c-3.79,0-6.5-3-6.5-6.92,0-4.81,3.37-7.53,6.87-7.53a5.15,5.15,0,0,1,4.77,2.46h.07l.12-2.14Zm-2.87,5.6a3.32,3.32,0,0,0-.16-1.17,4,4,0,0,0-3.88-2.73c-2.65,0-4.55,2.08-4.55,5.37,0,2.78,1.52,5.1,4.52,5.1a4,4,0,0,0,3.85-2.64,4.15,4.15,0,0,0,.22-1.38Z" transform="translate(-32.5 -12)"/><path class="cls-5" d="M956.51,615.14a40.43,40.43,0,0,0,1.89-7l3.09-.29a34,34,0,0,1-3,7.12Z" transform="translate(-32.5 -12)"/><path class="cls-5" d="M654.59,646.83a11,11,0,0,1-4.39.82c-4.61,0-7.61-2.9-7.61-7.24s3.22-7.53,8.21-7.53a9.94,9.94,0,0,1,3.85.73l-.63,2a6.88,6.88,0,0,0-3.22-.67,5.34,5.34,0,1,0-.09,10.67,8.43,8.43,0,0,0,3.4-.7Z" transform="translate(-32.5 -12)"/><path class="cls-5" d="M671.47,640.15c0,5.25-3.91,7.53-7.61,7.53a7,7,0,0,1-7.32-7.3c0-4.75,3.35-7.53,7.58-7.53A7,7,0,0,1,671.47,640.15Zm-12.12.15c0,3.1,1.93,5.45,4.64,5.45s4.64-2.32,4.64-5.51c0-2.41-1.29-5.46-4.58-5.46S659.35,637.6,659.35,640.3Z" transform="translate(-32.5 -12)"/><path class="cls-5" d="M675,637c0-1.47,0-2.67-.13-3.84h2.43l.13,2.29h.1a5.32,5.32,0,0,1,4.79-2.61,4.52,4.52,0,0,1,4.33,2.84h.06a6,6,0,0,1,1.7-1.85,5.54,5.54,0,0,1,3.38-1c2,0,5,1.23,5,6.15v8.36h-2.71v-8c0-2.73-1.08-4.37-3.32-4.37a3.55,3.55,0,0,0-3.28,2.34,3.86,3.86,0,0,0-.22,1.29v8.77h-2.72v-8.5c0-2.26-1.07-3.9-3.19-3.9a3.73,3.73,0,0,0-3.43,2.58,3.28,3.28,0,0,0-.23,1.26v8.56H675Z" transform="translate(-32.5 -12)"/><path class="cls-5" d="M701.29,637c0-1.47,0-2.67-.13-3.84h2.43l.13,2.29h.09a5.33,5.33,0,0,1,4.8-2.61,4.5,4.5,0,0,1,4.32,2.84H713a6,6,0,0,1,1.7-1.85,5.54,5.54,0,0,1,3.38-1c2,0,5,1.23,5,6.15v8.36h-2.71v-8c0-2.73-1.08-4.37-3.32-4.37a3.55,3.55,0,0,0-3.28,2.34,3.86,3.86,0,0,0-.23,1.29v8.77h-2.71v-8.5c0-2.26-1.07-3.9-3.19-3.9a3.76,3.76,0,0,0-3.44,2.58,3.28,3.28,0,0,0-.22,1.26v8.56h-2.71Z" transform="translate(-32.5 -12)"/><path class="cls-5" d="M740.39,643.49c0,1.47,0,2.76.13,3.87h-2.47L737.9,645h-.07a5.81,5.81,0,0,1-5.05,2.64c-2.4,0-5.27-1.23-5.27-6.21v-8.3h2.78V641c0,2.7.88,4.51,3.4,4.51a4,4,0,0,0,3.67-2.34,3.49,3.49,0,0,0,.25-1.32v-8.71h2.78Z" transform="translate(-32.5 -12)"/><path class="cls-5" d="M745,637c0-1.47,0-2.67-.13-3.84h2.47l.15,2.34h.07a5.71,5.71,0,0,1,5.05-2.66c2.11,0,5.4,1.17,5.4,6v8.47h-2.78v-8.18c0-2.29-.92-4.19-3.54-4.19a3.9,3.9,0,0,0-3.72,2.64,3.36,3.36,0,0,0-.19,1.2v8.53H745Z" transform="translate(-32.5 -12)"/><path class="cls-5" d="M765.6,629.18a1.73,1.73,0,0,1-3.44,0,1.63,1.63,0,0,1,1.73-1.61A1.59,1.59,0,0,1,765.6,629.18Zm-3.1,18.18V633.17h2.78v14.19Z" transform="translate(-32.5 -12)"/><path class="cls-5" d="M780.78,646.83a11,11,0,0,1-4.39.82c-4.61,0-7.61-2.9-7.61-7.24s3.22-7.53,8.21-7.53a9.94,9.94,0,0,1,3.85.73l-.63,2a6.85,6.85,0,0,0-3.22-.67,5.34,5.34,0,1,0-.09,10.67,8.49,8.49,0,0,0,3.41-.7Z" transform="translate(-32.5 -12)"/><path class="cls-5" d="M792.49,647.36l-.22-1.79h-.1a5.82,5.82,0,0,1-4.67,2.11c-3.09,0-4.67-2-4.67-4.07,0-3.43,3.28-5.31,9.18-5.28V638c0-1.18-.34-3.29-3.47-3.29a8,8,0,0,0-4,1.06l-.63-1.7a10,10,0,0,1,5-1.26c4.67,0,5.81,3,5.81,5.8V644a18.56,18.56,0,0,0,.25,3.4Zm-.42-7.24c-3-.06-6.46.44-6.46,3.2a2.38,2.38,0,0,0,2.62,2.46,3.77,3.77,0,0,0,3.69-2.38,2.58,2.58,0,0,0,.15-.82Z" transform="translate(-32.5 -12)"/><path class="cls-5" d="M802.46,629.09v4.08h4v2h-4v7.66c0,1.76.53,2.75,2.08,2.75a6.52,6.52,0,0,0,1.61-.17l.13,1.93a7.18,7.18,0,0,1-2.46.35,4,4,0,0,1-3-1.08c-.79-.76-1.08-2-1.08-3.7v-7.74h-2.36v-2h2.36v-3.4Z" transform="translate(-32.5 -12)"/><path class="cls-5" d="M812.65,629.18a1.73,1.73,0,0,1-3.44,0,1.63,1.63,0,0,1,1.74-1.61A1.58,1.58,0,0,1,812.65,629.18Zm-3.09,18.18V633.17h2.78v14.19Z" transform="translate(-32.5 -12)"/><path class="cls-5" d="M830.77,640.15c0,5.25-3.92,7.53-7.61,7.53a7,7,0,0,1-7.32-7.3c0-4.75,3.34-7.53,7.57-7.53A7,7,0,0,1,830.77,640.15Zm-12.12.15c0,3.1,1.92,5.45,4.64,5.45s4.63-2.32,4.63-5.51c0-2.41-1.29-5.46-4.57-5.46S818.65,637.6,818.65,640.3Z" transform="translate(-32.5 -12)"/><path class="cls-5" d="M834.27,637c0-1.47,0-2.67-.13-3.84h2.46l.16,2.34h.06a5.72,5.72,0,0,1,5-2.66c2.12,0,5.4,1.17,5.4,6v8.47h-2.78v-8.18c0-2.29-.91-4.19-3.53-4.19a3.92,3.92,0,0,0-3.73,2.64,3.36,3.36,0,0,0-.19,1.2v8.53h-2.77Z" transform="translate(-32.5 -12)"/><path class="cls-5" d="M856.67,651a39.56,39.56,0,0,0,1.89-7l3.1-.29a34.76,34.76,0,0,1-3,7.12Z" transform="translate(-32.5 -12)"/><path class="cls-5" d="M643.7,673.63c0-1.82-.07-3.28-.13-4.63h2.5l.12,2.43h.06a6.13,6.13,0,0,1,5.43-2.76c3.7,0,6.47,2.91,6.47,7.22,0,5.1-3.34,7.62-6.94,7.62a5.47,5.47,0,0,1-4.7-2.23h-.07V689H643.7Zm2.74,3.78a5.59,5.59,0,0,0,.13,1.06,4.25,4.25,0,0,0,4.17,3c2.93,0,4.64-2.23,4.64-5.48,0-2.85-1.61-5.28-4.55-5.28a4.38,4.38,0,0,0-4.2,3.19,4.21,4.21,0,0,0-.19,1.06Z" transform="translate(-32.5 -12)"/><path class="cls-5" d="M661.65,673.42c0-1.67,0-3.1-.12-4.42H664l.09,2.78h.13a4.55,4.55,0,0,1,4.23-3.11,3.18,3.18,0,0,1,.79.09v2.44a4.44,4.44,0,0,0-1-.09,3.79,3.79,0,0,0-3.73,3.31,7.16,7.16,0,0,0-.12,1.2v7.57h-2.75Z" transform="translate(-32.5 -12)"/><path class="cls-5" d="M685.48,676c0,5.25-3.91,7.53-7.6,7.53a7,7,0,0,1-7.33-7.3c0-4.75,3.35-7.54,7.58-7.54A7,7,0,0,1,685.48,676Zm-12.12.14c0,3.11,1.93,5.46,4.64,5.46s4.64-2.32,4.64-5.52c0-2.4-1.29-5.45-4.58-5.45S673.36,673.42,673.36,676.12Z" transform="translate(-32.5 -12)"/><path class="cls-5" d="M685.25,687.29a4.64,4.64,0,0,0,3-1.08c.76-.82,1.05-1.94,1.05-5.34V669h2.78v12.87c0,2.76-.48,4.55-1.84,5.84a7.39,7.39,0,0,1-4.73,1.61ZM692.42,665a1.57,1.57,0,0,1-1.74,1.58A1.6,1.6,0,0,1,689,665a1.65,1.65,0,0,1,1.77-1.61A1.58,1.58,0,0,1,692.42,665Z" transform="translate(-32.5 -12)"/><path class="cls-5" d="M698.19,676.56c.07,3.49,2.47,4.93,5.25,4.93a10.67,10.67,0,0,0,4.22-.73l.48,1.84a13.2,13.2,0,0,1-5.08.88c-4.71,0-7.52-2.87-7.52-7.15s2.72-7.66,7.17-7.66c5,0,6.31,4.08,6.31,6.69a9.38,9.38,0,0,1-.09,1.2Zm8.15-1.84c0-1.65-.73-4.2-3.85-4.2-2.81,0-4,2.41-4.26,4.2Z" transform="translate(-32.5 -12)"/><path class="cls-5" d="M723.35,682.66a11,11,0,0,1-4.39.82c-4.61,0-7.61-2.9-7.61-7.24s3.22-7.54,8.21-7.54a9.92,9.92,0,0,1,3.85.74l-.63,2a6.88,6.88,0,0,0-3.22-.67,5.34,5.34,0,1,0-.1,10.67,8.45,8.45,0,0,0,3.41-.7Z" transform="translate(-32.5 -12)"/><path class="cls-5" d="M730.35,664.92V669h4v2h-4v7.66c0,1.75.54,2.75,2.08,2.75a7.12,7.12,0,0,0,1.61-.17l.13,1.93a7.18,7.18,0,0,1-2.46.35,4,4,0,0,1-3-1.08c-.79-.76-1.08-2-1.08-3.7V671h-2.36v-2h2.36v-3.4Z" transform="translate(-32.5 -12)"/><path class="cls-5" d="M737.45,672.84c0-1.47,0-2.67-.13-3.84h2.43l.13,2.28H740a5.35,5.35,0,0,1,4.8-2.61,4.53,4.53,0,0,1,4.33,2.85h.06a6,6,0,0,1,1.7-1.85,5.54,5.54,0,0,1,3.38-1c2,0,5,1.24,5,6.16v8.36h-2.71v-8c0-2.73-1.08-4.37-3.32-4.37a3.55,3.55,0,0,0-3.28,2.34,3.86,3.86,0,0,0-.22,1.29v8.77H747v-8.5c0-2.26-1.07-3.9-3.19-3.9a3.73,3.73,0,0,0-3.43,2.58,3.1,3.1,0,0,0-.23,1.26v8.56h-2.71Z" transform="translate(-32.5 -12)"/><path class="cls-5" d="M772.23,683.19,772,681.4h-.09a5.83,5.83,0,0,1-4.67,2.11c-3.1,0-4.67-2-4.67-4.07,0-3.43,3.28-5.31,9.18-5.28v-.29c0-1.18-.35-3.29-3.47-3.29a8,8,0,0,0-4,1.06l-.63-1.7a9.94,9.94,0,0,1,5-1.27c4.67,0,5.81,3,5.81,5.81v5.31a18.56,18.56,0,0,0,.25,3.4Zm-.42-7.24c-3-.06-6.47.44-6.47,3.19a2.38,2.38,0,0,0,2.62,2.47,3.8,3.8,0,0,0,3.7-2.38,2.63,2.63,0,0,0,.15-.82Z" transform="translate(-32.5 -12)"/><path class="cls-5" d="M779,672.84c0-1.47,0-2.67-.12-3.84h2.46l.16,2.34h.06a5.7,5.7,0,0,1,5.05-2.67c2.12,0,5.4,1.18,5.4,6.05v8.47H789.2V675c0-2.29-.91-4.2-3.53-4.2a3.93,3.93,0,0,0-3.73,2.65,3.6,3.6,0,0,0-.19,1.2v8.53H779Z" transform="translate(-32.5 -12)"/><path class="cls-5" d="M805,683.19l-.22-1.79h-.1a5.82,5.82,0,0,1-4.67,2.11c-3.09,0-4.67-2-4.67-4.07,0-3.43,3.28-5.31,9.19-5.28v-.29c0-1.18-.35-3.29-3.48-3.29a8,8,0,0,0-4,1.06l-.63-1.7a9.93,9.93,0,0,1,5-1.27c4.68,0,5.81,3,5.81,5.81v5.31a18.56,18.56,0,0,0,.25,3.4Zm-.41-7.24c-3-.06-6.47.44-6.47,3.19a2.38,2.38,0,0,0,2.62,2.47,3.79,3.79,0,0,0,3.69-2.38,2.39,2.39,0,0,0,.16-.82Z" transform="translate(-32.5 -12)"/><path class="cls-5" d="M824.86,669c-.06,1-.12,2.17-.12,3.9v8.24c0,3.25-.7,5.25-2.18,6.48a8.53,8.53,0,0,1-5.56,1.7,10.48,10.48,0,0,1-5.08-1.17l.7-2a9.05,9.05,0,0,0,4.48,1.11c2.84,0,4.92-1.37,4.92-4.95v-1.58H822a5.58,5.58,0,0,1-4.86,2.37c-3.79,0-6.5-3-6.5-6.92,0-4.81,3.37-7.54,6.87-7.54a5.15,5.15,0,0,1,4.77,2.47h.07l.12-2.14ZM822,674.6a3.41,3.41,0,0,0-.16-1.18A4,4,0,0,0,818,670.7c-2.65,0-4.55,2.08-4.55,5.36,0,2.79,1.52,5.11,4.52,5.11a4,4,0,0,0,3.85-2.64,4.15,4.15,0,0,0,.22-1.38Z" transform="translate(-32.5 -12)"/><path class="cls-5" d="M830.88,676.56c.07,3.49,2.47,4.93,5.25,4.93a10.67,10.67,0,0,0,4.22-.73l.48,1.84a13.2,13.2,0,0,1-5.08.88c-4.71,0-7.52-2.87-7.52-7.15s2.72-7.66,7.17-7.66c5,0,6.31,4.08,6.31,6.69a9.38,9.38,0,0,1-.09,1.2Zm8.15-1.84c0-1.65-.73-4.2-3.85-4.2-2.81,0-4,2.41-4.26,4.2Z" transform="translate(-32.5 -12)"/><path class="cls-5" d="M845.15,672.84c0-1.47,0-2.67-.13-3.84h2.43l.13,2.28h.09a5.35,5.35,0,0,1,4.8-2.61,4.51,4.51,0,0,1,4.32,2.85h.07a6,6,0,0,1,1.7-1.85,5.54,5.54,0,0,1,3.38-1c2,0,5,1.24,5,6.16v8.36h-2.72v-8c0-2.73-1.07-4.37-3.31-4.37a3.55,3.55,0,0,0-3.28,2.34,3.86,3.86,0,0,0-.22,1.29v8.77h-2.72v-8.5c0-2.26-1.07-3.9-3.19-3.9a3.75,3.75,0,0,0-3.44,2.58,3.28,3.28,0,0,0-.22,1.26v8.56h-2.71Z" transform="translate(-32.5 -12)"/><path class="cls-5" d="M873,676.56c.06,3.49,2.46,4.93,5.24,4.93a10.72,10.72,0,0,0,4.23-.73l.47,1.84a13.16,13.16,0,0,1-5.08.88c-4.7,0-7.51-2.87-7.51-7.15s2.71-7.66,7.17-7.66c5,0,6.31,4.08,6.31,6.69a9,9,0,0,1-.1,1.2Zm8.15-1.84c0-1.65-.73-4.2-3.86-4.2-2.8,0-4,2.41-4.26,4.2Z" transform="translate(-32.5 -12)"/><path class="cls-5" d="M887.27,672.84c0-1.47,0-2.67-.12-3.84h2.46l.16,2.34h.06a5.7,5.7,0,0,1,5-2.67c2.12,0,5.4,1.18,5.4,6.05v8.47H897.5V675c0-2.29-.92-4.2-3.53-4.2a3.92,3.92,0,0,0-3.73,2.65,3.36,3.36,0,0,0-.19,1.2v8.53h-2.78Z" transform="translate(-32.5 -12)"/><path class="cls-5" d="M908,664.92V669h4v2h-4v7.66c0,1.75.53,2.75,2.08,2.75a7.2,7.2,0,0,0,1.61-.17l.12,1.93a7.09,7.09,0,0,1-2.46.35,4,4,0,0,1-3-1.08c-.79-.76-1.08-2-1.08-3.7V671h-2.36v-2h2.36v-3.4Z" transform="translate(-32.5 -12)"/><path class="cls-5" d="M936.94,683.19l-.22-1.79h-.09a5.83,5.83,0,0,1-4.67,2.11c-3.1,0-4.68-2-4.68-4.07,0-3.43,3.29-5.31,9.19-5.28v-.29c0-1.18-.35-3.29-3.47-3.29a8,8,0,0,0-4,1.06l-.63-1.7a9.94,9.94,0,0,1,5-1.27c4.67,0,5.81,3,5.81,5.81v5.31a18.56,18.56,0,0,0,.25,3.4Zm-.41-7.24c-3-.06-6.47.44-6.47,3.19a2.38,2.38,0,0,0,2.62,2.47,3.81,3.81,0,0,0,3.7-2.38,2.63,2.63,0,0,0,.15-.82Z" transform="translate(-32.5 -12)"/><path class="cls-5" d="M943.69,672.84c0-1.47,0-2.67-.12-3.84H946l.16,2.34h.06a5.69,5.69,0,0,1,5-2.67c2.12,0,5.4,1.18,5.4,6.05v8.47h-2.78V675c0-2.29-.91-4.2-3.53-4.2a3.91,3.91,0,0,0-3.73,2.65,3.36,3.36,0,0,0-.19,1.2v8.53h-2.78Z" transform="translate(-32.5 -12)"/><path class="cls-5" d="M974.4,662.37v17.15c0,1.27,0,2.7.13,3.67H972l-.12-2.46h-.06a5.75,5.75,0,0,1-5.21,2.78c-3.7,0-6.54-2.9-6.54-7.21,0-4.72,3.13-7.63,6.85-7.63a5.2,5.2,0,0,1,4.61,2.18h.06v-8.48Zm-2.78,12.4a4.42,4.42,0,0,0-.12-1.08,4,4,0,0,0-4-3c-2.87,0-4.58,2.34-4.58,5.48,0,2.87,1.52,5.25,4.52,5.25a4.12,4.12,0,0,0,4.07-3.08,4.34,4.34,0,0,0,.12-1.11Z" transform="translate(-32.5 -12)"/><path class="cls-5" d="M998.89,662.37v17.15c0,1.27,0,2.7.13,3.67h-2.5l-.12-2.46h-.07a5.72,5.72,0,0,1-5.21,2.78c-3.69,0-6.53-2.9-6.53-7.21,0-4.72,3.13-7.63,6.85-7.63a5.2,5.2,0,0,1,4.61,2.18h.06v-8.48Zm-2.78,12.4a4.42,4.42,0,0,0-.12-1.08,4,4,0,0,0-4-3c-2.88,0-4.58,2.34-4.58,5.48,0,2.87,1.51,5.25,4.51,5.25a4.12,4.12,0,0,0,4.08-3.08,4.34,4.34,0,0,0,.12-1.11Z" transform="translate(-32.5 -12)"/><path class="cls-5" d="M1005,676.56c.06,3.49,2.46,4.93,5.24,4.93a10.72,10.72,0,0,0,4.23-.73l.47,1.84a13.16,13.16,0,0,1-5.08.88c-4.7,0-7.51-2.87-7.51-7.15s2.71-7.66,7.16-7.66c5,0,6.32,4.08,6.32,6.69a9,9,0,0,1-.1,1.2Zm8.14-1.84c0-1.65-.72-4.2-3.85-4.2-2.81,0-4,2.41-4.26,4.2Z" transform="translate(-32.5 -12)"/><path class="cls-5" d="M1018.92,680.55a7.68,7.68,0,0,0,3.66,1c2,0,3-.94,3-2.11s-.79-1.91-2.84-2.61c-2.75-.91-4-2.32-4-4,0-2.29,2-4.17,5.27-4.17a8.06,8.06,0,0,1,3.76.89l-.7,1.87a6.28,6.28,0,0,0-3.12-.82c-1.64,0-2.56.88-2.56,1.94s.92,1.7,2.91,2.4c2.65.94,4,2.17,4,4.28,0,2.49-2.09,4.25-5.72,4.25a9.32,9.32,0,0,1-4.29-1Z" transform="translate(-32.5 -12)"/><path class="cls-5" d="M1034.89,665a1.73,1.73,0,0,1-3.44,0,1.64,1.64,0,0,1,1.74-1.61A1.58,1.58,0,0,1,1034.89,665Zm-3.09,18.18V669h2.77v14.19Z" transform="translate(-32.5 -12)"/><path class="cls-5" d="M1052.35,669c-.07,1-.13,2.17-.13,3.9v8.24c0,3.25-.7,5.25-2.18,6.48a8.51,8.51,0,0,1-5.56,1.7,10.53,10.53,0,0,1-5.08-1.17l.7-2a9.08,9.08,0,0,0,4.48,1.11c2.84,0,4.92-1.37,4.92-4.95v-1.58h-.06a5.55,5.55,0,0,1-4.86,2.37c-3.79,0-6.5-3-6.5-6.92,0-4.81,3.37-7.54,6.88-7.54a5.18,5.18,0,0,1,4.77,2.47h.06l.12-2.14Zm-2.88,5.6a3.67,3.67,0,0,0-.15-1.18,4,4,0,0,0-3.89-2.72c-2.65,0-4.54,2.08-4.54,5.36,0,2.79,1.51,5.11,4.51,5.11a4,4,0,0,0,3.85-2.64,4.15,4.15,0,0,0,.22-1.38Z" transform="translate(-32.5 -12)"/><path class="cls-5" d="M1056.63,672.84c0-1.47,0-2.67-.12-3.84H1059l.16,2.34h.06a5.69,5.69,0,0,1,5-2.67c2.12,0,5.4,1.18,5.4,6.05v8.47h-2.78V675c0-2.29-.91-4.2-3.53-4.2a3.91,3.91,0,0,0-3.73,2.65,3.36,3.36,0,0,0-.19,1.2v8.53h-2.78Z" transform="translate(-32.5 -12)"/><line class="cls-3" x1="567.82" y1="69.65" x2="567.82" y2="232.85"/><rect class="cls-4" x="566.07" y="69.65" width="3.51" height="163.2"/><ellipse class="cls-3" cx="567.82" cy="239.81" rx="10.05" ry="8.83"/><path class="cls-5" d="M863.42,268.23a43,43,0,0,1,5.84-.41c3.94,0,6.76.85,8.62,2.46a8.8,8.8,0,0,1,3,7.1,10,10,0,0,1-3.06,7.68c-2,1.85-5.27,2.85-9.4,2.85a46.64,46.64,0,0,1-5-.24Zm2.74,17.48a18.57,18.57,0,0,0,2.79.14c5.86,0,9-3.05,9-8.38,0-4.67-2.81-7.63-8.61-7.63a16.55,16.55,0,0,0-3.23.27Z" transform="translate(-32.5 -12)"/><path class="cls-5" d="M887.44,269.55a1.73,1.73,0,0,1-3.45,0,1.64,1.64,0,0,1,1.74-1.61A1.59,1.59,0,0,1,887.44,269.55Zm-3.1,18.18V273.54h2.78v14.19Z" transform="translate(-32.5 -12)"/><path class="cls-5" d="M904.89,273.54c-.07,1-.13,2.17-.13,3.9v8.24c0,3.25-.69,5.25-2.18,6.48a8.5,8.5,0,0,1-5.55,1.7,10.55,10.55,0,0,1-5.09-1.17l.7-2a9.08,9.08,0,0,0,4.48,1.12c2.84,0,4.93-1.38,4.93-5V285.3H902a5.55,5.55,0,0,1-4.86,2.37c-3.79,0-6.5-3-6.5-6.92,0-4.81,3.38-7.54,6.88-7.54a5.18,5.18,0,0,1,4.77,2.47h.06l.13-2.14Zm-2.87,5.6a3.56,3.56,0,0,0-.16-1.17,4,4,0,0,0-3.89-2.73c-2.65,0-4.54,2.08-4.54,5.37,0,2.78,1.51,5.1,4.51,5.1a4,4,0,0,0,3.85-2.64,4.16,4.16,0,0,0,.23-1.38Z" transform="translate(-32.5 -12)"/><path class="cls-5" d="M912.27,269.55a1.73,1.73,0,0,1-3.44,0,1.63,1.63,0,0,1,1.73-1.61A1.59,1.59,0,0,1,912.27,269.55Zm-3.1,18.18V273.54H912v14.19Z" transform="translate(-32.5 -12)"/><path class="cls-5" d="M919.9,269.46v4.08h4v2h-4v7.66c0,1.76.54,2.75,2.09,2.75a6.64,6.64,0,0,0,1.61-.17l.12,1.93a7.13,7.13,0,0,1-2.46.35,4,4,0,0,1-3-1.08c-.79-.76-1.07-2-1.07-3.7V275.5h-2.37v-2h2.37v-3.4Z" transform="translate(-32.5 -12)"/><path class="cls-5" d="M935.46,287.73l-.22-1.79h-.09a5.85,5.85,0,0,1-4.67,2.11c-3.1,0-4.68-2-4.68-4.07,0-3.43,3.29-5.31,9.19-5.28v-.29c0-1.18-.35-3.29-3.47-3.29a8,8,0,0,0-4,1.06l-.63-1.7a9.94,9.94,0,0,1,5-1.27c4.67,0,5.8,3,5.8,5.81v5.31a18.51,18.51,0,0,0,.26,3.4Zm-.41-7.24c-3-.06-6.47.44-6.47,3.19a2.38,2.38,0,0,0,2.62,2.47,3.79,3.79,0,0,0,3.69-2.38,2.34,2.34,0,0,0,.16-.82Z" transform="translate(-32.5 -12)"/><path class="cls-5" d="M942.21,266.91H945v20.82h-2.78Z" transform="translate(-32.5 -12)"/><path class="cls-5" d="M956.35,277.38c0-1.47,0-2.67-.13-3.84h2.43l.13,2.28h.1a5.34,5.34,0,0,1,4.79-2.61,4.53,4.53,0,0,1,4.33,2.85h.06a6,6,0,0,1,1.7-1.85,5.54,5.54,0,0,1,3.38-1c2,0,5,1.24,5,6.16v8.36h-2.71v-8c0-2.73-1.08-4.37-3.32-4.37a3.55,3.55,0,0,0-3.28,2.34,3.86,3.86,0,0,0-.22,1.29v8.77h-2.72v-8.5c0-2.26-1.07-3.9-3.19-3.9a3.73,3.73,0,0,0-3.43,2.58,3.28,3.28,0,0,0-.23,1.26v8.56h-2.71Z" transform="translate(-32.5 -12)"/><path class="cls-5" d="M984.21,281.1c.06,3.49,2.47,4.93,5.24,4.93a10.72,10.72,0,0,0,4.23-.73l.48,1.84a13.24,13.24,0,0,1-5.08.88c-4.71,0-7.52-2.87-7.52-7.15s2.71-7.66,7.17-7.66c5,0,6.31,4.08,6.31,6.69a7.56,7.56,0,0,1-.1,1.2Zm8.15-1.84c0-1.65-.73-4.2-3.85-4.2-2.81,0-4,2.41-4.27,4.2Z" transform="translate(-32.5 -12)"/><path class="cls-5" d="M1011.67,266.91v17.15c0,1.27,0,2.7.13,3.67h-2.5l-.13-2.46h-.06a5.72,5.72,0,0,1-5.2,2.78c-3.7,0-6.54-2.9-6.54-7.21,0-4.72,3.12-7.63,6.85-7.63a5.21,5.21,0,0,1,4.61,2.18h.06v-8.48Zm-2.78,12.4a4.42,4.42,0,0,0-.12-1.08,4,4,0,0,0-4-3c-2.88,0-4.58,2.35-4.58,5.48,0,2.88,1.52,5.25,4.51,5.25a4.12,4.12,0,0,0,4.08-3.08,4.34,4.34,0,0,0,.12-1.11Z" transform="translate(-32.5 -12)"/><path class="cls-5" d="M1019.37,269.55a1.73,1.73,0,0,1-3.44,0,1.63,1.63,0,0,1,1.73-1.61A1.59,1.59,0,0,1,1019.37,269.55Zm-3.1,18.18V273.54h2.78v14.19Z" transform="translate(-32.5 -12)"/><path class="cls-5" d="M1032.12,287.73l-.22-1.79h-.1a5.82,5.82,0,0,1-4.67,2.11c-3.09,0-4.67-2-4.67-4.07,0-3.43,3.28-5.31,9.18-5.28v-.29c0-1.18-.34-3.29-3.47-3.29a8,8,0,0,0-4,1.06l-.63-1.7a10,10,0,0,1,5-1.27c4.67,0,5.81,3,5.81,5.81v5.31a18.56,18.56,0,0,0,.25,3.4Zm-.41-7.24c-3-.06-6.47.44-6.47,3.19a2.38,2.38,0,0,0,2.62,2.47,3.79,3.79,0,0,0,3.69-2.38,2.59,2.59,0,0,0,.16-.82Z" transform="translate(-32.5 -12)"/><path class="cls-5" d="M1058.75,266.91v17.15c0,1.27,0,2.7.13,3.67h-2.5l-.12-2.46h-.07a5.72,5.72,0,0,1-5.2,2.78c-3.7,0-6.54-2.9-6.54-7.21,0-4.72,3.13-7.63,6.85-7.63a5.21,5.21,0,0,1,4.61,2.18h.06v-8.48Zm-2.78,12.4a4.42,4.42,0,0,0-.12-1.08,4,4,0,0,0-4-3c-2.87,0-4.58,2.35-4.58,5.48,0,2.88,1.52,5.25,4.51,5.25a4.12,4.12,0,0,0,4.08-3.08,4.34,4.34,0,0,0,.12-1.11Z" transform="translate(-32.5 -12)"/><path class="cls-5" d="M1064.9,281.1c.06,3.49,2.46,4.93,5.24,4.93a10.72,10.72,0,0,0,4.23-.73l.47,1.84a13.16,13.16,0,0,1-5.08.88c-4.7,0-7.51-2.87-7.51-7.15s2.71-7.66,7.16-7.66c5,0,6.32,4.08,6.32,6.69a7.56,7.56,0,0,1-.1,1.2Zm8.14-1.84c0-1.65-.72-4.2-3.84-4.2-2.82,0-4,2.41-4.27,4.2Z" transform="translate(-32.5 -12)"/><path class="cls-5" d="M1078.79,285.09a7.62,7.62,0,0,0,3.66,1c2,0,3-.94,3-2.11s-.8-1.91-2.85-2.61c-2.74-.91-4-2.32-4-4,0-2.29,2-4.17,5.27-4.17a8.06,8.06,0,0,1,3.76.89l-.69,1.87a6.36,6.36,0,0,0-3.13-.82c-1.64,0-2.56.88-2.56,1.94s.92,1.7,2.91,2.4c2.65.94,4,2.17,4,4.28,0,2.49-2.09,4.25-5.72,4.25a9.32,9.32,0,0,1-4.29-1Z" transform="translate(-32.5 -12)"/><path class="cls-5" d="M1094.75,269.55a1.73,1.73,0,0,1-3.44,0,1.64,1.64,0,0,1,1.74-1.61A1.58,1.58,0,0,1,1094.75,269.55Zm-3.09,18.18V273.54h2.78v14.19Z" transform="translate(-32.5 -12)"/><path class="cls-5" d="M1112.21,273.54c-.07,1-.13,2.17-.13,3.9v8.24c0,3.25-.69,5.25-2.18,6.48a8.5,8.5,0,0,1-5.55,1.7,10.42,10.42,0,0,1-5.08-1.17l.69-2a9.08,9.08,0,0,0,4.48,1.12c2.84,0,4.93-1.38,4.93-5V285.3h-.07a5.55,5.55,0,0,1-4.86,2.37c-3.79,0-6.5-3-6.5-6.92,0-4.81,3.38-7.54,6.88-7.54a5.18,5.18,0,0,1,4.77,2.47h.06l.13-2.14Zm-2.87,5.6a3.31,3.31,0,0,0-.17-1.17,3.94,3.94,0,0,0-3.87-2.73c-2.66,0-4.55,2.08-4.55,5.37,0,2.78,1.51,5.1,4.51,5.1a4,4,0,0,0,3.85-2.64,4.16,4.16,0,0,0,.23-1.38Z" transform="translate(-32.5 -12)"/><path class="cls-5" d="M1116.5,277.38c0-1.47,0-2.67-.13-3.84h2.46l.16,2.34h.06a5.7,5.7,0,0,1,5-2.67c2.12,0,5.4,1.18,5.4,6.05v8.47h-2.78v-8.18c0-2.29-.91-4.19-3.53-4.19a3.91,3.91,0,0,0-3.73,2.64,3.36,3.36,0,0,0-.19,1.2v8.53h-2.77Z" transform="translate(-32.5 -12)"/><path class="cls-5" d="M881.6,313.47c0,6.8-4.45,10.41-9.88,10.41-5.62,0-9.56-4.05-9.56-10,0-6.27,4.2-10.38,9.88-10.38S881.6,307.61,881.6,313.47Zm-16.51.32c0,4.23,2.47,8,6.79,8s6.82-3.72,6.82-8.21c0-3.93-2.21-8-6.79-8S865.09,309.46,865.09,313.79Z" transform="translate(-32.5 -12)"/><path class="cls-5" d="M884.69,320.92a7.65,7.65,0,0,0,3.66,1c2,0,3-.94,3-2.12s-.79-1.9-2.84-2.6c-2.75-.91-4-2.32-4-4,0-2.29,2-4.17,5.27-4.17a8.23,8.23,0,0,1,3.76.88l-.7,1.88a6.32,6.32,0,0,0-3.13-.82c-1.64,0-2.55.88-2.55,1.93s.91,1.71,2.9,2.41c2.65.94,4,2.17,4,4.28,0,2.49-2.08,4.25-5.71,4.25a9.23,9.23,0,0,1-4.3-1Z" transform="translate(-32.5 -12)"/><path class="cls-5" d="M897.56,302.74h2.78v20.82h-2.78Z" transform="translate(-32.5 -12)"/><path class="cls-5" d="M918.84,316.35c0,5.24-3.92,7.53-7.61,7.53a7,7,0,0,1-7.32-7.3,7.18,7.18,0,0,1,7.57-7.54A7,7,0,0,1,918.84,316.35Zm-12.12.14c0,3.11,1.92,5.46,4.64,5.46s4.64-2.32,4.64-5.52c0-2.4-1.3-5.45-4.58-5.45S906.72,313.79,906.72,316.49Z" transform="translate(-32.5 -12)"/><path class="cls-5" d="M922.34,313.21c0-1.47,0-2.67-.13-3.84h2.43l.13,2.28h.09a5.32,5.32,0,0,1,4.8-2.61,4.51,4.51,0,0,1,4.32,2.85h.07a6,6,0,0,1,1.7-1.85,5.54,5.54,0,0,1,3.38-1c2,0,5,1.24,5,6.16v8.36h-2.72v-8c0-2.72-1.07-4.36-3.31-4.36a3.57,3.57,0,0,0-3.29,2.34,4.15,4.15,0,0,0-.21,1.29v8.77H931.9v-8.5c0-2.26-1.07-3.9-3.19-3.9a3.75,3.75,0,0,0-3.44,2.58,3.28,3.28,0,0,0-.22,1.26v8.56h-2.71Z" transform="translate(-32.5 -12)"/><path class="cls-5" d="M950.2,316.93c.06,3.49,2.46,4.93,5.24,4.93a10.72,10.72,0,0,0,4.23-.73l.47,1.84a13.16,13.16,0,0,1-5.08.88c-4.7,0-7.51-2.87-7.51-7.15s2.71-7.66,7.16-7.66c5,0,6.32,4.08,6.32,6.69a9,9,0,0,1-.1,1.2Zm8.14-1.84c0-1.65-.72-4.2-3.85-4.2-2.81,0-4,2.41-4.26,4.2Z" transform="translate(-32.5 -12)"/><path class="cls-5" d="M967.81,305.29v4.08h4v2h-4V319c0,1.75.54,2.75,2.08,2.75a6.48,6.48,0,0,0,1.61-.18l.13,1.94a7.2,7.2,0,0,1-2.47.35,4,4,0,0,1-3-1.08c-.79-.76-1.08-2-1.08-3.7v-7.74h-2.36v-2h2.36V306Z" transform="translate(-32.5 -12)"/><path class="cls-5" d="M878.29,358.74a14.52,14.52,0,0,1-5.62.94c-6,0-10.51-3.52-10.51-10,0-6.19,4.51-10.38,11.11-10.38a12.2,12.2,0,0,1,5.05.88l-.66,2.08a10.66,10.66,0,0,0-4.3-.82c-5,0-8.3,3-8.3,8.15,0,4.84,3,8,8.18,8a11.67,11.67,0,0,0,4.48-.82Z" transform="translate(-32.5 -12)"/><path class="cls-5" d="M895.11,352.17c0,5.25-3.92,7.54-7.61,7.54a7,7,0,0,1-7.32-7.3,7.18,7.18,0,0,1,7.57-7.54A7,7,0,0,1,895.11,352.17Zm-12.13.15c0,3.11,1.93,5.46,4.64,5.46s4.64-2.32,4.64-5.52c0-2.4-1.29-5.45-4.57-5.45S883,349.62,883,352.32Z" transform="translate(-32.5 -12)"/><path class="cls-5" d="M898.6,338.57h2.78v20.82H898.6Z" transform="translate(-32.5 -12)"/><path class="cls-5" d="M906.05,338.57h2.78v20.82h-2.78Z" transform="translate(-32.5 -12)"/><path class="cls-5" d="M915.05,352.76c.06,3.49,2.46,4.93,5.24,4.93a10.73,10.73,0,0,0,4.23-.74l.47,1.85a13.2,13.2,0,0,1-5.08.88c-4.71,0-7.51-2.87-7.51-7.15s2.71-7.66,7.16-7.66c5,0,6.31,4.08,6.31,6.69a9.38,9.38,0,0,1-.09,1.2Zm8.14-1.85c0-1.64-.73-4.19-3.85-4.19-2.81,0-4,2.4-4.26,4.19Z" transform="translate(-32.5 -12)"/><path class="cls-5" d="M942.47,345.2c-.06,1-.12,2.17-.12,3.89v8.24c0,3.26-.7,5.25-2.18,6.49a8.53,8.53,0,0,1-5.56,1.7,10.37,10.37,0,0,1-5.08-1.18l.7-2a9.16,9.16,0,0,0,4.48,1.11c2.84,0,4.92-1.37,4.92-4.95V357h-.06a5.58,5.58,0,0,1-4.86,2.38c-3.79,0-6.5-3-6.5-6.92,0-4.81,3.37-7.54,6.87-7.54a5.13,5.13,0,0,1,4.77,2.47h.07l.12-2.14Zm-2.87,5.6a3.41,3.41,0,0,0-.16-1.18,4,4,0,0,0-3.88-2.72c-2.65,0-4.55,2.08-4.55,5.36,0,2.79,1.52,5.1,4.52,5.1a3.94,3.94,0,0,0,4.07-4Z" transform="translate(-32.5 -12)"/><path class="cls-5" d="M959.73,355.52c0,1.46,0,2.75.13,3.87H957.4l-.16-2.32h-.07a5.82,5.82,0,0,1-5,2.64c-2.4,0-5.27-1.23-5.27-6.22V345.2h2.78v7.85c0,2.7.88,4.52,3.41,4.52a4,4,0,0,0,3.66-2.35,3.49,3.49,0,0,0,.25-1.32v-8.7h2.78Z" transform="translate(-32.5 -12)"/><path class="cls-5" d="M965.88,352.76c.06,3.49,2.46,4.93,5.24,4.93a10.69,10.69,0,0,0,4.23-.74l.47,1.85a13.2,13.2,0,0,1-5.08.88c-4.7,0-7.51-2.87-7.51-7.15s2.71-7.66,7.16-7.66c5,0,6.32,4.08,6.32,6.69a7.56,7.56,0,0,1-.1,1.2Zm8.14-1.85c0-1.64-.72-4.19-3.85-4.19-2.81,0-4,2.4-4.26,4.19Z" transform="translate(-32.5 -12)"/><path class="cls-5" d="M862.44,395.22v-1.59l2.18-2c5.24-4.63,7.61-7.1,7.64-10,0-1.94-1-3.73-4.07-3.73a7.24,7.24,0,0,0-4.36,1.62l-.88-1.82a9.38,9.38,0,0,1,5.8-1.94c4.42,0,6.29,2.82,6.29,5.55,0,3.51-2.75,6.36-7.07,10.23L866.32,393v.06h9.22v2.14Z" transform="translate(-32.5 -12)"/><path class="cls-5" d="M892.27,385.48c0,6.48-2.59,10.06-7.14,10.06-4,0-6.72-3.49-6.79-9.79s3-9.92,7.14-9.92S892.27,379.41,892.27,385.48Zm-11.15.29c0,5,1.64,7.78,4.17,7.78,2.84,0,4.2-3.08,4.2-7.95,0-4.69-1.3-7.77-4.17-7.77C882.89,377.83,881.12,380.58,881.12,385.77Z" transform="translate(-32.5 -12)"/><path class="cls-5" d="M900.84,378.56h-.06l-3.57,1.79-.53-2,4.48-2.23h2.37v19.06h-2.69Z" transform="translate(-32.5 -12)"/><path class="cls-5" d="M917,378.56H917l-3.57,1.79-.53-2,4.48-2.23h2.36v19.06H917Z" transform="translate(-32.5 -12)"/><line class="cls-3" x1="801.97" y1="235.46" x2="801.97" y2="401.65"/><rect class="cls-4" x="800.22" y="235.46" width="3.51" height="166.2"/><ellipse class="cls-3" cx="801.97" cy="229.91" rx="10.05" ry="10.58"/><rect class="cls-6" x="129.48" y="463.14" width="863.98" height="2.44"/><rect class="cls-6" x="566.5" y="509.33" width="2.63" height="233.67"/></svg>