<?xml version="1.0" encoding="utf-8"?>
<!-- Generator: Adobe Illustrator 23.1.0, SVG Export Plug-In . SVG Version: 6.00 Build 0)  -->
<svg version="1.1" id="Layer_1" xmlns="http://www.w3.org/2000/svg" xmlns:xlink="http://www.w3.org/1999/xlink" x="0px" y="0px"
	 viewBox="0 0 1280 1289" style="enable-background:new 0 0 1280 1289;" xml:space="preserve">
<style type="text/css">
	.st0{fill:none;}
	.st1{opacity:0.85;}
	.st2{fill:#7F785B;}
	.st3{fill:#FCEEBC;}
	.st4{fill:#D5A076;}
	.st5{fill:#9E2221;}
	.st6{font-family:'Lato-Regular';}
	.st7{font-size:30px;}
	.st8{fill:none;stroke:#231F20;stroke-miterlimit:10;}
	.st9{fill:none;stroke:#7F785B;stroke-miterlimit:10;}
	.st10{font-size:36px;}
	.st11{font-family:'ArialMT';}
	.st12{font-size:71.6722px;}
	.st13{fill:none;stroke:#D6A176;stroke-width:0.75;stroke-miterlimit:10;}
</style>
<rect x="1148.21" y="787.6" class="st0" width="6.2" height="3.1"/>
<g class="st1">
	<g>
		<path class="st2" d="M950.47,287.35l-24.18,57.86c-8.04-2.29-16.58-3.54-25.43-3.54c-1.94,0-3.87,0.06-5.77,0.18v-63.94
			C915.73,277.92,931.18,280.55,950.47,287.35z"/>
	</g>
	<g>
		<path class="st3" d="M1035.88,470.69c-0.92,2.2-2.06,4.72-3.1,6.87l-58.63-23.96c5.33-10.21,8.33-21.67,8.33-33.75
			c0-35.03-25.1-64.68-59.7-74.62l24.18-57.86C1026.66,315.44,1066.47,397.52,1035.88,470.69z"/>
	</g>
	<g>
		<path class="st4" d="M1032.78,477.55c-34.73,71.6-126.11,103.8-204.1,71.92c-28.3-11.57-49.88-28.49-66.76-52.35l62.36-37.16
			c14.87,22.78,42.03,38.04,73.06,38.04c33.86,0,63.1-18.15,76.81-44.4L1032.78,477.55z"/>
	</g>
	<g>
		<path class="st5" d="M891.57,277.92v63.94c-44.32,2.73-79.36,36.6-79.36,77.98c0,14.67,4.4,28.39,12.07,40.12l-62.36,37.16
			c-46.5-65.73-26.15-153.62,45.45-196.31C833.37,285.32,860.58,277.92,891.57,277.92z"/>
	</g>
</g>
<rect x="685.98" y="223.89" class="st0" width="71.49" height="35.73"/>
<text transform="matrix(1.0974 0 0 1 685.976 246.0031)" class="st2 st6 st7">40%</text>
<rect x="915.12" y="215.97" class="st0" width="40.11" height="15.85"/>
<line class="st8" x1="915.12" y1="204.13" x2="915.12" y2="279.39"/>
<polyline class="st9" points="986.21,509.31 986.21,560.1 1027.41,560.1 "/>
<polyline class="st9" points="721.72,258.5 721.72,325.98 772.84,325.98 "/>
<polyline class="st9" points="1089.3,364.09 1089.3,410.95 1046.71,410.95 "/>
<rect x="750.73" y="588.02" transform="matrix(6.123234e-17 -1 1 6.123234e-17 162.7155 1365.12)" class="st5" width="26.37" height="26.37"/>
<rect x="750.73" y="645.35" transform="matrix(-1 -1.224647e-16 1.224647e-16 -1 1527.8354 1317.067)" class="st4" width="26.37" height="26.37"/>
<rect x="751.39" y="745.7" transform="matrix(6.123234e-17 -1 1 6.123234e-17 5.6888 1522.1466)" class="st3" width="25.05" height="25.05"/>
<rect x="750.73" y="698.22" transform="matrix(-1 -1.224647e-16 1.224647e-16 -1 1527.8354 1422.8121)" class="st2" width="26.37" height="26.37"/>
<text transform="matrix(1 0 0 1 794.9499 614.746)" class="st2 st6 st10">Customer service</text>
<text transform="matrix(1 0 0 1 794.9505 674.0396)" class="st2 st6 st10">Marketing</text>
<text transform="matrix(1 0 0 1 794.9501 723.8604)" class="st2 st6 st10">Design</text>
<text transform="matrix(1 0 0 1 794.9506 770.754)" class="st2 st6 st10">Projectmanagement</text>
<rect x="1063.17" y="316.89" class="st0" width="71.49" height="35.73"/>
<text transform="matrix(1.0974 0 0 1 1063.168 338.9965)" class="st2 st6 st7">30%</text>
<rect x="887.03" y="169.87" class="st0" width="71.49" height="35.73"/>
<text transform="matrix(1.0974 0 0 1 887.0324 191.9782)" class="st2 st6 st7">15%</text>
<rect x="1039.36" y="545.47" class="st0" width="71.49" height="35.73"/>
<text transform="matrix(1.0974 0 0 1 1039.3574 567.5767)" class="st2 st6 st7">40%</text>
<g>
	<polygon class="st3" points="489.56,273.88 132.06,273.88 132.06,90 487.5,90 530.65,181.94 	"/>
	<rect x="150.76" y="112" class="st0" width="361.19" height="172"/>
	<text transform="matrix(0.9499 0 0 1 150.7576 138.5316)"><tspan x="0" y="0" class="st2 st6 st10">Graphicdesigner</tspan><tspan x="0" y="42" class="st2 st6 st10">Plan A communication</tspan><tspan x="0" y="84" class="st2 st6 st10">Jan 2020-Mars 2020</tspan></text>
	<polygon class="st3" points="489.56,513.88 132.06,513.88 132.06,330 487.5,330 530.65,421.94 	"/>
	<rect x="150.76" y="336" class="st0" width="361.19" height="172"/>
	<text transform="matrix(0.9499 0 0 1 150.7576 362.5316)"><tspan x="0" y="0" class="st2 st6 st10">Content Creator</tspan><tspan x="0" y="42" class="st2 st6 st10">Bærum International </tspan><tspan x="0" y="84" class="st2 st6 st10">Hub</tspan><tspan x="0" y="126" class="st2 st6 st10">Jan 2019-Mars 2019</tspan></text>
	<polygon class="st3" points="489.56,726.88 132.06,726.88 132.06,543 487.5,543 530.65,634.94 	"/>
	<rect x="150.76" y="576" class="st0" width="361.19" height="172"/>
	<text transform="matrix(0.9499 0 0 1 150.7576 602.5316)"><tspan x="0" y="0" class="st2 st6 st10">Freelance Writer</tspan><tspan x="0" y="42" class="st2 st6 st10">Helgelandsbland</tspan><tspan x="0" y="84" class="st2 st6 st10">2018</tspan></text>
	<polygon class="st3" points="489.56,965.88 132.06,965.88 132.06,782 487.5,782 530.65,873.94 	"/>
	<rect x="150.76" y="816" class="st0" width="361.19" height="172"/>
	<text transform="matrix(0.9499 0 0 1 150.7576 842.5316)"><tspan x="0" y="0" class="st2 st6 st10">Office Administrator</tspan><tspan x="0" y="42" class="st2 st6 st10">Norwegian Taxoffice</tspan><tspan x="0" y="84" class="st2 st6 st10">2015-2020</tspan></text>
	<g>
		<ellipse class="st5" cx="592.93" cy="196.44" rx="13.72" ry="14.44"/>
		<ellipse class="st5" cx="591.95" cy="414.79" rx="13.72" ry="14.44"/>
		<ellipse class="st5" cx="595.55" cy="655.06" rx="13.72" ry="14.44"/>
		<ellipse class="st5" cx="591.95" cy="870.56" rx="13.72" ry="14.44"/>
		<polyline class="st5" points="592.93,196.44 591.95,414.79 595.55,640.62 591.95,885 		"/>
	</g>
</g>
<text transform="matrix(1 0 0 1 358.1288 1176.2969)" class="st2 st11 st12">years</text>
<line class="st13" x1="363.92" y1="1056.81" x2="854.52" y2="1056.81"/>
<line class="st13" x1="603.52" y1="1099.71" x2="603.52" y2="1242.61"/>
<text transform="matrix(1 0 0 1 267.6821 1185.4458)" class="st2 st11 st12">10</text>
<rect x="235.39" y="1111.71" class="st0" width="350" height="109.76"/>
<rect x="671.27" y="1086.06" class="st0" width="536.71" height="157"/>
<text transform="matrix(1 0 0 1 671.2675 1108.1653)"><tspan x="0" y="0" class="st2 st6 st7">More than 10 years of international </tspan><tspan x="0" y="36" class="st2 st6 st7">working experience in the field of  a</tspan><tspan x="473.93" y="36" class="st2 st6 st7">-</tspan><tspan x="0" y="72" class="st2 st6 st7">counting, marketing, customer service, </tspan><tspan x="0" y="108" class="st2 st6 st7">laws and office management. </tspan></text>
</svg>
