<?xml version="1.0" encoding="utf-8"?>
<!-- Generator: Adobe Illustrator 23.1.0, SVG Export Plug-In . SVG Version: 6.00 Build 0)  -->
<svg version="1.1" id="Layer_1" xmlns="http://www.w3.org/2000/svg" xmlns:xlink="http://www.w3.org/1999/xlink" x="0px" y="0px"
	 viewBox="0 0 1123.3 756.4" style="enable-background:new 0 0 1123.3 756.4;" xml:space="preserve">
<style type="text/css">
	.st0{display:none;}
	.st1{display:inline;fill:none;}
	.st2{display:inline;fill:#9F2221;}
	.st3{display:inline;opacity:0.26;fill:#FDEFBD;enable-background:new    ;}
	.st4{fill:#FDEFBD;}
	.st5{fill:none;}
	.st6{fill:none;stroke:#9B1B37;stroke-miterlimit:10;}
	.st7{fill:#9F2221;}
	.st8{fill:none;stroke:#D6A176;stroke-width:0.75;stroke-miterlimit:10;}
	.st9{fill:#FCEEBC;}
	.st10{fill:#7F785B;}
	.st11{font-family:'Lato-Regular';}
	.st12{font-size:30px;}
	.st13{fill:#9E2221;}
	.st14{opacity:0.85;}
	.st15{fill:#D5A076;}
	.st16{fill:none;stroke:#231F20;stroke-miterlimit:10;}
	.st17{fill:none;stroke:#7F785B;stroke-miterlimit:10;}
	.st18{font-size:36px;}
</style>
<g id="Backgound" class="st0">
	<rect x="283.5" y="478.8" class="st1" width="410.2" height="34.3"/>
	<polygon class="st2" points="297,1104.8 295.5,1106.1 295.7,1108.1 293.9,1107 292,1107.8 292.5,1105.8 291.1,1104.3 293.2,1104.2 
		294.2,1102.5 295,1104.3 	"/>
	<polygon class="st2" points="295.8,1139.8 294.2,1141.1 294.5,1143.1 292.7,1142 290.8,1142.8 291.3,1140.8 289.9,1139.3 
		292,1139.2 293,1137.4 293.8,1139.3 	"/>
	<polygon class="st2" points="295.8,1121.5 294.2,1122.7 294.5,1124.8 292.7,1123.7 290.8,1124.4 291.3,1122.5 289.9,1121 
		292,1120.8 293,1119.1 293.8,1121 	"/>
	<polygon class="st2" points="310.4,1104.8 308.8,1106.1 309,1108.1 307.3,1107 305.4,1107.8 305.9,1105.8 304.5,1104.3 
		306.5,1104.2 307.6,1102.5 308.4,1104.3 	"/>
	<polygon class="st2" points="310.4,1121.5 308.8,1122.7 309,1124.8 307.3,1123.7 305.4,1124.4 305.9,1122.5 304.5,1121 
		306.5,1120.8 307.6,1119.1 308.4,1121 	"/>
	<polygon class="st2" points="355.4,1139.8 353.8,1141.1 354,1143.1 352.3,1142 350.4,1142.8 350.9,1140.8 349.5,1139.3 
		351.6,1139.2 352.6,1137.4 353.4,1139.3 	"/>
	<polygon class="st2" points="355.4,1121.5 353.8,1122.7 354,1124.8 352.3,1123.7 350.4,1124.4 350.9,1122.5 349.5,1121 
		351.6,1120.8 352.6,1119.1 353.4,1121 	"/>
	<polygon class="st2" points="341.1,1121.5 339.5,1122.7 339.7,1124.8 338,1123.7 336.1,1124.4 336.5,1122.5 335.2,1121 
		337.2,1120.8 338.3,1119.1 339,1121 	"/>
	<polygon class="st2" points="325.7,1121.5 324.1,1122.7 324.4,1124.8 322.6,1123.7 320.7,1124.4 321.2,1122.5 319.8,1121 
		321.9,1120.8 322.9,1119.1 323.7,1121 	"/>
	<polygon class="st2" points="310.2,1139.8 308.6,1141.1 308.9,1143.1 307.1,1142 305.2,1142.8 305.7,1140.8 304.3,1139.3 
		306.4,1139.2 307.4,1137.4 308.2,1139.3 	"/>
	<polygon class="st2" points="325.7,1139.8 324.1,1141.1 324.4,1143.1 322.6,1142 320.7,1142.8 321.2,1140.8 319.8,1139.3 
		321.9,1139.2 322.9,1137.4 323.7,1139.3 	"/>
	<polygon class="st2" points="340.6,1139.8 339,1141.1 339.2,1143.1 337.5,1142 335.6,1142.8 336,1140.8 334.7,1139.3 336.7,1139.2 
		337.8,1137.4 338.5,1139.3 	"/>
	<polygon class="st2" points="355.5,1104.8 353.9,1106.1 354.1,1108.1 352.3,1107 350.5,1107.8 350.9,1105.8 349.5,1104.3 
		351.6,1104.2 352.6,1102.5 353.4,1104.3 	"/>
	<polygon class="st2" points="325.7,1104.8 324.1,1106.1 324.4,1108.1 322.6,1107 320.7,1107.8 321.2,1105.8 319.8,1104.3 
		321.9,1104.2 322.9,1102.5 323.7,1104.3 	"/>
	<polygon class="st2" points="341.1,1104.8 339.5,1106.1 339.7,1108.1 338,1107 336.1,1107.8 336.5,1105.8 335.2,1104.3 
		337.2,1104.2 338.3,1102.5 339,1104.3 	"/>
	<rect x="615" y="1166.3" class="st1" width="101.4" height="18.5"/>
	<rect x="626.9" y="1149.4" class="st1" width="101.4" height="18.5"/>
</g>
<g id="Layer_4" class="st0">
</g>
<g id="Layer_5" class="st0">
</g>
<g id="Layer_6" class="st0">
</g>
<g id="Layer_7" class="st0">
</g>
<g id="Layer_8" class="st0">
	<rect x="542" y="388.6" class="st3" width="239.4" height="842"/>
</g>
<rect x="-1125.1" y="190.8" class="st4" width="1029.2" height="7.3"/>
<path class="st4" d="M-1045.5,230.6"/>
<rect x="-883" y="494.7" class="st5" width="192.5" height="55.9"/>
<text transform="matrix(1 0 0 1 -882.9862 545.6378)" class="st10" style="font-family:'ArialMT'; font-size:71.6722px;">years</text>
<g>
	<line class="st6" x1="-902.2" y1="199.3" x2="-902.2" y2="387.6"/>
	<ellipse class="st7" cx="-902.2" cy="196.3" rx="5.7" ry="5.8"/>
</g>
<rect x="-573.5" y="483.9" class="st5" width="426.9" height="151.8"/>
<text transform="matrix(1 0 0 1 -573.4896 506.021)" class="st10 st11 st12">11 years of higher education </text>
<text transform="matrix(1 0 0 1 -573.4896 537.921)" class="st10 st11 st12">in the field of marketing,</text>
<text transform="matrix(1 0 0 1 -573.4896 569.821)" class="st10 st11 st12">communication , </text>
<text transform="matrix(1 0 0 1 -573.4896 601.721)" class="st10 st11 st12">projectmanagement  and design</text>
<line class="st6" x1="-637.6" y1="17.5" x2="-637.6" y2="190.3"/>
<ellipse class="st7" cx="-637.6" cy="194.6" rx="5.7" ry="5.4"/>
<line class="st6" x1="-320.9" y1="200.7" x2="-320.9" y2="373.1"/>
<ellipse class="st7" cx="-320.9" cy="197.3" rx="5.7" ry="6.5"/>
<line class="st8" x1="-877.2" y1="426.1" x2="-386.6" y2="426.1"/>
<line class="st8" x1="-637.6" y1="469" x2="-637.6" y2="611.9"/>
<rect x="-1106.6" y="214.8" class="st5" width="191.6" height="150"/>
<text transform="matrix(1 0 0 1 -1105.5911 236.9041)" class="st10 st11 st12">BA in Econmy</text>
<text transform="matrix(1 0 0 1 -1105.5911 268.8041)" class="st10 st11 st12">Belarussian </text>
<text transform="matrix(1 0 0 1 -1105.5911 300.7041)" class="st10 st11 st12">Economic</text>
<text transform="matrix(1 0 0 1 -1105.5911 332.6041)" class="st10 st11 st12">University</text>
<text transform="matrix(1 0 0 1 -1105.5911 364.5041)" class="st10 st11 st12">1998</text>
<rect x="-883" y="214.6" class="st5" width="265.6" height="238.1"/>
<text transform="matrix(1 0 0 1 -881.9861 236.7108)" class="st10 st11 st12">BA in International</text>
<text transform="matrix(1 0 0 1 -881.9861 268.6108)" class="st10 st11 st12">market </text>
<text transform="matrix(1 0 0 1 -881.9861 300.5108)" class="st10 st11 st12">communication</text>
<text transform="matrix(1 0 0 1 -881.9861 332.4108)" class="st10 st11 st12">Østfold University</text>
<text transform="matrix(1 0 0 1 -881.9861 364.3108)" class="st10 st11 st12"> Collegue</text>
<text transform="matrix(1 0 0 1 -881.9861 396.2108)" class="st10 st11 st12">2009</text>
<rect x="-617.3" y="90.6" class="st5" width="269.8" height="150.1"/>
<text transform="matrix(1 0 0 1 -616.3408 112.7451)" class="st10 st11 st12">Projectmanagement</text>
<text transform="matrix(1 0 0 1 -616.3408 144.6451)" class="st10 st11 st12">Oslomet</text>
<text transform="matrix(1 0 0 1 -616.3408 176.5451)" class="st10 st11 st12">2011</text>
<g>
	<line class="st6" x1="-1119.4" y1="199.2" x2="-1119.4" y2="387.6"/>
	<ellipse class="st7" cx="-1119.4" cy="196.2" rx="5.7" ry="5.8"/>
</g>
<rect x="-309" y="218.5" class="st5" width="269.8" height="150.1"/>
<text transform="matrix(1 0 0 1 -307.965 240.6179)" class="st10 st11 st12">Digital Media </text>
<text transform="matrix(1 0 0 1 -307.965 272.5179)" class="st10 st11 st12">Design</text>
<text transform="matrix(1 0 0 1 -307.965 304.4179)" class="st10 st11 st12">Oslomet</text>
<text transform="matrix(1 0 0 1 -307.965 336.3179)" class="st10 st11 st12">2020</text>
<rect x="-1060.8" y="487.5" class="st5" width="147.6" height="133.1"/>
<rect x="-973.4" y="503.8" class="st5" width="192.5" height="55.9"/>
<text transform="matrix(1 0 0 1 -973.433 554.7867)" class="st10" style="font-family:'ArialMT'; font-size:71.6722px;">11</text>
<text transform="matrix(1 0 0 1 -199.9172 -72.8953)" class="st12" style="font-family:'ArialMT';">Lorem ipsum</text>
<polygon class="st9" points="309.7,342.8 30.4,342.8 30.4,217 308.1,217 341.8,279.9 "/>
<polygon class="st9" points="313.4,181.7 32.3,181.7 32.3,65.5 311.7,65.5 345.7,123.6 "/>
<polygon class="st9" points="319.5,645.2 38.4,645.2 38.4,529.1 317.9,529.1 351.8,587.1 "/>
<polygon class="st9" points="311.4,486.3 30.4,486.3 30.4,370.2 309.8,370.2 343.7,428.3 "/>
<g>
	<rect x="43.5" y="221.9" class="st5" width="290.9" height="134.9"/>
	<text transform="matrix(0.9499 0 0 1 43.5139 244.0376)"><tspan x="0" y="0" class="st10 st11 st12">Content creator</tspan><tspan x="0" y="29.9" class="st10 st11 st12">Bærum International</tspan><tspan x="0" y="59.7" class="st10 st11 st12">Hub</tspan><tspan x="0" y="89.6" class="st10 st11 st12">Jan 2019-April 2019</tspan></text>
	<rect x="40.6" y="74" class="st5" width="290.9" height="109.2"/>
	<text transform="matrix(0.9499 0 0 1 40.6147 96.0629)"><tspan x="0" y="0" class="st10 st11 st12">Graphicdesigner</tspan><tspan x="0" y="36" class="st10 st11 st12">Plan A communication</tspan><tspan x="0" y="72" class="st10 st11 st12">Jan 2020-Mars 2020</tspan></text>
	<rect x="49.8" y="537.5" class="st5" width="252.9" height="104.9"/>
	<text transform="matrix(0.9499 0 0 1 49.7681 559.5938)"><tspan x="0" y="0" class="st10 st11 st12">Office administr</tspan><tspan x="226.8" y="0" class="st10 st11 st12">-</tspan><tspan x="0" y="36" class="st10 st11 st12">tor</tspan><tspan x="0" y="72" class="st10 st11 st12">Taxoffice</tspan></text>
	<g>
		<ellipse class="st13" cx="381" cy="128.1" rx="9.3" ry="9.8"/>
		<ellipse class="st13" cx="380.3" cy="276.3" rx="9.3" ry="9.8"/>
		<ellipse class="st13" cx="382.8" cy="439.4" rx="9.3" ry="9.8"/>
		<ellipse class="st13" cx="380.3" cy="585.7" rx="9.3" ry="9.8"/>
		<polyline class="st13" points="381,128.1 380.3,276.3 382.8,429.6 380.3,595.5 		"/>
	</g>
	<rect x="40.6" y="379.9" class="st5" width="290.9" height="109.2"/>
	<text transform="matrix(0.9499 0 0 1 40.6147 402.0484)"><tspan x="0" y="0" class="st10 st11 st12">Writer\Jounralist</tspan><tspan x="0" y="36" class="st10 st11 st12">Helgelandsblad</tspan><tspan x="0" y="72" class="st10 st11 st12">2018</tspan></text>
</g>
<g id="Layer_10">
</g>
<rect x="972.9" y="653.8" class="st5" width="6.2" height="3.1"/>
<g class="st14">
	<g>
		<path class="st10" d="M775.2,153.6L751,211.5c-8-2.3-16.6-3.5-25.4-3.5c-1.9,0-3.9,0.1-5.8,0.2v-63.9
			C740.4,144.2,755.9,146.8,775.2,153.6z"/>
	</g>
	<g>
		<path class="st9" d="M860.6,336.9c-0.9,2.2-2.1,4.7-3.1,6.9l-58.6-24c5.3-10.2,8.3-21.7,8.3-33.8c0-35-25.1-64.7-59.7-74.6
			l24.2-57.9C851.3,181.7,891.2,263.8,860.6,336.9z"/>
	</g>
	<g>
		<path class="st15" d="M857.5,343.8c-34.7,71.6-126.1,103.8-204.1,71.9c-28.3-11.6-49.9-28.5-66.8-52.4l62.4-37.2
			c14.9,22.8,42,38,73.1,38c33.9,0,63.1-18.1,76.8-44.4L857.5,343.8z"/>
	</g>
	<g>
		<path class="st13" d="M716.3,144.2v63.9c-44.3,2.7-79.4,36.6-79.4,78c0,14.7,4.4,28.4,12.1,40.1l-62.4,37.2
			c-46.5-65.7-26.2-153.6,45.4-196.3C658.1,151.6,685.3,144.2,716.3,144.2z"/>
	</g>
</g>
<rect x="510.7" y="90.1" class="st5" width="71.5" height="35.7"/>
<text transform="matrix(1.0974 0 0 1 510.6613 112.2543)" class="st10 st11 st12">40%</text>
<rect x="739.8" y="82.2" class="st5" width="40.1" height="15.9"/>
<line class="st16" x1="739.8" y1="70.4" x2="739.8" y2="145.6"/>
<polyline class="st17" points="810.9,375.6 810.9,426.3 852.1,426.3 "/>
<polyline class="st17" points="546.4,124.7 546.4,192.2 597.5,192.2 "/>
<polyline class="st17" points="914,230.3 914,277.2 871.4,277.2 "/>
<rect x="575.4" y="454.3" transform="matrix(6.123234e-17 -1 1 6.123234e-17 121.1495 1056.0565)" class="st13" width="26.4" height="26.4"/>
<rect x="575.4" y="511.6" transform="matrix(-1 -1.224647e-16 1.224647e-16 -1 1177.2059 1049.5696)" class="st15" width="26.4" height="26.4"/>
<rect x="576.1" y="612" transform="matrix(6.123234e-17 -1 1 6.123234e-17 -35.8772 1213.0831)" class="st9" width="25.1" height="25.1"/>
<rect x="575.4" y="564.5" transform="matrix(-1 -1.224647e-16 1.224647e-16 -1 1177.2059 1155.3147)" class="st10" width="26.4" height="26.4"/>
<text transform="matrix(1 0 0 1 619.6351 480.9972)" class="st10 st11 st18">Customer service</text>
<text transform="matrix(1 0 0 1 619.6357 540.2908)" class="st10 st11 st18">Marketing</text>
<text transform="matrix(1 0 0 1 619.6354 590.1116)" class="st10 st11 st18">Design</text>
<text transform="matrix(1 0 0 1 619.6359 637.0053)" class="st10 st11 st18">Projectmanagement</text>
<rect x="887.9" y="183.1" class="st5" width="71.5" height="35.7"/>
<text transform="matrix(1.0974 0 0 1 887.8533 205.2478)" class="st10 st11 st12">30%</text>
<rect x="711.7" y="36.1" class="st5" width="71.5" height="35.7"/>
<text transform="matrix(1.0974 0 0 1 711.7177 58.2295)" class="st10 st11 st12">15%</text>
<rect x="864" y="411.7" class="st5" width="71.5" height="35.7"/>
<text transform="matrix(1.0974 0 0 1 864.0426 433.8279)" class="st10 st11 st12">40%</text>
</svg>
